%TF.GenerationSoftware,KiCad,Pcbnew,10.0.5-10.0.5~ubuntu24.04.1*%
%TF.CreationDate,2026-09-06T20:16:32-05:00*%
%TF.ProjectId,midi_glock_pcb,6d696469-5f67-46c6-9f63-6b5f7063622e,rev?*%
%TF.SameCoordinates,Original*%
%TF.FileFunction,Copper,L2,Inr*%
%TF.FilePolarity,Positive*%
%FSLAX46Y46*%
G04 Gerber Fmt 4.6, Leading zero omitted, Abs format (unit mm)*
G04 Created by KiCad (PCBNEW 10.0.5-10.0.5~ubuntu24.04.1) date 2026-09-06 20:16:32*
%MOMM*%
%LPD*%
G01*
G04 APERTURE LIST*
G04 Aperture macros list*
%AMRoundRect*
0 Rectangle with rounded corners*
0 $1 Rounding radius*
0 $2 $3 $4 $5 $6 $7 $8 $9 X,Y pos of 4 corners*
0 Add a 4 corners polygon primitive as box body*
4,1,4,$2,$3,$4,$5,$6,$7,$8,$9,$2,$3,0*
0 Add four circle primitives for the rounded corners*
1,1,$1+$1,$2,$3*
1,1,$1+$1,$4,$5*
1,1,$1+$1,$6,$7*
1,1,$1+$1,$8,$9*
0 Add four rect primitives between the rounded corners*
20,1,$1+$1,$2,$3,$4,$5,0*
20,1,$1+$1,$4,$5,$6,$7,0*
20,1,$1+$1,$6,$7,$8,$9,0*
20,1,$1+$1,$8,$9,$2,$3,0*%
G04 Aperture macros list end*
%TA.AperFunction,ComponentPad*%
%ADD10C,0.499999*%
%TD*%
%TA.AperFunction,ComponentPad*%
%ADD11C,3.600000*%
%TD*%
%TA.AperFunction,ComponentPad*%
%ADD12R,1.508000X1.508000*%
%TD*%
%TA.AperFunction,ComponentPad*%
%ADD13C,1.508000*%
%TD*%
%TA.AperFunction,ComponentPad*%
%ADD14R,3.500000X3.500000*%
%TD*%
%TA.AperFunction,ComponentPad*%
%ADD15RoundRect,0.750000X-1.000000X0.750000X-1.000000X-0.750000X1.000000X-0.750000X1.000000X0.750000X0*%
%TD*%
%TA.AperFunction,ComponentPad*%
%ADD16RoundRect,0.875000X-0.875000X0.875000X-0.875000X-0.875000X0.875000X-0.875000X0.875000X0.875000X0*%
%TD*%
%TA.AperFunction,ComponentPad*%
%ADD17R,1.700000X1.700000*%
%TD*%
%TA.AperFunction,ComponentPad*%
%ADD18C,1.700000*%
%TD*%
%TA.AperFunction,ComponentPad*%
%ADD19C,3.000000*%
%TD*%
%TA.AperFunction,ViaPad*%
%ADD20C,0.600000*%
%TD*%
%TA.AperFunction,Conductor*%
%ADD21C,3.000000*%
%TD*%
G04 APERTURE END LIST*
D10*
%TO.N,GND*%
%TO.C,U2*%
X82912001Y-114868000D03*
X81712000Y-114868000D03*
X80512000Y-114868000D03*
X79311998Y-114868000D03*
X78111998Y-114868000D03*
X76911997Y-114868000D03*
X82912001Y-116068000D03*
X81712000Y-116068000D03*
X80512000Y-116068000D03*
X79311998Y-116068000D03*
X78111998Y-116068000D03*
X76911997Y-116068000D03*
X82912001Y-117268000D03*
X81712000Y-117268000D03*
X80512000Y-117268000D03*
X79311998Y-117268000D03*
X78111998Y-117268000D03*
X76911997Y-117268000D03*
%TD*%
%TO.N,GND*%
%TO.C,U3*%
X65499998Y-132200000D03*
X66699999Y-132200000D03*
X67899999Y-132200000D03*
X69100001Y-132200000D03*
X70300001Y-132200000D03*
X71500002Y-132200000D03*
X65499998Y-131000000D03*
X66699999Y-131000000D03*
X67899999Y-131000000D03*
X69100001Y-131000000D03*
X70300001Y-131000000D03*
X71500002Y-131000000D03*
X65499998Y-129800000D03*
X66699999Y-129800000D03*
X67899999Y-129800000D03*
X69100001Y-129800000D03*
X70300001Y-129800000D03*
X71500002Y-129800000D03*
%TD*%
D11*
%TO.N,N/C*%
%TO.C,REF\u002A\u002A*%
X54248400Y-70595800D03*
%TD*%
D12*
%TO.N,/S33*%
%TO.C,J2*%
X95022467Y-94481728D03*
D13*
%TO.N,/S31*%
X90022467Y-96981728D03*
%TO.N,/S28*%
X95022467Y-99481728D03*
%TO.N,/S30*%
X90022467Y-101981728D03*
%TO.N,/S32*%
X95022467Y-104481728D03*
%TO.N,/S36*%
X90022467Y-106981728D03*
%TO.N,/S29*%
X95022467Y-109481728D03*
%TO.N,/S35*%
X90022467Y-111981728D03*
%TO.N,/S26*%
X95022467Y-114481728D03*
%TO.N,/S25*%
X90022467Y-116981728D03*
%TO.N,/S34*%
X95022467Y-119481728D03*
%TO.N,/S27*%
X90022467Y-121981728D03*
%TO.N,/S23*%
X95022467Y-124481728D03*
%TO.N,/S17*%
X90022467Y-126981728D03*
%TO.N,/S13*%
X95022467Y-129481728D03*
%TO.N,/S14*%
X90022467Y-131981728D03*
%TO.N,/S15*%
X95022467Y-134481728D03*
%TO.N,/S22*%
X90022467Y-136981728D03*
%TO.N,/S19*%
X95022467Y-139481728D03*
%TO.N,/S21*%
X90022467Y-141981728D03*
%TO.N,/S18*%
X95022467Y-144481728D03*
%TO.N,/S16*%
X90022467Y-146981728D03*
%TO.N,/S20*%
X95022467Y-149481728D03*
%TO.N,/S24*%
X90022467Y-151981728D03*
%TD*%
D10*
%TO.N,GND*%
%TO.C,U1*%
X76899997Y-143700000D03*
X78099998Y-143700000D03*
X79299998Y-143700000D03*
X80500000Y-143700000D03*
X81700000Y-143700000D03*
X82900001Y-143700000D03*
X76899997Y-142500000D03*
X78099998Y-142500000D03*
X79299998Y-142500000D03*
X80500000Y-142500000D03*
X81700000Y-142500000D03*
X82900001Y-142500000D03*
X76899997Y-141300000D03*
X78099998Y-141300000D03*
X79299998Y-141300000D03*
X80500000Y-141300000D03*
X81700000Y-141300000D03*
X82900001Y-141300000D03*
%TD*%
D14*
%TO.N,+24V*%
%TO.C,J3*%
X95057500Y-78678750D03*
D15*
%TO.N,GND*%
X95057500Y-72678750D03*
D16*
%TO.N,N/C*%
X90357500Y-75678750D03*
%TD*%
D12*
%TO.N,/S10*%
%TO.C,J1*%
X53000000Y-126000000D03*
D13*
%TO.N,/S3*%
X53000000Y-128500000D03*
%TO.N,/S2*%
X53000000Y-131000000D03*
%TO.N,/S1*%
X53000000Y-133500000D03*
%TO.N,/S5*%
X53000000Y-136000000D03*
%TO.N,/S11*%
X53000000Y-138500000D03*
%TO.N,/S12*%
X53000000Y-141000000D03*
%TO.N,/S8*%
X53000000Y-143500000D03*
%TO.N,/S6*%
X53000000Y-146000000D03*
%TO.N,/S4*%
X53000000Y-148500000D03*
%TO.N,/S7*%
X53000000Y-151000000D03*
%TO.N,/S9*%
X53000000Y-153500000D03*
%TD*%
D17*
%TO.N,/IO_36*%
%TO.C,J4*%
X52318000Y-78419000D03*
D18*
%TO.N,/IO_39*%
X54858000Y-78419000D03*
%TO.N,/IO_32*%
X52318000Y-80959000D03*
%TO.N,/IO_33*%
X54858000Y-80959000D03*
%TO.N,+3.3V*%
X52318000Y-83499000D03*
%TO.N,GND*%
X54858000Y-83499000D03*
%TD*%
D11*
%TO.N,N/C*%
%TO.C,REF\u002A\u002A*%
X95500000Y-88000000D03*
%TD*%
%TO.N,N/C*%
%TO.C,REF\u002A\u002A*%
X70750000Y-150000000D03*
%TD*%
D19*
%TO.N,GND*%
%TO.C,J5*%
X86857500Y-67278750D03*
%TD*%
D17*
%TO.N,GND*%
%TO.C,J7*%
X50500000Y-117250000D03*
D18*
%TO.N,Net-(J7-Pin_2)*%
X53040000Y-117250000D03*
%TO.N,Net-(J7-Pin_3)*%
X55580000Y-117250000D03*
%TO.N,+3.3V*%
X58120000Y-117250000D03*
%TD*%
D20*
%TO.N,+3.3V*%
X65907000Y-103107800D03*
X69098800Y-98900000D03*
X78480000Y-109305400D03*
X68523200Y-137651800D03*
X54883400Y-87283600D03*
X65780000Y-105774800D03*
X72155400Y-87207400D03*
X51987800Y-86877200D03*
X67024600Y-116341200D03*
X78175200Y-150097800D03*
X65750000Y-107000000D03*
X56646330Y-87283600D03*
X68125001Y-135442000D03*
X68091400Y-140166400D03*
X51200400Y-103234800D03*
%TO.N,/SDIO_D0*%
X61563600Y-100980000D03*
%TO.N,GND*%
X73095200Y-143316000D03*
X78771600Y-74799000D03*
X67380200Y-82635400D03*
X76092400Y-128914200D03*
X52475000Y-90052200D03*
X57448800Y-104098400D03*
X83100000Y-84400000D03*
X82620200Y-108721200D03*
X85871400Y-122296000D03*
X61462000Y-85556400D03*
X49320800Y-92490600D03*
X75500000Y-145000000D03*
X81655000Y-148954800D03*
X58617200Y-85962800D03*
X75500000Y-145750000D03*
X73468665Y-125274465D03*
X51657600Y-90077600D03*
X63875000Y-121929200D03*
X84700000Y-84400000D03*
X86250000Y-133900000D03*
X54477000Y-91652400D03*
X83900000Y-84400000D03*
X86800000Y-135100000D03*
X74441400Y-122335600D03*
X62511261Y-124400861D03*
X51175000Y-108924400D03*
X73019000Y-128500000D03*
X84250000Y-140000000D03*
X59176000Y-82940200D03*
X75355800Y-118627200D03*
X55725000Y-97400000D03*
X59988800Y-74532800D03*
X84500000Y-113500000D03*
X77464000Y-87563000D03*
X73000000Y-127750000D03*
X75330400Y-119465400D03*
X76575000Y-84400000D03*
X81604200Y-106155800D03*
X74492200Y-121370400D03*
X86300000Y-136100000D03*
X81401000Y-108035400D03*
X62732000Y-135315000D03*
X84500000Y-112750000D03*
X77400000Y-84400000D03*
X71139400Y-123605600D03*
X85261800Y-134000000D03*
X86404800Y-121776800D03*
X75787600Y-123910400D03*
X61817600Y-124850200D03*
X75305000Y-120938600D03*
X53765800Y-102015600D03*
X69107400Y-84997600D03*
X50975000Y-101050000D03*
X60025000Y-88756800D03*
X84499800Y-118144600D03*
X64052800Y-133918000D03*
X56610600Y-109229200D03*
X84250000Y-139250000D03*
X84169600Y-118881200D03*
X69793200Y-118779600D03*
X63951200Y-132698800D03*
X49270000Y-95614800D03*
X64967200Y-138896400D03*
X49422400Y-110270600D03*
X49524000Y-89569600D03*
X65983200Y-137728000D03*
X64027400Y-129041200D03*
X84042600Y-105419200D03*
X85439600Y-124469200D03*
X64078200Y-128152200D03*
X75000000Y-137750000D03*
X73468665Y-126000735D03*
X67045000Y-95365800D03*
X75300000Y-139900000D03*
X75700000Y-84400000D03*
X71164800Y-91398400D03*
X75300000Y-139000000D03*
X84753800Y-124469200D03*
X66440400Y-85505600D03*
X75228800Y-134248200D03*
X66034000Y-140064800D03*
%TO.N,+24V*%
X76956000Y-136153200D03*
X81105025Y-135905025D03*
X78972200Y-134192193D03*
X80959600Y-121500000D03*
X88750000Y-86250000D03*
X80934200Y-124331000D03*
X69666200Y-121919600D03*
X91250000Y-83750000D03*
X69387510Y-122555232D03*
X65830800Y-121929200D03*
X90000000Y-85000000D03*
X65573792Y-125356315D03*
X80914445Y-125129896D03*
X81600000Y-134100000D03*
X66846800Y-121919600D03*
X79353200Y-122310200D03*
X87375000Y-87625000D03*
X79302400Y-124331000D03*
X92625000Y-82375000D03*
%TO.N,/S36*%
X84550600Y-111769200D03*
%TO.N,/S32*%
X83458400Y-111069200D03*
%TO.N,/S30*%
X82950400Y-110369200D03*
%TO.N,/SPI_MOSI*%
X51000000Y-110250000D03*
%TO.N,Net-(U1-SDI)*%
X74212800Y-138515400D03*
X79546800Y-111134200D03*
%TO.N,/DRV_nSLEEP*%
X51841750Y-113020150D03*
%TO.N,/S28*%
X77425575Y-110512225D03*
%TO.N,/S31*%
X76523106Y-110967600D03*
%TO.N,/S33*%
X75914600Y-111667600D03*
%TO.N,/DRV_nFAULT*%
X84855400Y-144763800D03*
X73171400Y-132902000D03*
X55747000Y-113420200D03*
%TO.N,/S34*%
X76321000Y-120583000D03*
%TO.N,/S27*%
X77133800Y-120887800D03*
%TO.N,/S26*%
X78986998Y-120710799D03*
%TO.N,/S25*%
X79656528Y-120272925D03*
%TO.N,/SPI_CS*%
X60827000Y-113369400D03*
%TO.N,/SPI_SCLK*%
X78784800Y-126145600D03*
X78000000Y-128500000D03*
X66750000Y-120252800D03*
X59785600Y-113725000D03*
%TO.N,/S29*%
X82874200Y-121280000D03*
%TO.N,/S35*%
X83534600Y-120583000D03*
%TO.N,/SDIO_CMD*%
X68315000Y-109788000D03*
%TO.N,Net-(U5-IO0)*%
X73857200Y-83676800D03*
%TO.N,/S12*%
X64440799Y-135612801D03*
%TO.N,/S8*%
X65576800Y-135873800D03*
%TO.N,/S6*%
X66288000Y-136407200D03*
%TO.N,Net-(U1-SDO)*%
X80258000Y-147532400D03*
X67648400Y-136343402D03*
%TO.N,/SPI_MISO*%
X58782300Y-113636100D03*
%TO.N,/S4*%
X70075002Y-136500000D03*
%TO.N,/S7*%
X71190200Y-136432600D03*
%TO.N,/S9*%
X71876000Y-135924600D03*
%TO.N,/S10*%
X71723600Y-126501200D03*
%TO.N,/S3*%
X70850669Y-126647969D03*
%TO.N,/S2*%
X69539200Y-125993200D03*
%TO.N,/S1*%
X68825201Y-126372310D03*
%TO.N,/S5*%
X64789400Y-125979000D03*
%TO.N,/S11*%
X64383000Y-126744000D03*
%TO.N,/SDIO_CLK*%
X53458900Y-100591100D03*
%TO.N,/S23*%
X76448000Y-138083600D03*
%TO.N,/S17*%
X77235400Y-137829600D03*
%TO.N,/S13*%
X80015200Y-137353600D03*
%TO.N,/S14*%
X80849500Y-137760801D03*
%TO.N,/S15*%
X82747200Y-137626400D03*
%TO.N,/S22*%
X83636200Y-138326400D03*
%TO.N,/S19*%
X83153600Y-148116600D03*
%TO.N,/S21*%
X83331400Y-147176800D03*
%TO.N,/S18*%
X78264100Y-147761000D03*
%TO.N,/S16*%
X82874200Y-149056400D03*
%TO.N,/S20*%
X77564100Y-147024400D03*
%TO.N,/S24*%
X76321000Y-146922800D03*
%TO.N,Net-(U5-EN)*%
X51860800Y-92465200D03*
%TO.N,/IO_39*%
X57532535Y-89866865D03*
%TD*%
%TO.N,GND*%
D21*
X92343125Y-67278750D02*
X95057500Y-69993125D01*
X86857500Y-67278750D02*
X92343125Y-67278750D01*
X95057500Y-69993125D02*
X95057500Y-72678750D01*
%TD*%
%TA.AperFunction,Conductor*%
%TO.N,GND*%
G36*
X84804883Y-65220185D02*
G01*
X84850638Y-65272989D01*
X84861844Y-65324500D01*
X84861844Y-67106540D01*
X84860783Y-67122726D01*
X84857500Y-67147655D01*
X84857500Y-67409844D01*
X84860783Y-67434773D01*
X84861844Y-67450959D01*
X84861844Y-70000000D01*
X99375500Y-70000000D01*
X99442539Y-70019685D01*
X99488294Y-70072489D01*
X99499500Y-70124000D01*
X99499500Y-154375500D01*
X99479815Y-154442539D01*
X99427011Y-154488294D01*
X99375500Y-154499500D01*
X53630970Y-154499500D01*
X53563931Y-154479815D01*
X53518176Y-154427011D01*
X53508232Y-154357853D01*
X53537257Y-154294297D01*
X53562079Y-154272398D01*
X53578210Y-154261619D01*
X53608458Y-154241408D01*
X53741408Y-154108458D01*
X53845867Y-153952125D01*
X53917819Y-153778417D01*
X53954500Y-153594010D01*
X53954500Y-153405990D01*
X53954500Y-153405987D01*
X53954499Y-153405985D01*
X53917820Y-153221590D01*
X53917819Y-153221583D01*
X53917817Y-153221578D01*
X53845870Y-153047881D01*
X53845863Y-153047868D01*
X53741408Y-152891542D01*
X53741405Y-152891538D01*
X53608461Y-152758594D01*
X53608457Y-152758591D01*
X53452131Y-152654136D01*
X53452118Y-152654129D01*
X53278421Y-152582182D01*
X53278409Y-152582179D01*
X53094013Y-152545500D01*
X53094010Y-152545500D01*
X52905990Y-152545500D01*
X52905987Y-152545500D01*
X52721590Y-152582179D01*
X52721578Y-152582182D01*
X52547881Y-152654129D01*
X52547868Y-152654136D01*
X52391542Y-152758591D01*
X52391538Y-152758594D01*
X52258594Y-152891538D01*
X52258591Y-152891542D01*
X52154136Y-153047868D01*
X52154129Y-153047881D01*
X52082182Y-153221578D01*
X52082179Y-153221590D01*
X52045500Y-153405985D01*
X52045500Y-153594014D01*
X52082179Y-153778409D01*
X52082182Y-153778421D01*
X52154129Y-153952118D01*
X52154136Y-153952131D01*
X52258591Y-154108457D01*
X52258594Y-154108461D01*
X52391538Y-154241405D01*
X52391542Y-154241408D01*
X52437921Y-154272398D01*
X52482726Y-154326010D01*
X52491433Y-154395335D01*
X52461278Y-154458363D01*
X52401835Y-154495082D01*
X52369030Y-154499500D01*
X48624500Y-154499500D01*
X48557461Y-154479815D01*
X48511706Y-154427011D01*
X48500500Y-154375500D01*
X48500500Y-150905985D01*
X52045500Y-150905985D01*
X52045500Y-151094014D01*
X52082179Y-151278409D01*
X52082182Y-151278421D01*
X52154129Y-151452118D01*
X52154136Y-151452131D01*
X52258591Y-151608457D01*
X52258594Y-151608461D01*
X52391538Y-151741405D01*
X52391542Y-151741408D01*
X52547868Y-151845863D01*
X52547881Y-151845870D01*
X52674694Y-151898397D01*
X52721583Y-151917819D01*
X52905985Y-151954499D01*
X52905988Y-151954500D01*
X52905990Y-151954500D01*
X53094012Y-151954500D01*
X53094013Y-151954499D01*
X53278417Y-151917819D01*
X53452125Y-151845867D01*
X53608458Y-151741408D01*
X53741408Y-151608458D01*
X53845867Y-151452125D01*
X53917819Y-151278417D01*
X53954500Y-151094010D01*
X53954500Y-150905990D01*
X53954500Y-150905987D01*
X53954499Y-150905985D01*
X53917820Y-150721590D01*
X53917819Y-150721583D01*
X53917817Y-150721578D01*
X53845870Y-150547881D01*
X53845863Y-150547868D01*
X53741408Y-150391542D01*
X53741405Y-150391538D01*
X53608461Y-150258594D01*
X53608457Y-150258591D01*
X53452131Y-150154136D01*
X53452118Y-150154129D01*
X53278421Y-150082182D01*
X53278409Y-150082179D01*
X53094013Y-150045500D01*
X53094010Y-150045500D01*
X52905990Y-150045500D01*
X52905987Y-150045500D01*
X52721590Y-150082179D01*
X52721578Y-150082182D01*
X52547881Y-150154129D01*
X52547868Y-150154136D01*
X52391542Y-150258591D01*
X52391538Y-150258594D01*
X52258594Y-150391538D01*
X52258591Y-150391542D01*
X52154136Y-150547868D01*
X52154129Y-150547881D01*
X52082182Y-150721578D01*
X52082179Y-150721590D01*
X52045500Y-150905985D01*
X48500500Y-150905985D01*
X48500500Y-149868872D01*
X68749500Y-149868872D01*
X68749500Y-150131127D01*
X68770547Y-150290986D01*
X68783730Y-150391116D01*
X68839245Y-150598300D01*
X68851602Y-150644418D01*
X68851605Y-150644428D01*
X68951953Y-150886690D01*
X68951958Y-150886700D01*
X69083075Y-151113803D01*
X69242718Y-151321851D01*
X69242726Y-151321860D01*
X69428140Y-151507274D01*
X69428148Y-151507281D01*
X69636196Y-151666924D01*
X69863299Y-151798041D01*
X69863309Y-151798046D01*
X69978767Y-151845870D01*
X70105581Y-151898398D01*
X70358884Y-151966270D01*
X70618880Y-152000500D01*
X70618887Y-152000500D01*
X70881113Y-152000500D01*
X70881120Y-152000500D01*
X71141116Y-151966270D01*
X71394419Y-151898398D01*
X71420215Y-151887713D01*
X89067967Y-151887713D01*
X89067967Y-152075742D01*
X89104646Y-152260137D01*
X89104649Y-152260149D01*
X89176596Y-152433846D01*
X89176603Y-152433859D01*
X89281058Y-152590185D01*
X89281061Y-152590189D01*
X89414005Y-152723133D01*
X89414009Y-152723136D01*
X89570335Y-152827591D01*
X89570348Y-152827598D01*
X89724724Y-152891542D01*
X89744050Y-152899547D01*
X89928452Y-152936227D01*
X89928455Y-152936228D01*
X89928457Y-152936228D01*
X90116479Y-152936228D01*
X90116480Y-152936227D01*
X90300884Y-152899547D01*
X90474592Y-152827595D01*
X90630925Y-152723136D01*
X90763875Y-152590186D01*
X90868334Y-152433853D01*
X90940286Y-152260145D01*
X90976967Y-152075738D01*
X90976967Y-151887718D01*
X90976967Y-151887715D01*
X90976966Y-151887713D01*
X90959129Y-151798041D01*
X90940286Y-151703311D01*
X90900997Y-151608458D01*
X90868337Y-151529609D01*
X90868330Y-151529596D01*
X90763875Y-151373270D01*
X90763872Y-151373266D01*
X90630928Y-151240322D01*
X90630924Y-151240319D01*
X90474598Y-151135864D01*
X90474585Y-151135857D01*
X90300888Y-151063910D01*
X90300876Y-151063907D01*
X90116480Y-151027228D01*
X90116477Y-151027228D01*
X89928457Y-151027228D01*
X89928454Y-151027228D01*
X89744057Y-151063907D01*
X89744045Y-151063910D01*
X89570348Y-151135857D01*
X89570335Y-151135864D01*
X89414009Y-151240319D01*
X89414005Y-151240322D01*
X89281061Y-151373266D01*
X89281058Y-151373270D01*
X89176603Y-151529596D01*
X89176596Y-151529609D01*
X89104649Y-151703306D01*
X89104646Y-151703318D01*
X89067967Y-151887713D01*
X71420215Y-151887713D01*
X71636697Y-151798043D01*
X71863803Y-151666924D01*
X72071851Y-151507282D01*
X72071855Y-151507277D01*
X72071860Y-151507274D01*
X72257274Y-151321860D01*
X72257277Y-151321855D01*
X72257282Y-151321851D01*
X72416924Y-151113803D01*
X72548043Y-150886697D01*
X72648398Y-150644419D01*
X72716270Y-150391116D01*
X72750500Y-150131120D01*
X72750500Y-150031908D01*
X77674700Y-150031908D01*
X77674700Y-150163691D01*
X77708808Y-150290987D01*
X77729942Y-150327591D01*
X77774700Y-150405114D01*
X77867886Y-150498300D01*
X77982014Y-150564192D01*
X78109308Y-150598300D01*
X78109310Y-150598300D01*
X78241090Y-150598300D01*
X78241092Y-150598300D01*
X78368386Y-150564192D01*
X78482514Y-150498300D01*
X78575700Y-150405114D01*
X78641592Y-150290986D01*
X78675700Y-150163692D01*
X78675700Y-150031908D01*
X78641592Y-149904614D01*
X78575700Y-149790486D01*
X78482514Y-149697300D01*
X78425450Y-149664354D01*
X78368387Y-149631408D01*
X78284324Y-149608884D01*
X78241092Y-149597300D01*
X78109308Y-149597300D01*
X77982012Y-149631408D01*
X77867886Y-149697300D01*
X77867883Y-149697302D01*
X77774702Y-149790483D01*
X77774700Y-149790486D01*
X77708808Y-149904612D01*
X77674700Y-150031908D01*
X72750500Y-150031908D01*
X72750500Y-149868880D01*
X72716270Y-149608884D01*
X72648398Y-149355581D01*
X72604494Y-149249587D01*
X72548046Y-149113309D01*
X72548041Y-149113299D01*
X72508251Y-149044381D01*
X72499722Y-149029609D01*
X72477148Y-148990508D01*
X82373700Y-148990508D01*
X82373700Y-149122291D01*
X82407808Y-149249587D01*
X82440754Y-149306650D01*
X82473700Y-149363714D01*
X82566886Y-149456900D01*
X82681014Y-149522792D01*
X82808308Y-149556900D01*
X82808310Y-149556900D01*
X82940090Y-149556900D01*
X82940092Y-149556900D01*
X83067386Y-149522792D01*
X83181514Y-149456900D01*
X83250701Y-149387713D01*
X94067967Y-149387713D01*
X94067967Y-149575742D01*
X94104646Y-149760137D01*
X94104649Y-149760149D01*
X94176596Y-149933846D01*
X94176603Y-149933859D01*
X94281058Y-150090185D01*
X94281061Y-150090189D01*
X94414005Y-150223133D01*
X94414009Y-150223136D01*
X94570335Y-150327591D01*
X94570348Y-150327598D01*
X94724724Y-150391542D01*
X94744050Y-150399547D01*
X94928452Y-150436227D01*
X94928455Y-150436228D01*
X94928457Y-150436228D01*
X95116479Y-150436228D01*
X95116480Y-150436227D01*
X95300884Y-150399547D01*
X95474592Y-150327595D01*
X95630925Y-150223136D01*
X95763875Y-150090186D01*
X95868334Y-149933853D01*
X95940286Y-149760145D01*
X95976967Y-149575738D01*
X95976967Y-149387718D01*
X95976967Y-149387715D01*
X95976966Y-149387713D01*
X95972191Y-149363707D01*
X95940286Y-149203311D01*
X95900997Y-149108458D01*
X95868337Y-149029609D01*
X95868330Y-149029596D01*
X95763875Y-148873270D01*
X95763872Y-148873266D01*
X95630928Y-148740322D01*
X95630924Y-148740319D01*
X95474598Y-148635864D01*
X95474585Y-148635857D01*
X95300888Y-148563910D01*
X95300876Y-148563907D01*
X95116480Y-148527228D01*
X95116477Y-148527228D01*
X94928457Y-148527228D01*
X94928454Y-148527228D01*
X94744057Y-148563907D01*
X94744045Y-148563910D01*
X94570348Y-148635857D01*
X94570335Y-148635864D01*
X94414009Y-148740319D01*
X94414005Y-148740322D01*
X94281061Y-148873266D01*
X94281058Y-148873270D01*
X94176603Y-149029596D01*
X94176596Y-149029609D01*
X94104649Y-149203306D01*
X94104646Y-149203318D01*
X94067967Y-149387713D01*
X83250701Y-149387713D01*
X83274700Y-149363714D01*
X83279396Y-149355581D01*
X83300156Y-149319625D01*
X83340590Y-149249589D01*
X83340592Y-149249586D01*
X83374700Y-149122292D01*
X83374700Y-148990508D01*
X83340592Y-148863214D01*
X83291637Y-148778421D01*
X83281922Y-148761594D01*
X83265449Y-148693694D01*
X83288301Y-148627667D01*
X83341867Y-148585028D01*
X83346772Y-148582995D01*
X83346786Y-148582992D01*
X83460914Y-148517100D01*
X83554100Y-148423914D01*
X83619992Y-148309786D01*
X83654100Y-148182492D01*
X83654100Y-148050708D01*
X83619992Y-147923414D01*
X83554100Y-147809286D01*
X83552266Y-147807452D01*
X83551214Y-147805526D01*
X83549153Y-147802840D01*
X83549572Y-147802518D01*
X83518781Y-147746129D01*
X83523765Y-147676437D01*
X83565637Y-147620504D01*
X83577947Y-147612384D01*
X83580883Y-147610688D01*
X83638714Y-147577300D01*
X83731900Y-147484114D01*
X83797792Y-147369986D01*
X83831900Y-147242692D01*
X83831900Y-147110908D01*
X83797792Y-146983614D01*
X83742423Y-146887713D01*
X89067967Y-146887713D01*
X89067967Y-147075742D01*
X89104646Y-147260137D01*
X89104649Y-147260149D01*
X89176596Y-147433846D01*
X89176603Y-147433859D01*
X89281058Y-147590185D01*
X89281061Y-147590189D01*
X89414005Y-147723133D01*
X89414009Y-147723136D01*
X89570335Y-147827591D01*
X89570348Y-147827598D01*
X89724724Y-147891542D01*
X89744050Y-147899547D01*
X89911711Y-147932897D01*
X89928452Y-147936227D01*
X89928455Y-147936228D01*
X89928457Y-147936228D01*
X90116479Y-147936228D01*
X90116480Y-147936227D01*
X90300884Y-147899547D01*
X90445334Y-147839714D01*
X90474585Y-147827598D01*
X90474585Y-147827597D01*
X90474592Y-147827595D01*
X90630925Y-147723136D01*
X90763875Y-147590186D01*
X90868334Y-147433853D01*
X90872043Y-147424900D01*
X90894788Y-147369987D01*
X90940286Y-147260145D01*
X90976967Y-147075738D01*
X90976967Y-146887718D01*
X90976967Y-146887715D01*
X90976966Y-146887713D01*
X90968641Y-146845863D01*
X90940286Y-146703311D01*
X90900997Y-146608458D01*
X90868337Y-146529609D01*
X90868330Y-146529596D01*
X90763875Y-146373270D01*
X90763872Y-146373266D01*
X90630928Y-146240322D01*
X90630924Y-146240319D01*
X90474598Y-146135864D01*
X90474585Y-146135857D01*
X90300888Y-146063910D01*
X90300876Y-146063907D01*
X90116480Y-146027228D01*
X90116477Y-146027228D01*
X89928457Y-146027228D01*
X89928454Y-146027228D01*
X89744057Y-146063907D01*
X89744045Y-146063910D01*
X89570348Y-146135857D01*
X89570335Y-146135864D01*
X89414009Y-146240319D01*
X89414005Y-146240322D01*
X89281061Y-146373266D01*
X89281058Y-146373270D01*
X89176603Y-146529596D01*
X89176596Y-146529609D01*
X89104649Y-146703306D01*
X89104646Y-146703318D01*
X89067967Y-146887713D01*
X83742423Y-146887713D01*
X83731900Y-146869486D01*
X83638714Y-146776300D01*
X83557852Y-146729614D01*
X83524587Y-146710408D01*
X83460939Y-146693354D01*
X83397292Y-146676300D01*
X83265508Y-146676300D01*
X83138212Y-146710408D01*
X83024086Y-146776300D01*
X83024083Y-146776302D01*
X82930902Y-146869483D01*
X82930900Y-146869486D01*
X82865008Y-146983612D01*
X82836424Y-147090291D01*
X82830900Y-147110908D01*
X82830900Y-147242692D01*
X82835578Y-147260149D01*
X82865008Y-147369987D01*
X82895788Y-147423299D01*
X82930900Y-147484114D01*
X82930902Y-147484116D01*
X82932733Y-147485947D01*
X82933783Y-147487870D01*
X82935847Y-147490560D01*
X82935427Y-147490881D01*
X82966218Y-147547270D01*
X82961234Y-147616962D01*
X82919362Y-147672895D01*
X82907054Y-147681014D01*
X82846289Y-147716098D01*
X82846283Y-147716102D01*
X82753102Y-147809283D01*
X82753100Y-147809286D01*
X82687208Y-147923412D01*
X82666821Y-147999500D01*
X82653100Y-148050708D01*
X82653100Y-148182492D01*
X82663576Y-148221590D01*
X82687209Y-148309788D01*
X82687209Y-148309789D01*
X82745877Y-148411405D01*
X82762350Y-148479305D01*
X82739497Y-148545332D01*
X82685943Y-148587966D01*
X82681016Y-148590006D01*
X82566886Y-148655900D01*
X82566883Y-148655902D01*
X82473702Y-148749083D01*
X82473700Y-148749086D01*
X82407808Y-148863212D01*
X82373700Y-148990508D01*
X72477148Y-148990508D01*
X72454991Y-148952131D01*
X72416924Y-148886196D01*
X72257281Y-148678148D01*
X72257274Y-148678140D01*
X72071860Y-148492726D01*
X72071851Y-148492718D01*
X71863803Y-148333075D01*
X71636700Y-148201958D01*
X71636690Y-148201953D01*
X71394428Y-148101605D01*
X71394421Y-148101603D01*
X71394419Y-148101602D01*
X71141116Y-148033730D01*
X71083339Y-148026123D01*
X70881127Y-147999500D01*
X70881120Y-147999500D01*
X70618880Y-147999500D01*
X70618872Y-147999500D01*
X70387772Y-148029926D01*
X70358884Y-148033730D01*
X70229807Y-148068316D01*
X70105581Y-148101602D01*
X70105571Y-148101605D01*
X69863309Y-148201953D01*
X69863299Y-148201958D01*
X69636196Y-148333075D01*
X69428148Y-148492718D01*
X69242718Y-148678148D01*
X69083075Y-148886196D01*
X68951958Y-149113299D01*
X68951953Y-149113309D01*
X68851605Y-149355571D01*
X68851602Y-149355581D01*
X68792611Y-149575742D01*
X68783730Y-149608885D01*
X68749500Y-149868872D01*
X48500500Y-149868872D01*
X48500500Y-148405985D01*
X52045500Y-148405985D01*
X52045500Y-148594014D01*
X52082179Y-148778409D01*
X52082182Y-148778421D01*
X52154129Y-148952118D01*
X52154136Y-148952131D01*
X52258591Y-149108457D01*
X52258594Y-149108461D01*
X52391538Y-149241405D01*
X52391542Y-149241408D01*
X52547868Y-149345863D01*
X52547881Y-149345870D01*
X52721578Y-149417817D01*
X52721583Y-149417819D01*
X52905985Y-149454499D01*
X52905988Y-149454500D01*
X52905990Y-149454500D01*
X53094012Y-149454500D01*
X53094013Y-149454499D01*
X53278417Y-149417819D01*
X53428673Y-149355581D01*
X53452118Y-149345870D01*
X53452118Y-149345869D01*
X53452125Y-149345867D01*
X53608458Y-149241408D01*
X53741408Y-149108458D01*
X53845867Y-148952125D01*
X53917819Y-148778417D01*
X53954500Y-148594010D01*
X53954500Y-148405990D01*
X53954500Y-148405987D01*
X53954499Y-148405985D01*
X53917820Y-148221590D01*
X53917819Y-148221583D01*
X53892932Y-148161500D01*
X53845870Y-148047881D01*
X53845863Y-148047868D01*
X53741408Y-147891542D01*
X53741405Y-147891538D01*
X53608461Y-147758594D01*
X53608457Y-147758591D01*
X53452131Y-147654136D01*
X53452118Y-147654129D01*
X53278421Y-147582182D01*
X53278409Y-147582179D01*
X53094013Y-147545500D01*
X53094010Y-147545500D01*
X52905990Y-147545500D01*
X52905987Y-147545500D01*
X52721590Y-147582179D01*
X52721578Y-147582182D01*
X52547881Y-147654129D01*
X52547868Y-147654136D01*
X52391542Y-147758591D01*
X52391538Y-147758594D01*
X52258594Y-147891538D01*
X52258591Y-147891542D01*
X52154136Y-148047868D01*
X52154129Y-148047881D01*
X52082182Y-148221578D01*
X52082179Y-148221590D01*
X52045500Y-148405985D01*
X48500500Y-148405985D01*
X48500500Y-145905985D01*
X52045500Y-145905985D01*
X52045500Y-146094014D01*
X52082179Y-146278409D01*
X52082182Y-146278421D01*
X52154129Y-146452118D01*
X52154136Y-146452131D01*
X52258591Y-146608457D01*
X52258594Y-146608461D01*
X52391538Y-146741405D01*
X52391542Y-146741408D01*
X52547868Y-146845863D01*
X52547881Y-146845870D01*
X52719009Y-146916753D01*
X52721583Y-146917819D01*
X52905985Y-146954499D01*
X52905988Y-146954500D01*
X52905990Y-146954500D01*
X53094012Y-146954500D01*
X53094013Y-146954499D01*
X53278417Y-146917819D01*
X53425470Y-146856908D01*
X75820500Y-146856908D01*
X75820500Y-146988692D01*
X75837554Y-147052339D01*
X75854608Y-147115987D01*
X75887554Y-147173050D01*
X75920500Y-147230114D01*
X76013686Y-147323300D01*
X76127814Y-147389192D01*
X76255108Y-147423300D01*
X76255110Y-147423300D01*
X76386890Y-147423300D01*
X76386892Y-147423300D01*
X76514186Y-147389192D01*
X76628314Y-147323300D01*
X76721500Y-147230114D01*
X76787392Y-147115986D01*
X76821500Y-146988692D01*
X76821500Y-146958508D01*
X77063600Y-146958508D01*
X77063600Y-147030445D01*
X77063600Y-147090291D01*
X77097708Y-147217587D01*
X77130654Y-147274650D01*
X77163600Y-147331714D01*
X77256786Y-147424900D01*
X77370914Y-147490792D01*
X77498208Y-147524900D01*
X77498210Y-147524900D01*
X77629986Y-147524900D01*
X77629992Y-147524900D01*
X77629997Y-147524898D01*
X77631754Y-147524667D01*
X77633249Y-147524900D01*
X77638119Y-147524900D01*
X77638119Y-147525658D01*
X77700791Y-147535424D01*
X77753052Y-147581798D01*
X77771945Y-147649065D01*
X77767729Y-147679694D01*
X77763600Y-147695108D01*
X77763600Y-147826892D01*
X77767036Y-147839714D01*
X77797708Y-147954187D01*
X77823461Y-147998791D01*
X77863600Y-148068314D01*
X77956786Y-148161500D01*
X78055621Y-148218563D01*
X78060852Y-148221583D01*
X78070914Y-148227392D01*
X78198208Y-148261500D01*
X78198210Y-148261500D01*
X78329990Y-148261500D01*
X78329992Y-148261500D01*
X78457286Y-148227392D01*
X78571414Y-148161500D01*
X78664600Y-148068314D01*
X78730492Y-147954186D01*
X78764600Y-147826892D01*
X78764600Y-147695108D01*
X78730492Y-147567814D01*
X78711792Y-147535424D01*
X78703108Y-147520383D01*
X78703107Y-147520382D01*
X78672003Y-147466508D01*
X79757500Y-147466508D01*
X79757500Y-147598292D01*
X79771411Y-147650208D01*
X79791608Y-147725587D01*
X79810663Y-147758591D01*
X79857500Y-147839714D01*
X79950686Y-147932900D01*
X80064814Y-147998792D01*
X80192108Y-148032900D01*
X80192110Y-148032900D01*
X80323890Y-148032900D01*
X80323892Y-148032900D01*
X80451186Y-147998792D01*
X80565314Y-147932900D01*
X80658500Y-147839714D01*
X80724392Y-147725586D01*
X80758500Y-147598292D01*
X80758500Y-147466508D01*
X80724392Y-147339214D01*
X80658500Y-147225086D01*
X80565314Y-147131900D01*
X80493247Y-147090292D01*
X80451187Y-147066008D01*
X80387539Y-147048954D01*
X80323892Y-147031900D01*
X80192108Y-147031900D01*
X80064812Y-147066008D01*
X79950686Y-147131900D01*
X79950683Y-147131902D01*
X79857502Y-147225083D01*
X79857500Y-147225086D01*
X79791608Y-147339212D01*
X79768649Y-147424899D01*
X79757500Y-147466508D01*
X78672003Y-147466508D01*
X78664600Y-147453686D01*
X78571414Y-147360500D01*
X78506977Y-147323297D01*
X78457287Y-147294608D01*
X78393639Y-147277554D01*
X78329992Y-147260500D01*
X78198208Y-147260500D01*
X78196431Y-147260734D01*
X78194930Y-147260500D01*
X78190081Y-147260500D01*
X78190081Y-147259743D01*
X78127396Y-147249969D01*
X78075140Y-147203589D01*
X78056254Y-147136320D01*
X78060470Y-147105704D01*
X78064600Y-147090292D01*
X78064600Y-146958508D01*
X78030492Y-146831214D01*
X77964600Y-146717086D01*
X77871414Y-146623900D01*
X77814350Y-146590954D01*
X77757287Y-146558008D01*
X77651298Y-146529609D01*
X77629992Y-146523900D01*
X77498208Y-146523900D01*
X77370912Y-146558008D01*
X77256786Y-146623900D01*
X77256783Y-146623902D01*
X77163602Y-146717083D01*
X77163600Y-146717086D01*
X77097708Y-146831212D01*
X77087454Y-146869483D01*
X77063600Y-146958508D01*
X76821500Y-146958508D01*
X76821500Y-146856908D01*
X76787392Y-146729614D01*
X76721500Y-146615486D01*
X76628314Y-146522300D01*
X76571250Y-146489354D01*
X76514187Y-146456408D01*
X76450539Y-146439354D01*
X76386892Y-146422300D01*
X76255108Y-146422300D01*
X76127812Y-146456408D01*
X76013686Y-146522300D01*
X76013683Y-146522302D01*
X75920502Y-146615483D01*
X75920500Y-146615486D01*
X75854608Y-146729612D01*
X75842098Y-146776302D01*
X75820500Y-146856908D01*
X53425470Y-146856908D01*
X53452125Y-146845867D01*
X53608458Y-146741408D01*
X53741408Y-146608458D01*
X53845867Y-146452125D01*
X53917819Y-146278417D01*
X53954500Y-146094010D01*
X53954500Y-145905990D01*
X53954500Y-145905987D01*
X53954499Y-145905985D01*
X53917820Y-145721590D01*
X53917819Y-145721583D01*
X53917817Y-145721578D01*
X53845870Y-145547881D01*
X53845863Y-145547868D01*
X53741408Y-145391542D01*
X53741405Y-145391538D01*
X53608461Y-145258594D01*
X53608457Y-145258591D01*
X53452131Y-145154136D01*
X53452118Y-145154129D01*
X53278421Y-145082182D01*
X53278409Y-145082179D01*
X53094013Y-145045500D01*
X53094010Y-145045500D01*
X52905990Y-145045500D01*
X52905987Y-145045500D01*
X52721590Y-145082179D01*
X52721578Y-145082182D01*
X52547881Y-145154129D01*
X52547868Y-145154136D01*
X52391542Y-145258591D01*
X52391538Y-145258594D01*
X52258594Y-145391538D01*
X52258591Y-145391542D01*
X52154136Y-145547868D01*
X52154129Y-145547881D01*
X52082182Y-145721578D01*
X52082179Y-145721590D01*
X52045500Y-145905985D01*
X48500500Y-145905985D01*
X48500500Y-144697908D01*
X84354900Y-144697908D01*
X84354900Y-144829691D01*
X84389008Y-144956987D01*
X84421954Y-145014050D01*
X84454900Y-145071114D01*
X84548086Y-145164300D01*
X84662214Y-145230192D01*
X84789508Y-145264300D01*
X84789510Y-145264300D01*
X84921290Y-145264300D01*
X84921292Y-145264300D01*
X85048586Y-145230192D01*
X85162714Y-145164300D01*
X85255900Y-145071114D01*
X85321792Y-144956986D01*
X85355900Y-144829692D01*
X85355900Y-144697908D01*
X85321792Y-144570614D01*
X85255900Y-144456486D01*
X85187127Y-144387713D01*
X94067967Y-144387713D01*
X94067967Y-144575742D01*
X94104646Y-144760137D01*
X94104649Y-144760149D01*
X94176596Y-144933846D01*
X94176603Y-144933859D01*
X94281058Y-145090185D01*
X94281061Y-145090189D01*
X94414005Y-145223133D01*
X94414009Y-145223136D01*
X94570335Y-145327591D01*
X94570348Y-145327598D01*
X94724724Y-145391542D01*
X94744050Y-145399547D01*
X94928452Y-145436227D01*
X94928455Y-145436228D01*
X94928457Y-145436228D01*
X95116479Y-145436228D01*
X95116480Y-145436227D01*
X95300884Y-145399547D01*
X95474592Y-145327595D01*
X95630925Y-145223136D01*
X95763875Y-145090186D01*
X95868334Y-144933853D01*
X95940286Y-144760145D01*
X95976967Y-144575738D01*
X95976967Y-144387718D01*
X95976967Y-144387715D01*
X95976966Y-144387713D01*
X95959003Y-144297408D01*
X95940286Y-144203311D01*
X95900997Y-144108458D01*
X95868337Y-144029609D01*
X95868330Y-144029596D01*
X95763875Y-143873270D01*
X95763872Y-143873266D01*
X95630928Y-143740322D01*
X95630924Y-143740319D01*
X95474598Y-143635864D01*
X95474585Y-143635857D01*
X95300888Y-143563910D01*
X95300876Y-143563907D01*
X95116480Y-143527228D01*
X95116477Y-143527228D01*
X94928457Y-143527228D01*
X94928454Y-143527228D01*
X94744057Y-143563907D01*
X94744045Y-143563910D01*
X94570348Y-143635857D01*
X94570335Y-143635864D01*
X94414009Y-143740319D01*
X94414005Y-143740322D01*
X94281061Y-143873266D01*
X94281058Y-143873270D01*
X94176603Y-144029596D01*
X94176596Y-144029609D01*
X94104649Y-144203306D01*
X94104646Y-144203318D01*
X94067967Y-144387713D01*
X85187127Y-144387713D01*
X85162714Y-144363300D01*
X85105650Y-144330354D01*
X85048587Y-144297408D01*
X84984939Y-144280354D01*
X84921292Y-144263300D01*
X84789508Y-144263300D01*
X84662212Y-144297408D01*
X84548086Y-144363300D01*
X84548083Y-144363302D01*
X84454902Y-144456483D01*
X84454900Y-144456486D01*
X84389008Y-144570612D01*
X84354900Y-144697908D01*
X48500500Y-144697908D01*
X48500500Y-143405985D01*
X52045500Y-143405985D01*
X52045500Y-143594014D01*
X52082179Y-143778409D01*
X52082182Y-143778421D01*
X52154129Y-143952118D01*
X52154136Y-143952131D01*
X52258591Y-144108457D01*
X52258594Y-144108461D01*
X52391538Y-144241405D01*
X52391542Y-144241408D01*
X52547868Y-144345863D01*
X52547881Y-144345870D01*
X52721578Y-144417817D01*
X52721583Y-144417819D01*
X52905985Y-144454499D01*
X52905988Y-144454500D01*
X52905990Y-144454500D01*
X53094012Y-144454500D01*
X53094013Y-144454499D01*
X53278417Y-144417819D01*
X53452125Y-144345867D01*
X53608458Y-144241408D01*
X53741408Y-144108458D01*
X53845867Y-143952125D01*
X53917819Y-143778417D01*
X53954500Y-143594010D01*
X53954500Y-143405990D01*
X53954500Y-143405987D01*
X53954499Y-143405985D01*
X53917820Y-143221590D01*
X53917819Y-143221583D01*
X53917817Y-143221578D01*
X53845870Y-143047881D01*
X53845863Y-143047868D01*
X53741408Y-142891542D01*
X53741405Y-142891538D01*
X53608461Y-142758594D01*
X53608457Y-142758591D01*
X53452131Y-142654136D01*
X53452118Y-142654129D01*
X53278421Y-142582182D01*
X53278409Y-142582179D01*
X53094013Y-142545500D01*
X53094010Y-142545500D01*
X52905990Y-142545500D01*
X52905987Y-142545500D01*
X52721590Y-142582179D01*
X52721578Y-142582182D01*
X52547881Y-142654129D01*
X52547868Y-142654136D01*
X52391542Y-142758591D01*
X52391538Y-142758594D01*
X52258594Y-142891538D01*
X52258591Y-142891542D01*
X52154136Y-143047868D01*
X52154129Y-143047881D01*
X52082182Y-143221578D01*
X52082179Y-143221590D01*
X52045500Y-143405985D01*
X48500500Y-143405985D01*
X48500500Y-140905985D01*
X52045500Y-140905985D01*
X52045500Y-141094014D01*
X52082179Y-141278409D01*
X52082182Y-141278421D01*
X52154129Y-141452118D01*
X52154136Y-141452131D01*
X52258591Y-141608457D01*
X52258594Y-141608461D01*
X52391538Y-141741405D01*
X52391542Y-141741408D01*
X52547868Y-141845863D01*
X52547881Y-141845870D01*
X52721578Y-141917817D01*
X52721583Y-141917819D01*
X52905985Y-141954499D01*
X52905988Y-141954500D01*
X52905990Y-141954500D01*
X53094012Y-141954500D01*
X53094013Y-141954499D01*
X53278417Y-141917819D01*
X53351100Y-141887713D01*
X89067967Y-141887713D01*
X89067967Y-142075742D01*
X89104646Y-142260137D01*
X89104649Y-142260149D01*
X89176596Y-142433846D01*
X89176603Y-142433859D01*
X89281058Y-142590185D01*
X89281061Y-142590189D01*
X89414005Y-142723133D01*
X89414009Y-142723136D01*
X89570335Y-142827591D01*
X89570348Y-142827598D01*
X89724724Y-142891542D01*
X89744050Y-142899547D01*
X89928452Y-142936227D01*
X89928455Y-142936228D01*
X89928457Y-142936228D01*
X90116479Y-142936228D01*
X90116480Y-142936227D01*
X90300884Y-142899547D01*
X90474592Y-142827595D01*
X90630925Y-142723136D01*
X90763875Y-142590186D01*
X90868334Y-142433853D01*
X90940286Y-142260145D01*
X90976967Y-142075738D01*
X90976967Y-141887718D01*
X90976967Y-141887715D01*
X90976966Y-141887713D01*
X90940287Y-141703318D01*
X90940286Y-141703311D01*
X90900997Y-141608458D01*
X90868337Y-141529609D01*
X90868330Y-141529596D01*
X90763875Y-141373270D01*
X90763872Y-141373266D01*
X90630928Y-141240322D01*
X90630924Y-141240319D01*
X90474598Y-141135864D01*
X90474585Y-141135857D01*
X90300888Y-141063910D01*
X90300876Y-141063907D01*
X90116480Y-141027228D01*
X90116477Y-141027228D01*
X89928457Y-141027228D01*
X89928454Y-141027228D01*
X89744057Y-141063907D01*
X89744045Y-141063910D01*
X89570348Y-141135857D01*
X89570335Y-141135864D01*
X89414009Y-141240319D01*
X89414005Y-141240322D01*
X89281061Y-141373266D01*
X89281058Y-141373270D01*
X89176603Y-141529596D01*
X89176596Y-141529609D01*
X89104649Y-141703306D01*
X89104646Y-141703318D01*
X89067967Y-141887713D01*
X53351100Y-141887713D01*
X53452125Y-141845867D01*
X53452131Y-141845863D01*
X53552911Y-141778524D01*
X53575492Y-141763435D01*
X53608458Y-141741408D01*
X53741408Y-141608458D01*
X53845867Y-141452125D01*
X53917819Y-141278417D01*
X53954500Y-141094010D01*
X53954500Y-140905990D01*
X53954500Y-140905987D01*
X53954499Y-140905985D01*
X53917820Y-140721590D01*
X53917819Y-140721583D01*
X53881041Y-140632792D01*
X53845870Y-140547881D01*
X53845863Y-140547868D01*
X53741408Y-140391542D01*
X53741405Y-140391538D01*
X53608461Y-140258594D01*
X53608457Y-140258591D01*
X53514010Y-140195483D01*
X53452131Y-140154136D01*
X53452118Y-140154129D01*
X53322664Y-140100508D01*
X67590900Y-140100508D01*
X67590900Y-140232291D01*
X67625008Y-140359587D01*
X67648080Y-140399548D01*
X67690900Y-140473714D01*
X67784086Y-140566900D01*
X67898214Y-140632792D01*
X68025508Y-140666900D01*
X68025510Y-140666900D01*
X68157290Y-140666900D01*
X68157292Y-140666900D01*
X68284586Y-140632792D01*
X68398714Y-140566900D01*
X68491900Y-140473714D01*
X68557792Y-140359586D01*
X68591900Y-140232292D01*
X68591900Y-140100508D01*
X68557792Y-139973214D01*
X68491900Y-139859086D01*
X68398714Y-139765900D01*
X68341650Y-139732954D01*
X68284587Y-139700008D01*
X68220939Y-139682954D01*
X68157292Y-139665900D01*
X68025508Y-139665900D01*
X67898212Y-139700008D01*
X67784086Y-139765900D01*
X67784083Y-139765902D01*
X67690902Y-139859083D01*
X67690900Y-139859086D01*
X67625008Y-139973212D01*
X67590900Y-140100508D01*
X53322664Y-140100508D01*
X53278421Y-140082182D01*
X53278409Y-140082179D01*
X53094013Y-140045500D01*
X53094010Y-140045500D01*
X52905990Y-140045500D01*
X52905987Y-140045500D01*
X52721590Y-140082179D01*
X52721578Y-140082182D01*
X52547881Y-140154129D01*
X52547868Y-140154136D01*
X52391542Y-140258591D01*
X52391538Y-140258594D01*
X52258594Y-140391538D01*
X52258591Y-140391542D01*
X52154136Y-140547868D01*
X52154129Y-140547881D01*
X52082182Y-140721578D01*
X52082179Y-140721590D01*
X52045500Y-140905985D01*
X48500500Y-140905985D01*
X48500500Y-138405985D01*
X52045500Y-138405985D01*
X52045500Y-138594014D01*
X52082179Y-138778409D01*
X52082182Y-138778421D01*
X52154129Y-138952118D01*
X52154136Y-138952131D01*
X52258591Y-139108457D01*
X52258594Y-139108461D01*
X52391538Y-139241405D01*
X52391542Y-139241408D01*
X52547868Y-139345863D01*
X52547881Y-139345870D01*
X52721578Y-139417817D01*
X52721583Y-139417819D01*
X52905985Y-139454499D01*
X52905988Y-139454500D01*
X52905990Y-139454500D01*
X53094012Y-139454500D01*
X53094013Y-139454499D01*
X53278417Y-139417819D01*
X53351100Y-139387713D01*
X94067967Y-139387713D01*
X94067967Y-139575742D01*
X94104646Y-139760137D01*
X94104649Y-139760149D01*
X94176596Y-139933846D01*
X94176603Y-139933859D01*
X94281058Y-140090185D01*
X94281061Y-140090189D01*
X94414005Y-140223133D01*
X94414009Y-140223136D01*
X94570335Y-140327591D01*
X94570348Y-140327598D01*
X94724724Y-140391542D01*
X94744050Y-140399547D01*
X94928452Y-140436227D01*
X94928455Y-140436228D01*
X94928457Y-140436228D01*
X95116479Y-140436228D01*
X95116480Y-140436227D01*
X95300884Y-140399547D01*
X95474592Y-140327595D01*
X95630925Y-140223136D01*
X95763875Y-140090186D01*
X95868334Y-139933853D01*
X95940286Y-139760145D01*
X95976967Y-139575738D01*
X95976967Y-139387718D01*
X95976967Y-139387715D01*
X95976966Y-139387713D01*
X95940287Y-139203318D01*
X95940286Y-139203311D01*
X95900997Y-139108458D01*
X95868337Y-139029609D01*
X95868330Y-139029596D01*
X95763875Y-138873270D01*
X95763872Y-138873266D01*
X95630928Y-138740322D01*
X95630924Y-138740319D01*
X95474598Y-138635864D01*
X95474585Y-138635857D01*
X95300888Y-138563910D01*
X95300876Y-138563907D01*
X95116480Y-138527228D01*
X95116477Y-138527228D01*
X94928457Y-138527228D01*
X94928454Y-138527228D01*
X94744057Y-138563907D01*
X94744045Y-138563910D01*
X94570348Y-138635857D01*
X94570335Y-138635864D01*
X94414009Y-138740319D01*
X94414005Y-138740322D01*
X94281061Y-138873266D01*
X94281058Y-138873270D01*
X94176603Y-139029596D01*
X94176596Y-139029609D01*
X94104649Y-139203306D01*
X94104646Y-139203318D01*
X94067967Y-139387713D01*
X53351100Y-139387713D01*
X53452125Y-139345867D01*
X53452131Y-139345863D01*
X53552911Y-139278524D01*
X53575492Y-139263435D01*
X53608458Y-139241408D01*
X53741408Y-139108458D01*
X53845867Y-138952125D01*
X53917819Y-138778417D01*
X53954500Y-138594010D01*
X53954500Y-138449508D01*
X73712300Y-138449508D01*
X73712300Y-138581292D01*
X73715708Y-138594010D01*
X73746408Y-138708587D01*
X73764731Y-138740322D01*
X73812300Y-138822714D01*
X73905486Y-138915900D01*
X74019614Y-138981792D01*
X74146908Y-139015900D01*
X74146910Y-139015900D01*
X74278690Y-139015900D01*
X74278692Y-139015900D01*
X74405986Y-138981792D01*
X74520114Y-138915900D01*
X74613300Y-138822714D01*
X74679192Y-138708586D01*
X74713300Y-138581292D01*
X74713300Y-138449508D01*
X74679192Y-138322214D01*
X74613300Y-138208086D01*
X74520114Y-138114900D01*
X74520112Y-138114899D01*
X74520110Y-138114897D01*
X74405988Y-138049009D01*
X74405987Y-138049008D01*
X74405986Y-138049008D01*
X74289172Y-138017708D01*
X75947500Y-138017708D01*
X75947500Y-138149492D01*
X75950664Y-138161300D01*
X75981608Y-138276787D01*
X76007835Y-138322212D01*
X76047500Y-138390914D01*
X76140686Y-138484100D01*
X76254814Y-138549992D01*
X76382108Y-138584100D01*
X76382110Y-138584100D01*
X76513890Y-138584100D01*
X76513892Y-138584100D01*
X76641186Y-138549992D01*
X76755314Y-138484100D01*
X76848500Y-138390914D01*
X76876032Y-138343226D01*
X76926596Y-138295014D01*
X76995202Y-138281790D01*
X77034138Y-138294235D01*
X77034700Y-138292880D01*
X77042209Y-138295989D01*
X77042214Y-138295992D01*
X77169508Y-138330100D01*
X77169510Y-138330100D01*
X77301290Y-138330100D01*
X77301292Y-138330100D01*
X77428586Y-138295992D01*
X77542714Y-138230100D01*
X77635900Y-138136914D01*
X77701792Y-138022786D01*
X77735900Y-137895492D01*
X77735900Y-137763708D01*
X77701792Y-137636414D01*
X77635900Y-137522286D01*
X77542714Y-137429100D01*
X77542712Y-137429099D01*
X77542710Y-137429097D01*
X77469740Y-137386968D01*
X77469739Y-137386968D01*
X77428587Y-137363208D01*
X77358703Y-137344483D01*
X77301292Y-137329100D01*
X77169508Y-137329100D01*
X77042212Y-137363208D01*
X76928086Y-137429100D01*
X76928083Y-137429102D01*
X76834902Y-137522283D01*
X76834897Y-137522289D01*
X76807367Y-137569972D01*
X76756799Y-137618187D01*
X76688191Y-137631408D01*
X76649261Y-137618963D01*
X76648700Y-137620320D01*
X76641188Y-137617209D01*
X76641187Y-137617208D01*
X76641186Y-137617208D01*
X76513892Y-137583100D01*
X76382108Y-137583100D01*
X76254812Y-137617208D01*
X76140686Y-137683100D01*
X76140683Y-137683102D01*
X76047502Y-137776283D01*
X76047500Y-137776286D01*
X75981608Y-137890412D01*
X75948252Y-138014900D01*
X75947500Y-138017708D01*
X74289172Y-138017708D01*
X74278692Y-138014900D01*
X74146908Y-138014900D01*
X74019612Y-138049008D01*
X73905486Y-138114900D01*
X73905483Y-138114902D01*
X73812302Y-138208083D01*
X73812300Y-138208086D01*
X73746408Y-138322212D01*
X73712300Y-138449508D01*
X53954500Y-138449508D01*
X53954500Y-138405990D01*
X53954500Y-138405987D01*
X53954499Y-138405985D01*
X53932620Y-138295991D01*
X53917819Y-138221583D01*
X53912227Y-138208083D01*
X53845870Y-138047881D01*
X53845863Y-138047868D01*
X53741408Y-137891542D01*
X53741405Y-137891538D01*
X53608461Y-137758594D01*
X53608457Y-137758591D01*
X53492160Y-137680883D01*
X53452131Y-137654136D01*
X53452118Y-137654129D01*
X53287416Y-137585908D01*
X68022700Y-137585908D01*
X68022700Y-137717692D01*
X68033659Y-137758591D01*
X68056808Y-137844987D01*
X68083035Y-137890412D01*
X68122700Y-137959114D01*
X68215886Y-138052300D01*
X68314721Y-138109363D01*
X68324315Y-138114902D01*
X68330014Y-138118192D01*
X68457308Y-138152300D01*
X68457310Y-138152300D01*
X68589090Y-138152300D01*
X68589092Y-138152300D01*
X68716386Y-138118192D01*
X68830514Y-138052300D01*
X68923700Y-137959114D01*
X68989592Y-137844986D01*
X69023700Y-137717692D01*
X69023700Y-137585908D01*
X68989592Y-137458614D01*
X68923700Y-137344486D01*
X68866922Y-137287708D01*
X79514700Y-137287708D01*
X79514700Y-137419492D01*
X79517275Y-137429102D01*
X79548808Y-137546787D01*
X79562194Y-137569972D01*
X79614700Y-137660914D01*
X79707886Y-137754100D01*
X79806721Y-137811163D01*
X79821312Y-137819587D01*
X79822014Y-137819992D01*
X79949308Y-137854100D01*
X79949310Y-137854100D01*
X80081090Y-137854100D01*
X80081092Y-137854100D01*
X80208386Y-137819992D01*
X80208387Y-137819991D01*
X80216237Y-137817888D01*
X80217019Y-137820808D01*
X80272160Y-137814874D01*
X80334643Y-137846142D01*
X80369931Y-137904811D01*
X80383108Y-137953987D01*
X80449000Y-138068115D01*
X80542186Y-138161301D01*
X80623215Y-138208083D01*
X80646588Y-138221578D01*
X80656314Y-138227193D01*
X80783608Y-138261301D01*
X80783610Y-138261301D01*
X80915390Y-138261301D01*
X80915392Y-138261301D01*
X81042686Y-138227193D01*
X81156814Y-138161301D01*
X81250000Y-138068115D01*
X81315892Y-137953987D01*
X81350000Y-137826693D01*
X81350000Y-137694909D01*
X81315892Y-137567615D01*
X81311789Y-137560508D01*
X82246700Y-137560508D01*
X82246700Y-137692292D01*
X82258127Y-137734940D01*
X82280808Y-137819587D01*
X82312468Y-137874423D01*
X82346700Y-137933714D01*
X82439886Y-138026900D01*
X82554014Y-138092792D01*
X82681308Y-138126900D01*
X82681310Y-138126900D01*
X82813090Y-138126900D01*
X82813092Y-138126900D01*
X82940386Y-138092792D01*
X82965352Y-138078377D01*
X83033251Y-138061904D01*
X83099278Y-138084755D01*
X83142470Y-138139675D01*
X83149113Y-138209229D01*
X83147128Y-138217856D01*
X83135700Y-138260506D01*
X83135700Y-138260508D01*
X83135700Y-138392292D01*
X83151031Y-138449508D01*
X83169808Y-138519587D01*
X83202754Y-138576650D01*
X83235700Y-138633714D01*
X83328886Y-138726900D01*
X83443014Y-138792792D01*
X83570308Y-138826900D01*
X83570310Y-138826900D01*
X83702090Y-138826900D01*
X83702092Y-138826900D01*
X83829386Y-138792792D01*
X83943514Y-138726900D01*
X84036700Y-138633714D01*
X84102592Y-138519586D01*
X84136700Y-138392292D01*
X84136700Y-138260508D01*
X84102592Y-138133214D01*
X84036700Y-138019086D01*
X83943514Y-137925900D01*
X83882047Y-137890412D01*
X83829387Y-137860008D01*
X83765739Y-137842954D01*
X83702092Y-137825900D01*
X83570308Y-137825900D01*
X83443014Y-137860008D01*
X83443013Y-137860008D01*
X83443011Y-137860009D01*
X83443008Y-137860010D01*
X83418044Y-137874423D01*
X83350144Y-137890894D01*
X83284117Y-137868041D01*
X83240928Y-137813119D01*
X83234287Y-137743566D01*
X83236268Y-137734956D01*
X83247700Y-137692292D01*
X83247700Y-137560508D01*
X83213592Y-137433214D01*
X83147700Y-137319086D01*
X83054514Y-137225900D01*
X82984380Y-137185408D01*
X82940387Y-137160008D01*
X82876739Y-137142954D01*
X82813092Y-137125900D01*
X82681308Y-137125900D01*
X82554012Y-137160008D01*
X82439886Y-137225900D01*
X82439883Y-137225902D01*
X82346702Y-137319083D01*
X82346700Y-137319086D01*
X82280808Y-137433212D01*
X82250721Y-137545500D01*
X82246700Y-137560508D01*
X81311789Y-137560508D01*
X81250000Y-137453487D01*
X81156814Y-137360301D01*
X81051525Y-137299512D01*
X81042687Y-137294409D01*
X80944879Y-137268202D01*
X80915392Y-137260301D01*
X80783608Y-137260301D01*
X80656314Y-137294409D01*
X80656312Y-137294409D01*
X80648463Y-137296513D01*
X80647683Y-137293604D01*
X80592458Y-137299512D01*
X80529996Y-137268202D01*
X80494768Y-137209589D01*
X80481592Y-137160414D01*
X80415700Y-137046286D01*
X80322514Y-136953100D01*
X80243879Y-136907700D01*
X80209262Y-136887713D01*
X89067967Y-136887713D01*
X89067967Y-137075742D01*
X89104646Y-137260137D01*
X89104649Y-137260149D01*
X89176596Y-137433846D01*
X89176603Y-137433859D01*
X89281058Y-137590185D01*
X89281061Y-137590189D01*
X89414005Y-137723133D01*
X89414009Y-137723136D01*
X89570335Y-137827591D01*
X89570348Y-137827598D01*
X89734258Y-137895491D01*
X89744050Y-137899547D01*
X89928452Y-137936227D01*
X89928455Y-137936228D01*
X89928457Y-137936228D01*
X90116479Y-137936228D01*
X90116480Y-137936227D01*
X90300884Y-137899547D01*
X90474592Y-137827595D01*
X90630925Y-137723136D01*
X90763875Y-137590186D01*
X90868334Y-137433853D01*
X90940286Y-137260145D01*
X90976967Y-137075738D01*
X90976967Y-136887718D01*
X90976967Y-136887715D01*
X90976966Y-136887713D01*
X90966103Y-136833100D01*
X90940286Y-136703311D01*
X90936092Y-136693186D01*
X90868337Y-136529609D01*
X90868330Y-136529596D01*
X90763875Y-136373270D01*
X90763872Y-136373266D01*
X90630928Y-136240322D01*
X90630924Y-136240319D01*
X90474598Y-136135864D01*
X90474585Y-136135857D01*
X90300888Y-136063910D01*
X90300876Y-136063907D01*
X90116480Y-136027228D01*
X90116477Y-136027228D01*
X89928457Y-136027228D01*
X89928454Y-136027228D01*
X89744057Y-136063907D01*
X89744045Y-136063910D01*
X89570348Y-136135857D01*
X89570335Y-136135864D01*
X89414009Y-136240319D01*
X89414005Y-136240322D01*
X89281061Y-136373266D01*
X89281058Y-136373270D01*
X89176603Y-136529596D01*
X89176596Y-136529609D01*
X89104649Y-136703306D01*
X89104646Y-136703318D01*
X89067967Y-136887713D01*
X80209262Y-136887713D01*
X80208387Y-136887208D01*
X80144739Y-136870154D01*
X80081092Y-136853100D01*
X79949308Y-136853100D01*
X79822012Y-136887208D01*
X79707886Y-136953100D01*
X79707883Y-136953102D01*
X79614702Y-137046283D01*
X79614700Y-137046286D01*
X79548808Y-137160412D01*
X79514700Y-137287708D01*
X68866922Y-137287708D01*
X68830514Y-137251300D01*
X68758265Y-137209587D01*
X68716387Y-137185408D01*
X68623106Y-137160414D01*
X68589092Y-137151300D01*
X68457308Y-137151300D01*
X68330012Y-137185408D01*
X68215886Y-137251300D01*
X68215883Y-137251302D01*
X68122702Y-137344483D01*
X68122700Y-137344486D01*
X68056808Y-137458612D01*
X68026970Y-137569972D01*
X68022700Y-137585908D01*
X53287416Y-137585908D01*
X53278421Y-137582182D01*
X53278409Y-137582179D01*
X53094013Y-137545500D01*
X53094010Y-137545500D01*
X52905990Y-137545500D01*
X52905987Y-137545500D01*
X52721590Y-137582179D01*
X52721578Y-137582182D01*
X52547881Y-137654129D01*
X52547868Y-137654136D01*
X52391542Y-137758591D01*
X52391538Y-137758594D01*
X52258594Y-137891538D01*
X52258591Y-137891542D01*
X52154136Y-138047868D01*
X52154129Y-138047881D01*
X52082182Y-138221578D01*
X52082179Y-138221590D01*
X52045500Y-138405985D01*
X48500500Y-138405985D01*
X48500500Y-135905985D01*
X52045500Y-135905985D01*
X52045500Y-136094014D01*
X52082179Y-136278409D01*
X52082182Y-136278421D01*
X52154129Y-136452118D01*
X52154136Y-136452131D01*
X52258591Y-136608457D01*
X52258594Y-136608461D01*
X52391538Y-136741405D01*
X52391542Y-136741408D01*
X52547868Y-136845863D01*
X52547881Y-136845870D01*
X52721578Y-136917817D01*
X52721583Y-136917819D01*
X52898952Y-136953100D01*
X52905985Y-136954499D01*
X52905988Y-136954500D01*
X52905990Y-136954500D01*
X53094012Y-136954500D01*
X53094013Y-136954499D01*
X53278417Y-136917819D01*
X53452125Y-136845867D01*
X53608458Y-136741408D01*
X53741408Y-136608458D01*
X53845867Y-136452125D01*
X53917819Y-136278417D01*
X53954500Y-136094010D01*
X53954500Y-135905990D01*
X53954500Y-135905987D01*
X53954499Y-135905985D01*
X53952673Y-135896805D01*
X53917819Y-135721583D01*
X53853575Y-135566483D01*
X53845870Y-135547880D01*
X53845863Y-135547868D01*
X53845222Y-135546909D01*
X63940299Y-135546909D01*
X63940299Y-135678693D01*
X63949180Y-135711837D01*
X63974407Y-135805988D01*
X63975516Y-135807908D01*
X64040299Y-135920115D01*
X64133485Y-136013301D01*
X64247613Y-136079193D01*
X64374907Y-136113301D01*
X64374909Y-136113301D01*
X64506689Y-136113301D01*
X64506691Y-136113301D01*
X64633985Y-136079193D01*
X64748113Y-136013301D01*
X64841299Y-135920115D01*
X64848542Y-135907568D01*
X64899105Y-135859353D01*
X64967712Y-135846127D01*
X65032577Y-135872092D01*
X65073108Y-135929004D01*
X65075705Y-135937472D01*
X65076300Y-135939692D01*
X65110408Y-136066986D01*
X65176300Y-136181114D01*
X65269486Y-136274300D01*
X65383614Y-136340192D01*
X65510908Y-136374300D01*
X65510910Y-136374300D01*
X65642689Y-136374300D01*
X65642692Y-136374300D01*
X65642694Y-136374299D01*
X65649301Y-136373429D01*
X65718337Y-136384190D01*
X65770595Y-136430567D01*
X65783277Y-136465809D01*
X65785397Y-136465242D01*
X65821608Y-136600387D01*
X65852388Y-136653699D01*
X65887500Y-136714514D01*
X65980686Y-136807700D01*
X66094814Y-136873592D01*
X66222108Y-136907700D01*
X66222110Y-136907700D01*
X66353890Y-136907700D01*
X66353892Y-136907700D01*
X66481186Y-136873592D01*
X66595314Y-136807700D01*
X66688500Y-136714514D01*
X66754392Y-136600386D01*
X66788500Y-136473092D01*
X66788500Y-136341308D01*
X66771406Y-136277510D01*
X67147900Y-136277510D01*
X67147900Y-136409294D01*
X67159378Y-136452131D01*
X67182008Y-136536589D01*
X67214954Y-136593652D01*
X67247900Y-136650716D01*
X67341086Y-136743902D01*
X67439921Y-136800965D01*
X67450918Y-136807314D01*
X67455214Y-136809794D01*
X67582508Y-136843902D01*
X67582510Y-136843902D01*
X67714290Y-136843902D01*
X67714292Y-136843902D01*
X67841586Y-136809794D01*
X67955714Y-136743902D01*
X68048900Y-136650716D01*
X68114792Y-136536588D01*
X68142251Y-136434108D01*
X69574502Y-136434108D01*
X69574502Y-136565892D01*
X69588891Y-136619592D01*
X69608610Y-136693187D01*
X69620925Y-136714516D01*
X69674502Y-136807314D01*
X69767688Y-136900500D01*
X69881816Y-136966392D01*
X70009110Y-137000500D01*
X70009112Y-137000500D01*
X70140892Y-137000500D01*
X70140894Y-137000500D01*
X70268188Y-136966392D01*
X70382316Y-136900500D01*
X70475502Y-136807314D01*
X70541394Y-136693186D01*
X70541394Y-136693184D01*
X70544670Y-136687511D01*
X70595237Y-136639295D01*
X70663844Y-136626072D01*
X70728709Y-136652040D01*
X70759443Y-136687509D01*
X70775035Y-136714514D01*
X70789700Y-136739914D01*
X70882886Y-136833100D01*
X70997014Y-136898992D01*
X71124308Y-136933100D01*
X71124310Y-136933100D01*
X71256090Y-136933100D01*
X71256092Y-136933100D01*
X71383386Y-136898992D01*
X71497514Y-136833100D01*
X71590700Y-136739914D01*
X71656592Y-136625786D01*
X71685739Y-136517005D01*
X71722104Y-136457346D01*
X71784951Y-136426817D01*
X71805514Y-136425100D01*
X71941890Y-136425100D01*
X71941892Y-136425100D01*
X72069186Y-136390992D01*
X72183314Y-136325100D01*
X72276500Y-136231914D01*
X72342392Y-136117786D01*
X72350558Y-136087308D01*
X76455500Y-136087308D01*
X76455500Y-136219092D01*
X76458936Y-136231914D01*
X76489608Y-136346387D01*
X76505724Y-136374300D01*
X76555500Y-136460514D01*
X76648686Y-136553700D01*
X76762814Y-136619592D01*
X76890108Y-136653700D01*
X76890110Y-136653700D01*
X77021890Y-136653700D01*
X77021892Y-136653700D01*
X77149186Y-136619592D01*
X77263314Y-136553700D01*
X77356500Y-136460514D01*
X77422392Y-136346386D01*
X77456500Y-136219092D01*
X77456500Y-136087308D01*
X77422392Y-135960014D01*
X77418327Y-135952974D01*
X77399356Y-135920115D01*
X77356500Y-135845886D01*
X77349747Y-135839133D01*
X80604525Y-135839133D01*
X80604525Y-135970917D01*
X80615881Y-136013298D01*
X80638633Y-136098212D01*
X80655370Y-136127201D01*
X80704525Y-136212339D01*
X80797711Y-136305525D01*
X80911839Y-136371417D01*
X81039133Y-136405525D01*
X81039135Y-136405525D01*
X81170915Y-136405525D01*
X81170917Y-136405525D01*
X81298211Y-136371417D01*
X81412339Y-136305525D01*
X81505525Y-136212339D01*
X81571417Y-136098211D01*
X81605525Y-135970917D01*
X81605525Y-135839133D01*
X81571417Y-135711839D01*
X81505525Y-135597711D01*
X81412339Y-135504525D01*
X81332116Y-135458208D01*
X81298212Y-135438633D01*
X81227227Y-135419613D01*
X81170917Y-135404525D01*
X81039133Y-135404525D01*
X80911837Y-135438633D01*
X80797711Y-135504525D01*
X80797708Y-135504527D01*
X80704527Y-135597708D01*
X80704525Y-135597711D01*
X80638633Y-135711837D01*
X80610788Y-135815758D01*
X80604525Y-135839133D01*
X77349747Y-135839133D01*
X77263314Y-135752700D01*
X77192541Y-135711839D01*
X77149187Y-135686808D01*
X77042422Y-135658201D01*
X77021892Y-135652700D01*
X76890108Y-135652700D01*
X76762812Y-135686808D01*
X76648686Y-135752700D01*
X76648683Y-135752702D01*
X76555502Y-135845883D01*
X76555500Y-135845886D01*
X76489608Y-135960012D01*
X76475330Y-136013300D01*
X76455500Y-136087308D01*
X72350558Y-136087308D01*
X72376500Y-135990492D01*
X72376500Y-135858708D01*
X72342392Y-135731414D01*
X72336715Y-135721582D01*
X72331089Y-135711837D01*
X72276500Y-135617286D01*
X72183314Y-135524100D01*
X72095330Y-135473302D01*
X72069187Y-135458208D01*
X71996130Y-135438633D01*
X71941892Y-135424100D01*
X71810108Y-135424100D01*
X71682812Y-135458208D01*
X71568686Y-135524100D01*
X71568683Y-135524102D01*
X71475502Y-135617283D01*
X71475500Y-135617286D01*
X71415285Y-135721582D01*
X71409608Y-135731414D01*
X71381767Y-135835319D01*
X71380461Y-135840194D01*
X71344096Y-135899854D01*
X71281249Y-135930383D01*
X71260686Y-135932100D01*
X71124308Y-135932100D01*
X70997012Y-135966208D01*
X70882886Y-136032100D01*
X70882883Y-136032102D01*
X70789702Y-136125283D01*
X70789700Y-136125286D01*
X70720531Y-136245089D01*
X70669963Y-136293304D01*
X70601356Y-136306526D01*
X70536492Y-136280558D01*
X70505757Y-136245089D01*
X70502480Y-136239414D01*
X70475502Y-136192686D01*
X70382316Y-136099500D01*
X70325252Y-136066554D01*
X70268189Y-136033608D01*
X70204541Y-136016554D01*
X70140894Y-135999500D01*
X70009110Y-135999500D01*
X69881814Y-136033608D01*
X69767688Y-136099500D01*
X69767685Y-136099502D01*
X69674504Y-136192683D01*
X69674502Y-136192686D01*
X69608610Y-136306812D01*
X69582161Y-136405524D01*
X69574502Y-136434108D01*
X68142251Y-136434108D01*
X68148900Y-136409294D01*
X68148900Y-136277510D01*
X68114792Y-136150216D01*
X68101503Y-136127200D01*
X68085031Y-136059301D01*
X68107883Y-135993274D01*
X68162804Y-135950083D01*
X68183089Y-135944776D01*
X68183043Y-135944603D01*
X68190892Y-135942500D01*
X68190893Y-135942500D01*
X68318187Y-135908392D01*
X68432315Y-135842500D01*
X68525501Y-135749314D01*
X68591393Y-135635186D01*
X68625501Y-135507892D01*
X68625501Y-135376108D01*
X68591393Y-135248814D01*
X68525501Y-135134686D01*
X68432315Y-135041500D01*
X68375251Y-135008554D01*
X68318188Y-134975608D01*
X68254540Y-134958554D01*
X68190893Y-134941500D01*
X68059109Y-134941500D01*
X67931813Y-134975608D01*
X67817687Y-135041500D01*
X67817684Y-135041502D01*
X67724503Y-135134683D01*
X67724501Y-135134686D01*
X67658609Y-135248812D01*
X67637501Y-135327591D01*
X67624501Y-135376108D01*
X67624501Y-135507892D01*
X67645492Y-135586233D01*
X67658610Y-135635188D01*
X67658610Y-135635189D01*
X67671896Y-135658201D01*
X67688369Y-135726101D01*
X67665516Y-135792128D01*
X67610595Y-135835319D01*
X67590311Y-135840626D01*
X67590358Y-135840799D01*
X67582509Y-135842902D01*
X67582508Y-135842902D01*
X67534187Y-135855849D01*
X67455212Y-135877010D01*
X67341086Y-135942902D01*
X67341083Y-135942904D01*
X67247902Y-136036085D01*
X67247900Y-136036088D01*
X67182008Y-136150214D01*
X67160117Y-136231914D01*
X67147900Y-136277510D01*
X66771406Y-136277510D01*
X66754392Y-136214014D01*
X66688500Y-136099886D01*
X66595314Y-136006700D01*
X66533336Y-135970917D01*
X66481187Y-135940808D01*
X66403954Y-135920114D01*
X66353892Y-135906700D01*
X66222108Y-135906700D01*
X66222105Y-135906700D01*
X66215489Y-135907571D01*
X66146454Y-135896805D01*
X66094199Y-135850424D01*
X66081537Y-135815186D01*
X66079403Y-135815758D01*
X66077300Y-135807908D01*
X66043192Y-135680614D01*
X65977300Y-135566486D01*
X65884114Y-135473300D01*
X65819902Y-135436227D01*
X65769987Y-135407408D01*
X65706339Y-135390354D01*
X65642692Y-135373300D01*
X65510908Y-135373300D01*
X65383612Y-135407408D01*
X65269486Y-135473300D01*
X65269483Y-135473302D01*
X65176302Y-135566483D01*
X65176298Y-135566489D01*
X65169054Y-135579036D01*
X65118486Y-135627251D01*
X65049879Y-135640472D01*
X64985015Y-135614503D01*
X64944487Y-135557588D01*
X64941893Y-135549127D01*
X64935187Y-135524100D01*
X64907191Y-135419615D01*
X64841299Y-135305487D01*
X64748113Y-135212301D01*
X64647369Y-135154136D01*
X64633986Y-135146409D01*
X64570338Y-135129355D01*
X64506691Y-135112301D01*
X64374907Y-135112301D01*
X64247611Y-135146409D01*
X64133485Y-135212301D01*
X64133482Y-135212303D01*
X64040301Y-135305484D01*
X64040299Y-135305487D01*
X63974407Y-135419613D01*
X63946410Y-135524102D01*
X63940299Y-135546909D01*
X53845222Y-135546909D01*
X53741408Y-135391542D01*
X53741405Y-135391538D01*
X53608461Y-135258594D01*
X53608457Y-135258591D01*
X53452131Y-135154136D01*
X53452118Y-135154129D01*
X53278421Y-135082182D01*
X53278409Y-135082179D01*
X53094013Y-135045500D01*
X53094010Y-135045500D01*
X52905990Y-135045500D01*
X52905987Y-135045500D01*
X52721590Y-135082179D01*
X52721578Y-135082182D01*
X52547881Y-135154129D01*
X52547868Y-135154136D01*
X52391542Y-135258591D01*
X52391538Y-135258594D01*
X52258594Y-135391538D01*
X52258591Y-135391542D01*
X52154136Y-135547868D01*
X52154129Y-135547881D01*
X52082182Y-135721578D01*
X52082179Y-135721590D01*
X52045500Y-135905985D01*
X48500500Y-135905985D01*
X48500500Y-133405985D01*
X52045500Y-133405985D01*
X52045500Y-133594014D01*
X52082179Y-133778409D01*
X52082182Y-133778421D01*
X52154129Y-133952118D01*
X52154136Y-133952131D01*
X52258591Y-134108457D01*
X52258594Y-134108461D01*
X52391538Y-134241405D01*
X52391542Y-134241408D01*
X52547868Y-134345863D01*
X52547881Y-134345870D01*
X52696226Y-134407316D01*
X52721583Y-134417819D01*
X52905985Y-134454499D01*
X52905988Y-134454500D01*
X52905990Y-134454500D01*
X53094012Y-134454500D01*
X53094013Y-134454499D01*
X53278417Y-134417819D01*
X53452125Y-134345867D01*
X53608458Y-134241408D01*
X53723565Y-134126301D01*
X78471700Y-134126301D01*
X78471700Y-134258085D01*
X78488189Y-134319625D01*
X78505808Y-134385380D01*
X78518472Y-134407314D01*
X78571700Y-134499507D01*
X78664886Y-134592693D01*
X78779014Y-134658585D01*
X78906308Y-134692693D01*
X78906310Y-134692693D01*
X79038090Y-134692693D01*
X79038092Y-134692693D01*
X79165386Y-134658585D01*
X79279514Y-134592693D01*
X79372700Y-134499507D01*
X79438592Y-134385379D01*
X79472700Y-134258085D01*
X79472700Y-134126301D01*
X79447997Y-134034108D01*
X81099500Y-134034108D01*
X81099500Y-134165891D01*
X81133608Y-134293187D01*
X81148873Y-134319626D01*
X81199500Y-134407314D01*
X81292686Y-134500500D01*
X81406814Y-134566392D01*
X81534108Y-134600500D01*
X81534110Y-134600500D01*
X81665890Y-134600500D01*
X81665892Y-134600500D01*
X81793186Y-134566392D01*
X81907314Y-134500500D01*
X82000500Y-134407314D01*
X82011817Y-134387713D01*
X94067967Y-134387713D01*
X94067967Y-134575742D01*
X94104646Y-134760137D01*
X94104649Y-134760149D01*
X94176596Y-134933846D01*
X94176603Y-134933859D01*
X94281058Y-135090185D01*
X94281061Y-135090189D01*
X94414005Y-135223133D01*
X94414009Y-135223136D01*
X94570335Y-135327591D01*
X94570348Y-135327598D01*
X94724724Y-135391542D01*
X94744050Y-135399547D01*
X94867486Y-135424100D01*
X94928452Y-135436227D01*
X94928455Y-135436228D01*
X94928457Y-135436228D01*
X95116479Y-135436228D01*
X95116480Y-135436227D01*
X95300884Y-135399547D01*
X95474592Y-135327595D01*
X95630925Y-135223136D01*
X95763875Y-135090186D01*
X95868334Y-134933853D01*
X95940286Y-134760145D01*
X95976967Y-134575738D01*
X95976967Y-134387718D01*
X95976967Y-134387715D01*
X95976966Y-134387713D01*
X95968641Y-134345863D01*
X95940286Y-134203311D01*
X95924786Y-134165890D01*
X95868337Y-134029609D01*
X95868330Y-134029596D01*
X95763875Y-133873270D01*
X95763872Y-133873266D01*
X95630928Y-133740322D01*
X95630924Y-133740319D01*
X95474598Y-133635864D01*
X95474585Y-133635857D01*
X95300888Y-133563910D01*
X95300876Y-133563907D01*
X95116480Y-133527228D01*
X95116477Y-133527228D01*
X94928457Y-133527228D01*
X94928454Y-133527228D01*
X94744057Y-133563907D01*
X94744045Y-133563910D01*
X94570348Y-133635857D01*
X94570335Y-133635864D01*
X94414009Y-133740319D01*
X94414005Y-133740322D01*
X94281061Y-133873266D01*
X94281058Y-133873270D01*
X94176603Y-134029596D01*
X94176596Y-134029609D01*
X94104649Y-134203306D01*
X94104646Y-134203318D01*
X94067967Y-134387713D01*
X82011817Y-134387713D01*
X82066392Y-134293186D01*
X82100500Y-134165892D01*
X82100500Y-134034108D01*
X82066392Y-133906814D01*
X82000500Y-133792686D01*
X81907314Y-133699500D01*
X81850250Y-133666554D01*
X81793187Y-133633608D01*
X81729539Y-133616554D01*
X81665892Y-133599500D01*
X81534108Y-133599500D01*
X81406812Y-133633608D01*
X81292686Y-133699500D01*
X81292683Y-133699502D01*
X81199502Y-133792683D01*
X81199500Y-133792686D01*
X81133608Y-133906812D01*
X81099500Y-134034108D01*
X79447997Y-134034108D01*
X79438592Y-133999007D01*
X79372700Y-133884879D01*
X79279514Y-133791693D01*
X79222450Y-133758747D01*
X79165387Y-133725801D01*
X79101739Y-133708747D01*
X79038092Y-133691693D01*
X78906308Y-133691693D01*
X78779012Y-133725801D01*
X78664886Y-133791693D01*
X78664883Y-133791695D01*
X78571702Y-133884876D01*
X78571700Y-133884879D01*
X78505808Y-133999005D01*
X78489981Y-134058074D01*
X78471700Y-134126301D01*
X53723565Y-134126301D01*
X53741408Y-134108458D01*
X53791088Y-134034108D01*
X53814541Y-133999007D01*
X53845867Y-133952125D01*
X53917819Y-133778417D01*
X53954500Y-133594010D01*
X53954500Y-133405990D01*
X53954500Y-133405987D01*
X53954499Y-133405985D01*
X53917820Y-133221590D01*
X53917819Y-133221583D01*
X53912737Y-133209313D01*
X53845870Y-133047881D01*
X53845863Y-133047868D01*
X53744970Y-132896872D01*
X53741407Y-132891540D01*
X53685975Y-132836108D01*
X72670900Y-132836108D01*
X72670900Y-132967891D01*
X72705008Y-133095187D01*
X72737954Y-133152250D01*
X72770900Y-133209314D01*
X72864086Y-133302500D01*
X72978214Y-133368392D01*
X73105508Y-133402500D01*
X73105510Y-133402500D01*
X73237290Y-133402500D01*
X73237292Y-133402500D01*
X73364586Y-133368392D01*
X73478714Y-133302500D01*
X73571900Y-133209314D01*
X73637792Y-133095186D01*
X73671900Y-132967892D01*
X73671900Y-132836108D01*
X73637792Y-132708814D01*
X73571900Y-132594686D01*
X73478714Y-132501500D01*
X73421650Y-132468554D01*
X73364587Y-132435608D01*
X73300939Y-132418554D01*
X73237292Y-132401500D01*
X73105508Y-132401500D01*
X72978212Y-132435608D01*
X72864086Y-132501500D01*
X72864083Y-132501502D01*
X72770902Y-132594683D01*
X72770900Y-132594686D01*
X72705008Y-132708812D01*
X72670900Y-132836108D01*
X53685975Y-132836108D01*
X53608461Y-132758594D01*
X53608457Y-132758591D01*
X53452131Y-132654136D01*
X53452118Y-132654129D01*
X53278421Y-132582182D01*
X53278409Y-132582179D01*
X53094013Y-132545500D01*
X53094010Y-132545500D01*
X52905990Y-132545500D01*
X52905987Y-132545500D01*
X52721590Y-132582179D01*
X52721578Y-132582182D01*
X52547881Y-132654129D01*
X52547868Y-132654136D01*
X52391542Y-132758591D01*
X52391538Y-132758594D01*
X52258594Y-132891538D01*
X52258591Y-132891542D01*
X52154136Y-133047868D01*
X52154129Y-133047881D01*
X52082182Y-133221578D01*
X52082179Y-133221590D01*
X52045500Y-133405985D01*
X48500500Y-133405985D01*
X48500500Y-130905985D01*
X52045500Y-130905985D01*
X52045500Y-131094014D01*
X52082179Y-131278409D01*
X52082182Y-131278421D01*
X52154129Y-131452118D01*
X52154136Y-131452131D01*
X52258591Y-131608457D01*
X52258594Y-131608461D01*
X52391538Y-131741405D01*
X52391542Y-131741408D01*
X52547868Y-131845863D01*
X52547881Y-131845870D01*
X52721578Y-131917817D01*
X52721583Y-131917819D01*
X52905985Y-131954499D01*
X52905988Y-131954500D01*
X52905990Y-131954500D01*
X53094012Y-131954500D01*
X53094013Y-131954499D01*
X53278417Y-131917819D01*
X53351100Y-131887713D01*
X89067967Y-131887713D01*
X89067967Y-132075742D01*
X89104646Y-132260137D01*
X89104649Y-132260149D01*
X89176596Y-132433846D01*
X89176603Y-132433859D01*
X89281058Y-132590185D01*
X89281061Y-132590189D01*
X89414005Y-132723133D01*
X89414009Y-132723136D01*
X89570335Y-132827591D01*
X89570348Y-132827598D01*
X89724719Y-132891540D01*
X89744050Y-132899547D01*
X89928452Y-132936227D01*
X89928455Y-132936228D01*
X89928457Y-132936228D01*
X90116479Y-132936228D01*
X90116480Y-132936227D01*
X90300884Y-132899547D01*
X90474592Y-132827595D01*
X90630925Y-132723136D01*
X90763875Y-132590186D01*
X90868334Y-132433853D01*
X90940286Y-132260145D01*
X90976967Y-132075738D01*
X90976967Y-131887718D01*
X90976967Y-131887715D01*
X90976966Y-131887713D01*
X90940287Y-131703318D01*
X90940286Y-131703311D01*
X90900997Y-131608458D01*
X90868337Y-131529609D01*
X90868330Y-131529596D01*
X90763875Y-131373270D01*
X90763872Y-131373266D01*
X90630928Y-131240322D01*
X90630924Y-131240319D01*
X90474598Y-131135864D01*
X90474585Y-131135857D01*
X90300888Y-131063910D01*
X90300876Y-131063907D01*
X90116480Y-131027228D01*
X90116477Y-131027228D01*
X89928457Y-131027228D01*
X89928454Y-131027228D01*
X89744057Y-131063907D01*
X89744045Y-131063910D01*
X89570348Y-131135857D01*
X89570335Y-131135864D01*
X89414009Y-131240319D01*
X89414005Y-131240322D01*
X89281061Y-131373266D01*
X89281058Y-131373270D01*
X89176603Y-131529596D01*
X89176596Y-131529609D01*
X89104649Y-131703306D01*
X89104646Y-131703318D01*
X89067967Y-131887713D01*
X53351100Y-131887713D01*
X53452125Y-131845867D01*
X53452131Y-131845863D01*
X53552911Y-131778524D01*
X53575492Y-131763435D01*
X53608458Y-131741408D01*
X53741408Y-131608458D01*
X53845867Y-131452125D01*
X53917819Y-131278417D01*
X53954500Y-131094010D01*
X53954500Y-130905990D01*
X53954500Y-130905987D01*
X53954499Y-130905985D01*
X53917820Y-130721590D01*
X53917819Y-130721583D01*
X53917817Y-130721578D01*
X53845870Y-130547881D01*
X53845863Y-130547868D01*
X53741408Y-130391542D01*
X53741405Y-130391538D01*
X53608461Y-130258594D01*
X53608457Y-130258591D01*
X53452131Y-130154136D01*
X53452118Y-130154129D01*
X53278421Y-130082182D01*
X53278409Y-130082179D01*
X53094013Y-130045500D01*
X53094010Y-130045500D01*
X52905990Y-130045500D01*
X52905987Y-130045500D01*
X52721590Y-130082179D01*
X52721578Y-130082182D01*
X52547881Y-130154129D01*
X52547868Y-130154136D01*
X52391542Y-130258591D01*
X52391538Y-130258594D01*
X52258594Y-130391538D01*
X52258591Y-130391542D01*
X52154136Y-130547868D01*
X52154129Y-130547881D01*
X52082182Y-130721578D01*
X52082179Y-130721590D01*
X52045500Y-130905985D01*
X48500500Y-130905985D01*
X48500500Y-128405985D01*
X52045500Y-128405985D01*
X52045500Y-128594014D01*
X52082179Y-128778409D01*
X52082182Y-128778421D01*
X52154129Y-128952118D01*
X52154136Y-128952131D01*
X52258591Y-129108457D01*
X52258594Y-129108461D01*
X52391538Y-129241405D01*
X52391542Y-129241408D01*
X52547868Y-129345863D01*
X52547881Y-129345870D01*
X52721578Y-129417817D01*
X52721583Y-129417819D01*
X52905985Y-129454499D01*
X52905988Y-129454500D01*
X52905990Y-129454500D01*
X53094012Y-129454500D01*
X53094013Y-129454499D01*
X53278417Y-129417819D01*
X53351100Y-129387713D01*
X94067967Y-129387713D01*
X94067967Y-129575742D01*
X94104646Y-129760137D01*
X94104649Y-129760149D01*
X94176596Y-129933846D01*
X94176603Y-129933859D01*
X94281058Y-130090185D01*
X94281061Y-130090189D01*
X94414005Y-130223133D01*
X94414009Y-130223136D01*
X94570335Y-130327591D01*
X94570348Y-130327598D01*
X94724724Y-130391542D01*
X94744050Y-130399547D01*
X94928452Y-130436227D01*
X94928455Y-130436228D01*
X94928457Y-130436228D01*
X95116479Y-130436228D01*
X95116480Y-130436227D01*
X95300884Y-130399547D01*
X95474592Y-130327595D01*
X95630925Y-130223136D01*
X95763875Y-130090186D01*
X95868334Y-129933853D01*
X95940286Y-129760145D01*
X95976967Y-129575738D01*
X95976967Y-129387718D01*
X95976967Y-129387715D01*
X95976966Y-129387713D01*
X95940287Y-129203318D01*
X95940286Y-129203311D01*
X95900997Y-129108458D01*
X95868337Y-129029609D01*
X95868330Y-129029596D01*
X95763875Y-128873270D01*
X95763872Y-128873266D01*
X95630928Y-128740322D01*
X95630924Y-128740319D01*
X95474598Y-128635864D01*
X95474585Y-128635857D01*
X95300888Y-128563910D01*
X95300876Y-128563907D01*
X95116480Y-128527228D01*
X95116477Y-128527228D01*
X94928457Y-128527228D01*
X94928454Y-128527228D01*
X94744057Y-128563907D01*
X94744045Y-128563910D01*
X94570348Y-128635857D01*
X94570335Y-128635864D01*
X94414009Y-128740319D01*
X94414005Y-128740322D01*
X94281061Y-128873266D01*
X94281058Y-128873270D01*
X94176603Y-129029596D01*
X94176596Y-129029609D01*
X94104649Y-129203306D01*
X94104646Y-129203318D01*
X94067967Y-129387713D01*
X53351100Y-129387713D01*
X53452125Y-129345867D01*
X53452131Y-129345863D01*
X53552911Y-129278524D01*
X53575492Y-129263435D01*
X53608458Y-129241408D01*
X53741408Y-129108458D01*
X53845867Y-128952125D01*
X53917819Y-128778417D01*
X53954500Y-128594010D01*
X53954500Y-128434108D01*
X77499500Y-128434108D01*
X77499500Y-128565891D01*
X77533608Y-128693187D01*
X77560820Y-128740319D01*
X77599500Y-128807314D01*
X77692686Y-128900500D01*
X77806814Y-128966392D01*
X77934108Y-129000500D01*
X77934110Y-129000500D01*
X78065890Y-129000500D01*
X78065892Y-129000500D01*
X78193186Y-128966392D01*
X78307314Y-128900500D01*
X78400500Y-128807314D01*
X78466392Y-128693186D01*
X78500500Y-128565892D01*
X78500500Y-128434108D01*
X78466392Y-128306814D01*
X78400500Y-128192686D01*
X78307314Y-128099500D01*
X78250250Y-128066554D01*
X78193187Y-128033608D01*
X78129539Y-128016554D01*
X78065892Y-127999500D01*
X77934108Y-127999500D01*
X77806812Y-128033608D01*
X77692686Y-128099500D01*
X77692683Y-128099502D01*
X77599502Y-128192683D01*
X77599500Y-128192686D01*
X77533608Y-128306812D01*
X77499500Y-128434108D01*
X53954500Y-128434108D01*
X53954500Y-128405990D01*
X53954500Y-128405987D01*
X53954499Y-128405985D01*
X53917819Y-128221583D01*
X53867251Y-128099500D01*
X53845870Y-128047881D01*
X53845863Y-128047868D01*
X53741408Y-127891542D01*
X53741405Y-127891538D01*
X53608461Y-127758594D01*
X53608457Y-127758591D01*
X53452131Y-127654136D01*
X53452118Y-127654129D01*
X53278421Y-127582182D01*
X53278409Y-127582179D01*
X53094013Y-127545500D01*
X53094010Y-127545500D01*
X52905990Y-127545500D01*
X52905987Y-127545500D01*
X52721590Y-127582179D01*
X52721578Y-127582182D01*
X52547881Y-127654129D01*
X52547868Y-127654136D01*
X52391542Y-127758591D01*
X52391538Y-127758594D01*
X52258594Y-127891538D01*
X52258591Y-127891542D01*
X52154136Y-128047868D01*
X52154129Y-128047881D01*
X52082182Y-128221578D01*
X52082179Y-128221590D01*
X52045500Y-128405985D01*
X48500500Y-128405985D01*
X48500500Y-125226247D01*
X52045500Y-125226247D01*
X52045500Y-126773752D01*
X52057131Y-126832229D01*
X52057132Y-126832230D01*
X52101447Y-126898552D01*
X52167769Y-126942867D01*
X52167770Y-126942868D01*
X52226247Y-126954499D01*
X52226250Y-126954500D01*
X52226252Y-126954500D01*
X53773750Y-126954500D01*
X53773751Y-126954499D01*
X53791389Y-126950991D01*
X53832229Y-126942868D01*
X53832229Y-126942867D01*
X53832231Y-126942867D01*
X53898552Y-126898552D01*
X53942867Y-126832231D01*
X53942867Y-126832229D01*
X53942868Y-126832229D01*
X53954499Y-126773752D01*
X53954500Y-126773750D01*
X53954500Y-126678108D01*
X63882500Y-126678108D01*
X63882500Y-126809892D01*
X63888486Y-126832231D01*
X63916608Y-126937187D01*
X63927056Y-126955283D01*
X63982500Y-127051314D01*
X64075686Y-127144500D01*
X64189814Y-127210392D01*
X64317108Y-127244500D01*
X64317110Y-127244500D01*
X64448890Y-127244500D01*
X64448892Y-127244500D01*
X64576186Y-127210392D01*
X64690314Y-127144500D01*
X64783500Y-127051314D01*
X64849392Y-126937186D01*
X64883500Y-126809892D01*
X64883500Y-126678108D01*
X64864051Y-126605523D01*
X64865714Y-126535677D01*
X64904876Y-126477814D01*
X64951731Y-126453659D01*
X64982586Y-126445392D01*
X65096714Y-126379500D01*
X65169796Y-126306418D01*
X68324701Y-126306418D01*
X68324701Y-126438202D01*
X68335315Y-126477814D01*
X68358809Y-126565497D01*
X68391755Y-126622560D01*
X68424701Y-126679624D01*
X68517887Y-126772810D01*
X68632015Y-126838702D01*
X68759309Y-126872810D01*
X68759311Y-126872810D01*
X68891091Y-126872810D01*
X68891093Y-126872810D01*
X69018387Y-126838702D01*
X69132515Y-126772810D01*
X69225701Y-126679624D01*
X69282020Y-126582077D01*
X70350169Y-126582077D01*
X70350169Y-126713860D01*
X70384277Y-126841156D01*
X70402552Y-126872809D01*
X70450169Y-126955283D01*
X70543355Y-127048469D01*
X70657483Y-127114361D01*
X70784777Y-127148469D01*
X70784779Y-127148469D01*
X70916559Y-127148469D01*
X70916561Y-127148469D01*
X71043855Y-127114361D01*
X71157983Y-127048469D01*
X71251169Y-126955283D01*
X71253648Y-126950988D01*
X71304210Y-126902772D01*
X71372816Y-126889545D01*
X71423033Y-126905595D01*
X71530414Y-126967592D01*
X71657708Y-127001700D01*
X71657710Y-127001700D01*
X71789490Y-127001700D01*
X71789492Y-127001700D01*
X71916786Y-126967592D01*
X72030914Y-126901700D01*
X72044901Y-126887713D01*
X89067967Y-126887713D01*
X89067967Y-127075742D01*
X89104646Y-127260137D01*
X89104649Y-127260149D01*
X89176596Y-127433846D01*
X89176603Y-127433859D01*
X89281058Y-127590185D01*
X89281061Y-127590189D01*
X89414005Y-127723133D01*
X89414009Y-127723136D01*
X89570335Y-127827591D01*
X89570348Y-127827598D01*
X89724724Y-127891542D01*
X89744050Y-127899547D01*
X89928452Y-127936227D01*
X89928455Y-127936228D01*
X89928457Y-127936228D01*
X90116479Y-127936228D01*
X90116480Y-127936227D01*
X90300884Y-127899547D01*
X90474592Y-127827595D01*
X90630925Y-127723136D01*
X90763875Y-127590186D01*
X90868334Y-127433853D01*
X90940286Y-127260145D01*
X90976967Y-127075738D01*
X90976967Y-126887718D01*
X90976967Y-126887715D01*
X90976966Y-126887713D01*
X90965930Y-126832230D01*
X90940286Y-126703311D01*
X90936589Y-126694386D01*
X90868337Y-126529609D01*
X90868330Y-126529596D01*
X90763875Y-126373270D01*
X90763872Y-126373266D01*
X90630928Y-126240322D01*
X90630924Y-126240319D01*
X90474598Y-126135864D01*
X90474585Y-126135857D01*
X90300888Y-126063910D01*
X90300876Y-126063907D01*
X90116480Y-126027228D01*
X90116477Y-126027228D01*
X89928457Y-126027228D01*
X89928454Y-126027228D01*
X89744057Y-126063907D01*
X89744045Y-126063910D01*
X89570348Y-126135857D01*
X89570335Y-126135864D01*
X89414009Y-126240319D01*
X89414005Y-126240322D01*
X89281061Y-126373266D01*
X89281058Y-126373270D01*
X89176603Y-126529596D01*
X89176596Y-126529609D01*
X89104649Y-126703306D01*
X89104646Y-126703318D01*
X89067967Y-126887713D01*
X72044901Y-126887713D01*
X72124100Y-126808514D01*
X72189992Y-126694386D01*
X72224100Y-126567092D01*
X72224100Y-126435308D01*
X72189992Y-126308014D01*
X72124100Y-126193886D01*
X72030914Y-126100700D01*
X71994555Y-126079708D01*
X78284300Y-126079708D01*
X78284300Y-126211492D01*
X78297196Y-126259621D01*
X78318408Y-126338787D01*
X78341914Y-126379499D01*
X78384300Y-126452914D01*
X78477486Y-126546100D01*
X78591614Y-126611992D01*
X78718908Y-126646100D01*
X78718910Y-126646100D01*
X78850690Y-126646100D01*
X78850692Y-126646100D01*
X78977986Y-126611992D01*
X79092114Y-126546100D01*
X79185300Y-126452914D01*
X79251192Y-126338786D01*
X79285300Y-126211492D01*
X79285300Y-126079708D01*
X79251192Y-125952414D01*
X79185300Y-125838286D01*
X79092114Y-125745100D01*
X78989553Y-125685886D01*
X78977987Y-125679208D01*
X78914339Y-125662154D01*
X78850692Y-125645100D01*
X78718908Y-125645100D01*
X78591612Y-125679208D01*
X78477486Y-125745100D01*
X78477483Y-125745102D01*
X78384302Y-125838283D01*
X78384300Y-125838286D01*
X78318408Y-125952412D01*
X78289824Y-126059091D01*
X78284300Y-126079708D01*
X71994555Y-126079708D01*
X71958847Y-126059092D01*
X71916787Y-126034808D01*
X71853139Y-126017754D01*
X71789492Y-126000700D01*
X71657708Y-126000700D01*
X71530412Y-126034808D01*
X71416286Y-126100700D01*
X71416283Y-126100702D01*
X71323102Y-126193883D01*
X71323093Y-126193895D01*
X71320613Y-126198191D01*
X71270043Y-126246403D01*
X71201435Y-126259621D01*
X71151231Y-126243570D01*
X71043858Y-126181578D01*
X71043855Y-126181577D01*
X70916561Y-126147469D01*
X70784777Y-126147469D01*
X70657481Y-126181577D01*
X70543355Y-126247469D01*
X70543352Y-126247471D01*
X70450171Y-126340652D01*
X70450169Y-126340655D01*
X70384277Y-126454781D01*
X70350169Y-126582077D01*
X69282020Y-126582077D01*
X69291593Y-126565496D01*
X69291594Y-126565490D01*
X69294705Y-126557984D01*
X69297901Y-126559308D01*
X69325888Y-126513283D01*
X69388702Y-126482687D01*
X69441487Y-126485173D01*
X69473308Y-126493700D01*
X69473310Y-126493700D01*
X69605090Y-126493700D01*
X69605092Y-126493700D01*
X69732386Y-126459592D01*
X69846514Y-126393700D01*
X69939700Y-126300514D01*
X70005592Y-126186386D01*
X70039700Y-126059092D01*
X70039700Y-125927308D01*
X70005592Y-125800014D01*
X69939700Y-125685886D01*
X69846514Y-125592700D01*
X69771693Y-125549502D01*
X69732387Y-125526808D01*
X69625062Y-125498051D01*
X69605092Y-125492700D01*
X69473308Y-125492700D01*
X69346012Y-125526808D01*
X69231886Y-125592700D01*
X69231883Y-125592702D01*
X69138702Y-125685883D01*
X69138700Y-125685886D01*
X69072807Y-125800014D01*
X69069700Y-125807518D01*
X69066537Y-125806208D01*
X69038339Y-125852384D01*
X68975466Y-125882861D01*
X68922912Y-125880336D01*
X68891093Y-125871810D01*
X68759309Y-125871810D01*
X68632013Y-125905918D01*
X68517887Y-125971810D01*
X68517884Y-125971812D01*
X68424703Y-126064993D01*
X68424701Y-126064996D01*
X68358809Y-126179122D01*
X68330089Y-126286310D01*
X68324701Y-126306418D01*
X65169796Y-126306418D01*
X65189900Y-126286314D01*
X65255792Y-126172186D01*
X65289900Y-126044892D01*
X65289900Y-125960001D01*
X65309585Y-125892962D01*
X65362389Y-125847207D01*
X65431547Y-125837263D01*
X65445966Y-125840220D01*
X65507900Y-125856815D01*
X65507904Y-125856815D01*
X65639682Y-125856815D01*
X65639684Y-125856815D01*
X65766978Y-125822707D01*
X65881106Y-125756815D01*
X65974292Y-125663629D01*
X66040184Y-125549501D01*
X66074292Y-125422207D01*
X66074292Y-125290423D01*
X66040184Y-125163129D01*
X65982954Y-125064004D01*
X80413945Y-125064004D01*
X80413945Y-125195788D01*
X80422107Y-125226249D01*
X80448053Y-125323083D01*
X80450660Y-125327598D01*
X80513945Y-125437210D01*
X80607131Y-125530396D01*
X80721259Y-125596288D01*
X80848553Y-125630396D01*
X80848555Y-125630396D01*
X80980335Y-125630396D01*
X80980337Y-125630396D01*
X81107631Y-125596288D01*
X81221759Y-125530396D01*
X81314945Y-125437210D01*
X81380837Y-125323082D01*
X81414945Y-125195788D01*
X81414945Y-125064004D01*
X81380837Y-124936710D01*
X81379183Y-124933846D01*
X81353824Y-124889923D01*
X81314945Y-124822582D01*
X81314940Y-124822577D01*
X81309998Y-124816136D01*
X81312738Y-124814032D01*
X81286884Y-124766683D01*
X81291868Y-124696991D01*
X81320369Y-124652644D01*
X81334700Y-124638314D01*
X81400592Y-124524186D01*
X81434700Y-124396892D01*
X81434700Y-124387713D01*
X94067967Y-124387713D01*
X94067967Y-124575742D01*
X94104646Y-124760137D01*
X94104649Y-124760149D01*
X94176596Y-124933846D01*
X94176603Y-124933859D01*
X94281058Y-125090185D01*
X94281061Y-125090189D01*
X94414005Y-125223133D01*
X94414009Y-125223136D01*
X94570335Y-125327591D01*
X94570348Y-125327598D01*
X94744045Y-125399545D01*
X94744050Y-125399547D01*
X94928452Y-125436227D01*
X94928455Y-125436228D01*
X94928457Y-125436228D01*
X95116479Y-125436228D01*
X95116480Y-125436227D01*
X95300884Y-125399547D01*
X95474592Y-125327595D01*
X95630925Y-125223136D01*
X95763875Y-125090186D01*
X95868334Y-124933853D01*
X95940286Y-124760145D01*
X95976967Y-124575738D01*
X95976967Y-124387718D01*
X95976967Y-124387715D01*
X95976966Y-124387713D01*
X95940286Y-124203311D01*
X95940284Y-124203306D01*
X95868337Y-124029609D01*
X95868330Y-124029596D01*
X95763875Y-123873270D01*
X95763872Y-123873266D01*
X95630928Y-123740322D01*
X95630924Y-123740319D01*
X95474598Y-123635864D01*
X95474585Y-123635857D01*
X95300888Y-123563910D01*
X95300876Y-123563907D01*
X95116480Y-123527228D01*
X95116477Y-123527228D01*
X94928457Y-123527228D01*
X94928454Y-123527228D01*
X94744057Y-123563907D01*
X94744045Y-123563910D01*
X94570348Y-123635857D01*
X94570335Y-123635864D01*
X94414009Y-123740319D01*
X94414005Y-123740322D01*
X94281061Y-123873266D01*
X94281058Y-123873270D01*
X94176603Y-124029596D01*
X94176596Y-124029609D01*
X94104649Y-124203306D01*
X94104646Y-124203318D01*
X94067967Y-124387713D01*
X81434700Y-124387713D01*
X81434700Y-124265108D01*
X81400592Y-124137814D01*
X81334700Y-124023686D01*
X81241514Y-123930500D01*
X81184450Y-123897554D01*
X81127387Y-123864608D01*
X81063739Y-123847554D01*
X81000092Y-123830500D01*
X80868308Y-123830500D01*
X80741012Y-123864608D01*
X80626886Y-123930500D01*
X80626883Y-123930502D01*
X80533702Y-124023683D01*
X80533700Y-124023686D01*
X80467808Y-124137812D01*
X80433700Y-124265108D01*
X80433700Y-124396891D01*
X80467808Y-124524187D01*
X80497572Y-124575738D01*
X80533700Y-124638314D01*
X80533702Y-124638316D01*
X80538647Y-124644760D01*
X80535905Y-124646863D01*
X80561760Y-124694212D01*
X80556776Y-124763904D01*
X80528277Y-124808249D01*
X80513948Y-124822577D01*
X80513945Y-124822582D01*
X80448053Y-124936708D01*
X80442933Y-124955817D01*
X80413945Y-125064004D01*
X65982954Y-125064004D01*
X65978987Y-125057133D01*
X65974294Y-125049004D01*
X65974289Y-125048998D01*
X65881108Y-124955817D01*
X65881106Y-124955815D01*
X65824042Y-124922869D01*
X65766979Y-124889923D01*
X65703331Y-124872869D01*
X65639684Y-124855815D01*
X65507900Y-124855815D01*
X65380604Y-124889923D01*
X65266478Y-124955815D01*
X65266475Y-124955817D01*
X65173294Y-125048998D01*
X65173292Y-125049001D01*
X65107400Y-125163127D01*
X65073292Y-125290423D01*
X65073292Y-125375313D01*
X65053607Y-125442352D01*
X65000803Y-125488107D01*
X64931645Y-125498051D01*
X64917202Y-125495088D01*
X64855292Y-125478500D01*
X64723508Y-125478500D01*
X64596212Y-125512608D01*
X64482086Y-125578500D01*
X64482083Y-125578502D01*
X64388902Y-125671683D01*
X64388900Y-125671686D01*
X64323008Y-125785812D01*
X64294298Y-125892962D01*
X64288900Y-125913108D01*
X64288900Y-126044892D01*
X64303854Y-126100700D01*
X64308348Y-126117473D01*
X64306685Y-126187323D01*
X64267522Y-126245185D01*
X64220668Y-126269340D01*
X64189815Y-126277607D01*
X64189814Y-126277607D01*
X64075686Y-126343500D01*
X64075683Y-126343502D01*
X63982502Y-126436683D01*
X63982500Y-126436686D01*
X63916608Y-126550812D01*
X63891077Y-126646099D01*
X63882500Y-126678108D01*
X53954500Y-126678108D01*
X53954500Y-125226249D01*
X53954499Y-125226247D01*
X53942868Y-125167770D01*
X53942867Y-125167769D01*
X53898552Y-125101447D01*
X53832230Y-125057132D01*
X53832229Y-125057131D01*
X53773752Y-125045500D01*
X53773748Y-125045500D01*
X52226252Y-125045500D01*
X52226247Y-125045500D01*
X52167770Y-125057131D01*
X52167769Y-125057132D01*
X52101447Y-125101447D01*
X52057132Y-125167769D01*
X52057131Y-125167770D01*
X52045500Y-125226247D01*
X48500500Y-125226247D01*
X48500500Y-124265108D01*
X78801900Y-124265108D01*
X78801900Y-124396891D01*
X78836008Y-124524187D01*
X78865772Y-124575738D01*
X78901900Y-124638314D01*
X78995086Y-124731500D01*
X79109214Y-124797392D01*
X79236508Y-124831500D01*
X79236510Y-124831500D01*
X79368290Y-124831500D01*
X79368292Y-124831500D01*
X79495586Y-124797392D01*
X79609714Y-124731500D01*
X79702900Y-124638314D01*
X79768792Y-124524186D01*
X79802900Y-124396892D01*
X79802900Y-124265108D01*
X79768792Y-124137814D01*
X79702900Y-124023686D01*
X79609714Y-123930500D01*
X79552650Y-123897554D01*
X79495587Y-123864608D01*
X79431939Y-123847554D01*
X79368292Y-123830500D01*
X79236508Y-123830500D01*
X79109212Y-123864608D01*
X78995086Y-123930500D01*
X78995083Y-123930502D01*
X78901902Y-124023683D01*
X78901900Y-124023686D01*
X78836008Y-124137812D01*
X78801900Y-124265108D01*
X48500500Y-124265108D01*
X48500500Y-122489340D01*
X68887010Y-122489340D01*
X68887010Y-122621123D01*
X68921118Y-122748419D01*
X68937384Y-122776592D01*
X68987010Y-122862546D01*
X69080196Y-122955732D01*
X69194324Y-123021624D01*
X69321618Y-123055732D01*
X69321620Y-123055732D01*
X69453400Y-123055732D01*
X69453402Y-123055732D01*
X69580696Y-123021624D01*
X69694824Y-122955732D01*
X69788010Y-122862546D01*
X69853902Y-122748418D01*
X69888010Y-122621124D01*
X69888010Y-122489340D01*
X69884819Y-122477431D01*
X69886480Y-122407585D01*
X69925641Y-122349721D01*
X69942585Y-122337956D01*
X69973514Y-122320100D01*
X70049306Y-122244308D01*
X78852700Y-122244308D01*
X78852700Y-122376092D01*
X78864492Y-122420099D01*
X78886808Y-122503387D01*
X78919754Y-122560450D01*
X78952700Y-122617514D01*
X79045886Y-122710700D01*
X79160014Y-122776592D01*
X79287308Y-122810700D01*
X79287310Y-122810700D01*
X79419090Y-122810700D01*
X79419092Y-122810700D01*
X79546386Y-122776592D01*
X79660514Y-122710700D01*
X79753700Y-122617514D01*
X79819592Y-122503386D01*
X79853700Y-122376092D01*
X79853700Y-122244308D01*
X79819592Y-122117014D01*
X79753700Y-122002886D01*
X79660514Y-121909700D01*
X79563537Y-121853710D01*
X79546387Y-121843808D01*
X79482739Y-121826754D01*
X79419092Y-121809700D01*
X79287308Y-121809700D01*
X79160012Y-121843808D01*
X79045886Y-121909700D01*
X79045883Y-121909702D01*
X78952702Y-122002883D01*
X78952700Y-122002886D01*
X78886808Y-122117012D01*
X78869046Y-122183304D01*
X78852700Y-122244308D01*
X70049306Y-122244308D01*
X70066700Y-122226914D01*
X70132592Y-122112786D01*
X70166700Y-121985492D01*
X70166700Y-121853708D01*
X70132592Y-121726414D01*
X70066700Y-121612286D01*
X69973514Y-121519100D01*
X69876014Y-121462808D01*
X69859387Y-121453208D01*
X69795739Y-121436154D01*
X69788103Y-121434108D01*
X80459100Y-121434108D01*
X80459100Y-121565892D01*
X80471530Y-121612283D01*
X80493208Y-121693187D01*
X80512391Y-121726412D01*
X80559100Y-121807314D01*
X80652286Y-121900500D01*
X80766414Y-121966392D01*
X80893708Y-122000500D01*
X80893710Y-122000500D01*
X81025490Y-122000500D01*
X81025492Y-122000500D01*
X81152786Y-121966392D01*
X81266914Y-121900500D01*
X81279701Y-121887713D01*
X89067967Y-121887713D01*
X89067967Y-122075742D01*
X89104646Y-122260137D01*
X89104649Y-122260149D01*
X89176596Y-122433846D01*
X89176603Y-122433859D01*
X89281058Y-122590185D01*
X89281061Y-122590189D01*
X89414005Y-122723133D01*
X89414009Y-122723136D01*
X89570335Y-122827591D01*
X89570348Y-122827598D01*
X89654721Y-122862546D01*
X89744050Y-122899547D01*
X89928452Y-122936227D01*
X89928455Y-122936228D01*
X89928457Y-122936228D01*
X90116479Y-122936228D01*
X90116480Y-122936227D01*
X90300884Y-122899547D01*
X90474592Y-122827595D01*
X90630925Y-122723136D01*
X90763875Y-122590186D01*
X90868334Y-122433853D01*
X90940286Y-122260145D01*
X90976967Y-122075738D01*
X90976967Y-121887718D01*
X90976967Y-121887715D01*
X90976966Y-121887713D01*
X90940286Y-121703311D01*
X90936092Y-121693186D01*
X90868337Y-121529609D01*
X90868330Y-121529596D01*
X90763875Y-121373270D01*
X90763872Y-121373266D01*
X90630928Y-121240322D01*
X90630924Y-121240319D01*
X90474598Y-121135864D01*
X90474585Y-121135857D01*
X90300888Y-121063910D01*
X90300876Y-121063907D01*
X90116480Y-121027228D01*
X90116477Y-121027228D01*
X89928457Y-121027228D01*
X89928454Y-121027228D01*
X89744057Y-121063907D01*
X89744045Y-121063910D01*
X89570348Y-121135857D01*
X89570335Y-121135864D01*
X89414009Y-121240319D01*
X89414005Y-121240322D01*
X89281061Y-121373266D01*
X89281058Y-121373270D01*
X89176603Y-121529596D01*
X89176596Y-121529609D01*
X89104649Y-121703306D01*
X89104646Y-121703318D01*
X89067967Y-121887713D01*
X81279701Y-121887713D01*
X81360100Y-121807314D01*
X81425992Y-121693186D01*
X81460100Y-121565892D01*
X81460100Y-121434108D01*
X81425992Y-121306814D01*
X81372468Y-121214108D01*
X82373700Y-121214108D01*
X82373700Y-121345892D01*
X82375924Y-121354191D01*
X82407808Y-121473187D01*
X82434318Y-121519102D01*
X82473700Y-121587314D01*
X82566886Y-121680500D01*
X82681014Y-121746392D01*
X82808308Y-121780500D01*
X82808310Y-121780500D01*
X82940090Y-121780500D01*
X82940092Y-121780500D01*
X83067386Y-121746392D01*
X83181514Y-121680500D01*
X83274700Y-121587314D01*
X83340592Y-121473186D01*
X83374700Y-121345892D01*
X83374700Y-121214108D01*
X83374700Y-121207500D01*
X83394385Y-121140461D01*
X83447189Y-121094706D01*
X83498700Y-121083500D01*
X83600490Y-121083500D01*
X83600492Y-121083500D01*
X83727786Y-121049392D01*
X83841914Y-120983500D01*
X83935100Y-120890314D01*
X84000992Y-120776186D01*
X84035100Y-120648892D01*
X84035100Y-120517108D01*
X84000992Y-120389814D01*
X83935100Y-120275686D01*
X83841914Y-120182500D01*
X83784850Y-120149554D01*
X83727787Y-120116608D01*
X83664139Y-120099554D01*
X83600492Y-120082500D01*
X83468708Y-120082500D01*
X83341412Y-120116608D01*
X83227286Y-120182500D01*
X83227283Y-120182502D01*
X83134102Y-120275683D01*
X83134100Y-120275686D01*
X83068208Y-120389812D01*
X83034100Y-120517108D01*
X83034100Y-120655500D01*
X83014415Y-120722539D01*
X82961611Y-120768294D01*
X82910100Y-120779500D01*
X82808308Y-120779500D01*
X82681012Y-120813608D01*
X82566886Y-120879500D01*
X82566883Y-120879502D01*
X82473702Y-120972683D01*
X82473700Y-120972686D01*
X82407808Y-121086812D01*
X82401247Y-121111299D01*
X82373700Y-121214108D01*
X81372468Y-121214108D01*
X81360100Y-121192686D01*
X81266914Y-121099500D01*
X81209850Y-121066554D01*
X81152787Y-121033608D01*
X81089139Y-121016554D01*
X81025492Y-120999500D01*
X80893708Y-120999500D01*
X80766412Y-121033608D01*
X80652286Y-121099500D01*
X80652283Y-121099502D01*
X80559102Y-121192683D01*
X80559100Y-121192686D01*
X80493208Y-121306812D01*
X80480513Y-121354191D01*
X80459100Y-121434108D01*
X69788103Y-121434108D01*
X69732092Y-121419100D01*
X69600308Y-121419100D01*
X69473012Y-121453208D01*
X69358886Y-121519100D01*
X69358883Y-121519102D01*
X69265702Y-121612283D01*
X69265700Y-121612286D01*
X69199808Y-121726412D01*
X69165700Y-121853708D01*
X69165700Y-121985495D01*
X69168891Y-121997402D01*
X69167227Y-122067252D01*
X69128064Y-122125113D01*
X69111120Y-122136877D01*
X69080196Y-122154732D01*
X69080193Y-122154734D01*
X68987012Y-122247915D01*
X68987010Y-122247918D01*
X68921118Y-122362044D01*
X68887010Y-122489340D01*
X48500500Y-122489340D01*
X48500500Y-121863308D01*
X65330300Y-121863308D01*
X65330300Y-121995092D01*
X65347354Y-122058739D01*
X65364408Y-122122387D01*
X65365982Y-122125113D01*
X65430300Y-122236514D01*
X65523486Y-122329700D01*
X65637614Y-122395592D01*
X65764908Y-122429700D01*
X65764910Y-122429700D01*
X65896690Y-122429700D01*
X65896692Y-122429700D01*
X66023986Y-122395592D01*
X66138114Y-122329700D01*
X66231300Y-122236514D01*
X66234183Y-122231519D01*
X66284748Y-122183304D01*
X66353355Y-122170079D01*
X66418220Y-122196045D01*
X66440168Y-122221373D01*
X66441352Y-122220465D01*
X66446298Y-122226911D01*
X66446300Y-122226914D01*
X66539486Y-122320100D01*
X66632542Y-122373826D01*
X66653610Y-122385990D01*
X66653614Y-122385992D01*
X66780908Y-122420100D01*
X66780910Y-122420100D01*
X66912690Y-122420100D01*
X66912692Y-122420100D01*
X67039986Y-122385992D01*
X67154114Y-122320100D01*
X67247300Y-122226914D01*
X67313192Y-122112786D01*
X67347300Y-121985492D01*
X67347300Y-121853708D01*
X67313192Y-121726414D01*
X67247300Y-121612286D01*
X67154114Y-121519100D01*
X67056614Y-121462808D01*
X67039987Y-121453208D01*
X66976339Y-121436154D01*
X66912692Y-121419100D01*
X66780908Y-121419100D01*
X66653612Y-121453208D01*
X66539486Y-121519100D01*
X66539483Y-121519102D01*
X66446302Y-121612283D01*
X66446297Y-121612289D01*
X66443411Y-121617289D01*
X66392840Y-121665501D01*
X66324232Y-121678719D01*
X66259369Y-121652746D01*
X66237432Y-121627425D01*
X66236248Y-121628335D01*
X66231302Y-121621889D01*
X66231300Y-121621886D01*
X66138114Y-121528700D01*
X66081050Y-121495754D01*
X66023987Y-121462808D01*
X65960339Y-121445754D01*
X65896692Y-121428700D01*
X65764908Y-121428700D01*
X65637612Y-121462808D01*
X65523486Y-121528700D01*
X65523483Y-121528702D01*
X65430302Y-121621883D01*
X65430300Y-121621886D01*
X65364408Y-121736012D01*
X65345303Y-121807314D01*
X65330300Y-121863308D01*
X48500500Y-121863308D01*
X48500500Y-120186908D01*
X66249500Y-120186908D01*
X66249500Y-120318692D01*
X66263909Y-120372468D01*
X66283608Y-120445987D01*
X66307461Y-120487300D01*
X66349500Y-120560114D01*
X66442686Y-120653300D01*
X66556814Y-120719192D01*
X66684108Y-120753300D01*
X66684110Y-120753300D01*
X66815890Y-120753300D01*
X66815892Y-120753300D01*
X66943186Y-120719192D01*
X67057314Y-120653300D01*
X67150500Y-120560114D01*
X67175328Y-120517108D01*
X75820500Y-120517108D01*
X75820500Y-120648892D01*
X75821681Y-120653299D01*
X75854608Y-120776187D01*
X75881006Y-120821908D01*
X75920500Y-120890314D01*
X76013686Y-120983500D01*
X76105431Y-121036469D01*
X76127810Y-121049390D01*
X76127814Y-121049392D01*
X76255108Y-121083500D01*
X76255110Y-121083500D01*
X76386890Y-121083500D01*
X76386892Y-121083500D01*
X76514186Y-121049392D01*
X76514193Y-121049387D01*
X76521700Y-121046280D01*
X76522963Y-121049329D01*
X76575885Y-121036469D01*
X76641921Y-121059295D01*
X76677421Y-121098330D01*
X76684909Y-121111299D01*
X76733300Y-121195114D01*
X76826486Y-121288300D01*
X76925321Y-121345363D01*
X76940610Y-121354190D01*
X76940614Y-121354192D01*
X77067908Y-121388300D01*
X77067910Y-121388300D01*
X77199690Y-121388300D01*
X77199692Y-121388300D01*
X77326986Y-121354192D01*
X77441114Y-121288300D01*
X77534300Y-121195114D01*
X77600192Y-121080986D01*
X77634300Y-120953692D01*
X77634300Y-120821908D01*
X77600192Y-120694614D01*
X77571494Y-120644907D01*
X78486498Y-120644907D01*
X78486498Y-120776690D01*
X78520606Y-120903986D01*
X78549303Y-120953690D01*
X78586498Y-121018113D01*
X78679684Y-121111299D01*
X78793812Y-121177191D01*
X78921106Y-121211299D01*
X78921108Y-121211299D01*
X79052888Y-121211299D01*
X79052890Y-121211299D01*
X79180184Y-121177191D01*
X79294312Y-121111299D01*
X79387498Y-121018113D01*
X79453390Y-120903985D01*
X79463747Y-120865330D01*
X79500113Y-120805671D01*
X79562960Y-120775142D01*
X79583522Y-120773425D01*
X79722418Y-120773425D01*
X79722420Y-120773425D01*
X79849714Y-120739317D01*
X79963842Y-120673425D01*
X80057028Y-120580239D01*
X80122920Y-120466111D01*
X80157028Y-120338817D01*
X80157028Y-120207033D01*
X80122920Y-120079739D01*
X80057028Y-119965611D01*
X79963842Y-119872425D01*
X79906778Y-119839479D01*
X79849715Y-119806533D01*
X79774606Y-119786408D01*
X79722420Y-119772425D01*
X79590636Y-119772425D01*
X79463340Y-119806533D01*
X79349214Y-119872425D01*
X79349211Y-119872427D01*
X79256030Y-119965608D01*
X79256028Y-119965611D01*
X79190136Y-120079739D01*
X79187337Y-120090185D01*
X79179779Y-120118393D01*
X79143413Y-120178053D01*
X79080566Y-120208582D01*
X79060004Y-120210299D01*
X78921106Y-120210299D01*
X78793810Y-120244407D01*
X78679684Y-120310299D01*
X78679681Y-120310301D01*
X78586500Y-120403482D01*
X78586498Y-120403485D01*
X78520606Y-120517611D01*
X78486498Y-120644907D01*
X77571494Y-120644907D01*
X77534300Y-120580486D01*
X77441114Y-120487300D01*
X77352655Y-120436228D01*
X77326987Y-120421408D01*
X77260085Y-120403482D01*
X77199692Y-120387300D01*
X77067908Y-120387300D01*
X76940614Y-120421408D01*
X76940613Y-120421408D01*
X76940611Y-120421409D01*
X76933100Y-120424520D01*
X76931843Y-120421487D01*
X76878792Y-120434325D01*
X76812778Y-120411435D01*
X76777377Y-120372468D01*
X76721504Y-120275692D01*
X76721501Y-120275689D01*
X76721500Y-120275686D01*
X76628314Y-120182500D01*
X76571250Y-120149554D01*
X76514187Y-120116608D01*
X76450539Y-120099554D01*
X76386892Y-120082500D01*
X76255108Y-120082500D01*
X76127812Y-120116608D01*
X76013686Y-120182500D01*
X76013683Y-120182502D01*
X75920502Y-120275683D01*
X75920500Y-120275686D01*
X75854608Y-120389812D01*
X75839290Y-120446981D01*
X75820500Y-120517108D01*
X67175328Y-120517108D01*
X67176598Y-120514909D01*
X67215818Y-120446981D01*
X67215818Y-120446980D01*
X67216389Y-120445991D01*
X67216388Y-120445991D01*
X67216392Y-120445986D01*
X67250500Y-120318692D01*
X67250500Y-120186908D01*
X67216392Y-120059614D01*
X67150500Y-119945486D01*
X67057314Y-119852300D01*
X67000250Y-119819354D01*
X66943187Y-119786408D01*
X66845140Y-119760137D01*
X66815892Y-119752300D01*
X66684108Y-119752300D01*
X66556812Y-119786408D01*
X66442686Y-119852300D01*
X66442683Y-119852302D01*
X66349502Y-119945483D01*
X66349500Y-119945486D01*
X66283608Y-120059612D01*
X66267858Y-120118393D01*
X66249500Y-120186908D01*
X48500500Y-120186908D01*
X48500500Y-119387713D01*
X94067967Y-119387713D01*
X94067967Y-119575742D01*
X94104646Y-119760137D01*
X94104649Y-119760149D01*
X94176596Y-119933846D01*
X94176603Y-119933859D01*
X94281058Y-120090185D01*
X94281061Y-120090189D01*
X94414005Y-120223133D01*
X94414009Y-120223136D01*
X94570335Y-120327591D01*
X94570348Y-120327598D01*
X94720552Y-120389814D01*
X94744050Y-120399547D01*
X94918890Y-120434325D01*
X94928452Y-120436227D01*
X94928455Y-120436228D01*
X94928457Y-120436228D01*
X95116479Y-120436228D01*
X95116480Y-120436227D01*
X95300884Y-120399547D01*
X95447502Y-120338816D01*
X95474585Y-120327598D01*
X95474585Y-120327597D01*
X95474592Y-120327595D01*
X95630925Y-120223136D01*
X95763875Y-120090186D01*
X95868334Y-119933853D01*
X95940286Y-119760145D01*
X95976967Y-119575738D01*
X95976967Y-119387718D01*
X95976967Y-119387715D01*
X95976966Y-119387713D01*
X95940287Y-119203318D01*
X95940286Y-119203311D01*
X95940284Y-119203306D01*
X95868337Y-119029609D01*
X95868330Y-119029596D01*
X95763875Y-118873270D01*
X95763872Y-118873266D01*
X95630928Y-118740322D01*
X95630924Y-118740319D01*
X95474598Y-118635864D01*
X95474585Y-118635857D01*
X95300888Y-118563910D01*
X95300876Y-118563907D01*
X95116480Y-118527228D01*
X95116477Y-118527228D01*
X94928457Y-118527228D01*
X94928454Y-118527228D01*
X94744057Y-118563907D01*
X94744045Y-118563910D01*
X94570348Y-118635857D01*
X94570335Y-118635864D01*
X94414009Y-118740319D01*
X94414005Y-118740322D01*
X94281061Y-118873266D01*
X94281058Y-118873270D01*
X94176603Y-119029596D01*
X94176596Y-119029609D01*
X94104649Y-119203306D01*
X94104646Y-119203318D01*
X94067967Y-119387713D01*
X48500500Y-119387713D01*
X48500500Y-116352155D01*
X49150000Y-116352155D01*
X49150000Y-117000000D01*
X50066988Y-117000000D01*
X50034075Y-117057007D01*
X50000000Y-117184174D01*
X50000000Y-117315826D01*
X50034075Y-117442993D01*
X50066988Y-117500000D01*
X49150000Y-117500000D01*
X49150000Y-118147844D01*
X49156401Y-118207372D01*
X49156403Y-118207379D01*
X49206645Y-118342086D01*
X49206649Y-118342093D01*
X49292809Y-118457187D01*
X49292812Y-118457190D01*
X49407906Y-118543350D01*
X49407913Y-118543354D01*
X49542620Y-118593596D01*
X49542627Y-118593598D01*
X49602155Y-118599999D01*
X49602172Y-118600000D01*
X50250000Y-118600000D01*
X50250000Y-117683012D01*
X50307007Y-117715925D01*
X50434174Y-117750000D01*
X50565826Y-117750000D01*
X50692993Y-117715925D01*
X50750000Y-117683012D01*
X50750000Y-118600000D01*
X51397828Y-118600000D01*
X51397844Y-118599999D01*
X51457372Y-118593598D01*
X51457379Y-118593596D01*
X51592086Y-118543354D01*
X51592093Y-118543350D01*
X51707187Y-118457190D01*
X51707190Y-118457187D01*
X51793350Y-118342093D01*
X51793354Y-118342086D01*
X51843596Y-118207379D01*
X51843598Y-118207372D01*
X51849999Y-118147844D01*
X51850000Y-118147827D01*
X51850000Y-117745564D01*
X51869685Y-117678525D01*
X51922489Y-117632770D01*
X51991647Y-117622826D01*
X52055203Y-117651851D01*
X52088561Y-117698112D01*
X52095939Y-117715925D01*
X52109059Y-117747598D01*
X52162508Y-117827591D01*
X52224024Y-117919657D01*
X52370342Y-118065975D01*
X52370345Y-118065977D01*
X52542402Y-118180941D01*
X52733580Y-118260130D01*
X52936530Y-118300499D01*
X52936534Y-118300500D01*
X52936535Y-118300500D01*
X53143466Y-118300500D01*
X53143467Y-118300499D01*
X53346420Y-118260130D01*
X53537598Y-118180941D01*
X53709655Y-118065977D01*
X53855977Y-117919655D01*
X53970941Y-117747598D01*
X54050130Y-117556420D01*
X54090500Y-117353465D01*
X54090500Y-117146535D01*
X54090499Y-117146530D01*
X54529500Y-117146530D01*
X54529500Y-117353469D01*
X54569868Y-117556412D01*
X54569870Y-117556420D01*
X54649058Y-117747596D01*
X54764024Y-117919657D01*
X54910342Y-118065975D01*
X54910345Y-118065977D01*
X55082402Y-118180941D01*
X55273580Y-118260130D01*
X55476530Y-118300499D01*
X55476534Y-118300500D01*
X55476535Y-118300500D01*
X55683466Y-118300500D01*
X55683467Y-118300499D01*
X55886420Y-118260130D01*
X56077598Y-118180941D01*
X56249655Y-118065977D01*
X56395977Y-117919655D01*
X56510941Y-117747598D01*
X56590130Y-117556420D01*
X56630500Y-117353465D01*
X56630500Y-117146535D01*
X56630499Y-117146530D01*
X57069500Y-117146530D01*
X57069500Y-117353469D01*
X57109868Y-117556412D01*
X57109870Y-117556420D01*
X57189058Y-117747596D01*
X57304024Y-117919657D01*
X57450342Y-118065975D01*
X57450345Y-118065977D01*
X57622402Y-118180941D01*
X57813580Y-118260130D01*
X58016530Y-118300499D01*
X58016534Y-118300500D01*
X58016535Y-118300500D01*
X58223466Y-118300500D01*
X58223467Y-118300499D01*
X58426420Y-118260130D01*
X58617598Y-118180941D01*
X58789655Y-118065977D01*
X58935977Y-117919655D01*
X59050941Y-117747598D01*
X59130130Y-117556420D01*
X59170500Y-117353465D01*
X59170500Y-117146535D01*
X59130130Y-116943580D01*
X59106989Y-116887713D01*
X89067967Y-116887713D01*
X89067967Y-117075742D01*
X89104646Y-117260137D01*
X89104649Y-117260149D01*
X89176596Y-117433846D01*
X89176603Y-117433859D01*
X89281058Y-117590185D01*
X89281061Y-117590189D01*
X89414005Y-117723133D01*
X89414009Y-117723136D01*
X89570335Y-117827591D01*
X89570348Y-117827598D01*
X89744045Y-117899545D01*
X89744050Y-117899547D01*
X89928452Y-117936227D01*
X89928455Y-117936228D01*
X89928457Y-117936228D01*
X90116479Y-117936228D01*
X90116480Y-117936227D01*
X90300884Y-117899547D01*
X90474592Y-117827595D01*
X90630925Y-117723136D01*
X90763875Y-117590186D01*
X90868334Y-117433853D01*
X90940286Y-117260145D01*
X90976967Y-117075738D01*
X90976967Y-116887718D01*
X90976967Y-116887715D01*
X90976966Y-116887713D01*
X90956351Y-116784075D01*
X90940286Y-116703311D01*
X90917589Y-116648516D01*
X90868337Y-116529609D01*
X90868330Y-116529596D01*
X90763875Y-116373270D01*
X90763872Y-116373266D01*
X90630928Y-116240322D01*
X90630924Y-116240319D01*
X90474598Y-116135864D01*
X90474585Y-116135857D01*
X90300888Y-116063910D01*
X90300876Y-116063907D01*
X90116480Y-116027228D01*
X90116477Y-116027228D01*
X89928457Y-116027228D01*
X89928454Y-116027228D01*
X89744057Y-116063907D01*
X89744045Y-116063910D01*
X89570348Y-116135857D01*
X89570335Y-116135864D01*
X89414009Y-116240319D01*
X89414005Y-116240322D01*
X89281061Y-116373266D01*
X89281058Y-116373270D01*
X89176603Y-116529596D01*
X89176596Y-116529609D01*
X89104649Y-116703306D01*
X89104646Y-116703318D01*
X89067967Y-116887713D01*
X59106989Y-116887713D01*
X59050941Y-116752402D01*
X58935977Y-116580345D01*
X58935975Y-116580342D01*
X58789658Y-116434025D01*
X58789650Y-116434019D01*
X58694336Y-116370332D01*
X58694262Y-116370284D01*
X58667130Y-116352155D01*
X58617598Y-116319059D01*
X58511974Y-116275308D01*
X66524100Y-116275308D01*
X66524100Y-116407091D01*
X66558208Y-116534387D01*
X66591154Y-116591450D01*
X66624100Y-116648514D01*
X66717286Y-116741700D01*
X66831414Y-116807592D01*
X66958708Y-116841700D01*
X66958710Y-116841700D01*
X67090490Y-116841700D01*
X67090492Y-116841700D01*
X67217786Y-116807592D01*
X67331914Y-116741700D01*
X67425100Y-116648514D01*
X67490992Y-116534386D01*
X67525100Y-116407092D01*
X67525100Y-116275308D01*
X67490992Y-116148014D01*
X67425100Y-116033886D01*
X67331914Y-115940700D01*
X67261420Y-115900000D01*
X67217787Y-115874808D01*
X67154139Y-115857754D01*
X67090492Y-115840700D01*
X66958708Y-115840700D01*
X66831412Y-115874808D01*
X66717286Y-115940700D01*
X66717283Y-115940702D01*
X66624102Y-116033883D01*
X66624100Y-116033886D01*
X66558208Y-116148012D01*
X66524100Y-116275308D01*
X58511974Y-116275308D01*
X58426420Y-116239870D01*
X58426412Y-116239868D01*
X58223469Y-116199500D01*
X58223465Y-116199500D01*
X58016535Y-116199500D01*
X58016530Y-116199500D01*
X57813587Y-116239868D01*
X57813579Y-116239870D01*
X57622403Y-116319058D01*
X57450342Y-116434024D01*
X57304024Y-116580342D01*
X57189058Y-116752403D01*
X57109870Y-116943579D01*
X57109868Y-116943587D01*
X57069500Y-117146530D01*
X56630499Y-117146530D01*
X56590130Y-116943580D01*
X56510941Y-116752402D01*
X56395977Y-116580345D01*
X56395975Y-116580342D01*
X56249657Y-116434024D01*
X56127130Y-116352155D01*
X56077598Y-116319059D01*
X55971974Y-116275308D01*
X55886420Y-116239870D01*
X55886412Y-116239868D01*
X55683469Y-116199500D01*
X55683465Y-116199500D01*
X55476535Y-116199500D01*
X55476530Y-116199500D01*
X55273587Y-116239868D01*
X55273579Y-116239870D01*
X55082403Y-116319058D01*
X54910342Y-116434024D01*
X54764024Y-116580342D01*
X54649058Y-116752403D01*
X54569870Y-116943579D01*
X54569868Y-116943587D01*
X54529500Y-117146530D01*
X54090499Y-117146530D01*
X54050130Y-116943580D01*
X53970941Y-116752402D01*
X53855977Y-116580345D01*
X53855975Y-116580342D01*
X53709657Y-116434024D01*
X53587130Y-116352155D01*
X53537598Y-116319059D01*
X53431974Y-116275308D01*
X53346420Y-116239870D01*
X53346412Y-116239868D01*
X53143469Y-116199500D01*
X53143465Y-116199500D01*
X52936535Y-116199500D01*
X52936530Y-116199500D01*
X52733587Y-116239868D01*
X52733579Y-116239870D01*
X52542403Y-116319058D01*
X52370342Y-116434024D01*
X52224024Y-116580342D01*
X52109058Y-116752403D01*
X52088561Y-116801888D01*
X52044720Y-116856291D01*
X51978426Y-116878356D01*
X51910726Y-116861077D01*
X51863116Y-116809939D01*
X51850000Y-116754435D01*
X51850000Y-116352172D01*
X51849999Y-116352155D01*
X51843598Y-116292627D01*
X51843596Y-116292620D01*
X51793354Y-116157913D01*
X51793350Y-116157906D01*
X51707190Y-116042812D01*
X51707187Y-116042809D01*
X51592093Y-115956649D01*
X51592086Y-115956645D01*
X51457379Y-115906403D01*
X51457372Y-115906401D01*
X51397844Y-115900000D01*
X50750000Y-115900000D01*
X50750000Y-116816988D01*
X50692993Y-116784075D01*
X50565826Y-116750000D01*
X50434174Y-116750000D01*
X50307007Y-116784075D01*
X50250000Y-116816988D01*
X50250000Y-115900000D01*
X49602155Y-115900000D01*
X49542627Y-115906401D01*
X49542620Y-115906403D01*
X49407913Y-115956645D01*
X49407906Y-115956649D01*
X49292812Y-116042809D01*
X49292809Y-116042812D01*
X49206649Y-116157906D01*
X49206645Y-116157913D01*
X49156403Y-116292620D01*
X49156401Y-116292627D01*
X49150000Y-116352155D01*
X48500500Y-116352155D01*
X48500500Y-114387713D01*
X94067967Y-114387713D01*
X94067967Y-114575742D01*
X94104646Y-114760137D01*
X94104649Y-114760149D01*
X94176596Y-114933846D01*
X94176603Y-114933859D01*
X94281058Y-115090185D01*
X94281061Y-115090189D01*
X94414005Y-115223133D01*
X94414009Y-115223136D01*
X94570335Y-115327591D01*
X94570348Y-115327598D01*
X94744045Y-115399545D01*
X94744050Y-115399547D01*
X94928452Y-115436227D01*
X94928455Y-115436228D01*
X94928457Y-115436228D01*
X95116479Y-115436228D01*
X95116480Y-115436227D01*
X95300884Y-115399547D01*
X95474592Y-115327595D01*
X95630925Y-115223136D01*
X95763875Y-115090186D01*
X95868334Y-114933853D01*
X95940286Y-114760145D01*
X95976967Y-114575738D01*
X95976967Y-114387718D01*
X95976967Y-114387715D01*
X95976966Y-114387713D01*
X95940286Y-114203311D01*
X95935349Y-114191391D01*
X95868337Y-114029609D01*
X95868330Y-114029596D01*
X95763875Y-113873270D01*
X95763872Y-113873266D01*
X95630928Y-113740322D01*
X95630924Y-113740319D01*
X95474598Y-113635864D01*
X95474585Y-113635857D01*
X95300888Y-113563910D01*
X95300876Y-113563907D01*
X95116480Y-113527228D01*
X95116477Y-113527228D01*
X94928457Y-113527228D01*
X94928454Y-113527228D01*
X94744057Y-113563907D01*
X94744045Y-113563910D01*
X94570348Y-113635857D01*
X94570335Y-113635864D01*
X94414009Y-113740319D01*
X94414005Y-113740322D01*
X94281061Y-113873266D01*
X94281058Y-113873270D01*
X94176603Y-114029596D01*
X94176596Y-114029609D01*
X94104649Y-114203306D01*
X94104646Y-114203318D01*
X94067967Y-114387713D01*
X48500500Y-114387713D01*
X48500500Y-112954258D01*
X51341250Y-112954258D01*
X51341250Y-113086041D01*
X51375358Y-113213337D01*
X51383255Y-113227014D01*
X51441250Y-113327464D01*
X51534436Y-113420650D01*
X51633271Y-113477713D01*
X51647784Y-113486092D01*
X51648564Y-113486542D01*
X51775858Y-113520650D01*
X51775860Y-113520650D01*
X51907640Y-113520650D01*
X51907642Y-113520650D01*
X52034936Y-113486542D01*
X52149064Y-113420650D01*
X52215406Y-113354308D01*
X55246500Y-113354308D01*
X55246500Y-113486092D01*
X55255760Y-113520650D01*
X55280608Y-113613387D01*
X55307006Y-113659108D01*
X55346500Y-113727514D01*
X55439686Y-113820700D01*
X55553814Y-113886592D01*
X55681108Y-113920700D01*
X55681110Y-113920700D01*
X55812890Y-113920700D01*
X55812892Y-113920700D01*
X55940186Y-113886592D01*
X56054314Y-113820700D01*
X56147500Y-113727514D01*
X56213392Y-113613386D01*
X56224961Y-113570208D01*
X58281800Y-113570208D01*
X58281800Y-113701992D01*
X58292515Y-113741980D01*
X58315908Y-113829287D01*
X58341300Y-113873266D01*
X58381800Y-113943414D01*
X58474986Y-114036600D01*
X58589114Y-114102492D01*
X58716408Y-114136600D01*
X58716410Y-114136600D01*
X58848190Y-114136600D01*
X58848192Y-114136600D01*
X58975486Y-114102492D01*
X59089614Y-114036600D01*
X59164247Y-113961966D01*
X59225566Y-113928484D01*
X59295258Y-113933468D01*
X59351192Y-113975339D01*
X59359311Y-113987648D01*
X59379036Y-114021812D01*
X59385100Y-114032314D01*
X59478286Y-114125500D01*
X59592414Y-114191392D01*
X59719708Y-114225500D01*
X59719710Y-114225500D01*
X59851490Y-114225500D01*
X59851492Y-114225500D01*
X59978786Y-114191392D01*
X60092914Y-114125500D01*
X60186100Y-114032314D01*
X60251992Y-113918186D01*
X60284312Y-113797564D01*
X60320674Y-113737908D01*
X60383521Y-113707378D01*
X60452897Y-113715672D01*
X60491766Y-113741980D01*
X60519686Y-113769900D01*
X60633814Y-113835792D01*
X60761108Y-113869900D01*
X60761110Y-113869900D01*
X60892890Y-113869900D01*
X60892892Y-113869900D01*
X61020186Y-113835792D01*
X61134314Y-113769900D01*
X61227500Y-113676714D01*
X61293392Y-113562586D01*
X61327500Y-113435292D01*
X61327500Y-113303508D01*
X61293392Y-113176214D01*
X61227500Y-113062086D01*
X61134314Y-112968900D01*
X61077250Y-112935954D01*
X61020187Y-112903008D01*
X60956539Y-112885954D01*
X60892892Y-112868900D01*
X60761108Y-112868900D01*
X60633812Y-112903008D01*
X60519686Y-112968900D01*
X60519683Y-112968902D01*
X60426502Y-113062083D01*
X60426500Y-113062086D01*
X60384057Y-113135600D01*
X60360608Y-113176214D01*
X60331679Y-113284180D01*
X60328289Y-113296832D01*
X60291924Y-113356492D01*
X60229077Y-113387021D01*
X60159701Y-113378726D01*
X60120833Y-113352419D01*
X60092916Y-113324502D01*
X60092914Y-113324500D01*
X60023078Y-113284180D01*
X59978787Y-113258608D01*
X59915139Y-113241554D01*
X59851492Y-113224500D01*
X59719708Y-113224500D01*
X59592412Y-113258608D01*
X59478286Y-113324500D01*
X59403655Y-113399131D01*
X59342331Y-113432615D01*
X59272640Y-113427630D01*
X59216706Y-113385759D01*
X59208588Y-113373450D01*
X59182804Y-113328792D01*
X59182801Y-113328789D01*
X59182800Y-113328786D01*
X59089614Y-113235600D01*
X58986755Y-113176214D01*
X58975487Y-113169708D01*
X58911839Y-113152654D01*
X58848192Y-113135600D01*
X58716408Y-113135600D01*
X58589112Y-113169708D01*
X58474986Y-113235600D01*
X58474983Y-113235602D01*
X58381802Y-113328783D01*
X58381800Y-113328786D01*
X58315908Y-113442912D01*
X58283842Y-113562586D01*
X58281800Y-113570208D01*
X56224961Y-113570208D01*
X56247500Y-113486092D01*
X56247500Y-113354308D01*
X56213392Y-113227014D01*
X56147500Y-113112886D01*
X56054314Y-113019700D01*
X55966330Y-112968902D01*
X55940187Y-112953808D01*
X55874572Y-112936227D01*
X55812892Y-112919700D01*
X55681108Y-112919700D01*
X55553812Y-112953808D01*
X55439686Y-113019700D01*
X55439683Y-113019702D01*
X55346502Y-113112883D01*
X55346500Y-113112886D01*
X55280608Y-113227012D01*
X55253337Y-113328792D01*
X55246500Y-113354308D01*
X52215406Y-113354308D01*
X52242250Y-113327464D01*
X52308142Y-113213336D01*
X52342250Y-113086042D01*
X52342250Y-112954258D01*
X52308142Y-112826964D01*
X52242250Y-112712836D01*
X52149064Y-112619650D01*
X52092000Y-112586704D01*
X52034937Y-112553758D01*
X51971289Y-112536704D01*
X51907642Y-112519650D01*
X51775858Y-112519650D01*
X51648562Y-112553758D01*
X51534436Y-112619650D01*
X51534433Y-112619652D01*
X51441252Y-112712833D01*
X51441250Y-112712836D01*
X51375358Y-112826962D01*
X51341250Y-112954258D01*
X48500500Y-112954258D01*
X48500500Y-111601708D01*
X75414100Y-111601708D01*
X75414100Y-111733491D01*
X75448208Y-111860787D01*
X75463757Y-111887718D01*
X75514100Y-111974914D01*
X75607286Y-112068100D01*
X75721414Y-112133992D01*
X75848708Y-112168100D01*
X75848710Y-112168100D01*
X75980490Y-112168100D01*
X75980492Y-112168100D01*
X76107786Y-112133992D01*
X76221914Y-112068100D01*
X76315100Y-111974914D01*
X76380992Y-111860786D01*
X76415100Y-111733492D01*
X76415100Y-111703308D01*
X84050100Y-111703308D01*
X84050100Y-111835092D01*
X84056985Y-111860786D01*
X84084208Y-111962387D01*
X84091440Y-111974913D01*
X84150100Y-112076514D01*
X84243286Y-112169700D01*
X84357414Y-112235592D01*
X84484708Y-112269700D01*
X84484710Y-112269700D01*
X84616490Y-112269700D01*
X84616492Y-112269700D01*
X84743786Y-112235592D01*
X84857914Y-112169700D01*
X84951100Y-112076514D01*
X85016992Y-111962386D01*
X85037000Y-111887713D01*
X89067967Y-111887713D01*
X89067967Y-112075742D01*
X89104646Y-112260137D01*
X89104649Y-112260149D01*
X89176596Y-112433846D01*
X89176603Y-112433859D01*
X89281058Y-112590185D01*
X89281061Y-112590189D01*
X89414005Y-112723133D01*
X89414009Y-112723136D01*
X89570335Y-112827591D01*
X89570348Y-112827598D01*
X89670061Y-112868900D01*
X89744050Y-112899547D01*
X89845366Y-112919700D01*
X89928452Y-112936227D01*
X89928455Y-112936228D01*
X89928457Y-112936228D01*
X90116479Y-112936228D01*
X90116480Y-112936227D01*
X90300884Y-112899547D01*
X90474592Y-112827595D01*
X90630925Y-112723136D01*
X90763875Y-112590186D01*
X90868334Y-112433853D01*
X90940286Y-112260145D01*
X90976967Y-112075738D01*
X90976967Y-111887718D01*
X90976967Y-111887715D01*
X90976966Y-111887713D01*
X90940287Y-111703318D01*
X90940286Y-111703311D01*
X90940284Y-111703306D01*
X90868337Y-111529609D01*
X90868330Y-111529596D01*
X90763875Y-111373270D01*
X90763872Y-111373266D01*
X90630928Y-111240322D01*
X90630924Y-111240319D01*
X90474598Y-111135864D01*
X90474585Y-111135857D01*
X90300888Y-111063910D01*
X90300876Y-111063907D01*
X90116480Y-111027228D01*
X90116477Y-111027228D01*
X89928457Y-111027228D01*
X89928454Y-111027228D01*
X89744057Y-111063907D01*
X89744045Y-111063910D01*
X89570348Y-111135857D01*
X89570335Y-111135864D01*
X89414009Y-111240319D01*
X89414005Y-111240322D01*
X89281061Y-111373266D01*
X89281058Y-111373270D01*
X89176603Y-111529596D01*
X89176596Y-111529609D01*
X89104649Y-111703306D01*
X89104646Y-111703318D01*
X89067967Y-111887713D01*
X85037000Y-111887713D01*
X85051100Y-111835092D01*
X85051100Y-111703308D01*
X85016992Y-111576014D01*
X84951100Y-111461886D01*
X84857914Y-111368700D01*
X84786356Y-111327386D01*
X84743787Y-111302808D01*
X84680139Y-111285754D01*
X84616492Y-111268700D01*
X84484708Y-111268700D01*
X84357412Y-111302808D01*
X84243286Y-111368700D01*
X84243283Y-111368702D01*
X84150102Y-111461883D01*
X84150100Y-111461886D01*
X84084208Y-111576012D01*
X84068483Y-111634700D01*
X84050100Y-111703308D01*
X76415100Y-111703308D01*
X76415100Y-111601708D01*
X76415100Y-111593581D01*
X76418259Y-111593581D01*
X76426731Y-111539252D01*
X76473110Y-111486995D01*
X76538905Y-111468100D01*
X76588996Y-111468100D01*
X76588998Y-111468100D01*
X76716292Y-111433992D01*
X76830420Y-111368100D01*
X76923606Y-111274914D01*
X76989498Y-111160786D01*
X77014277Y-111068308D01*
X79046300Y-111068308D01*
X79046300Y-111200092D01*
X79062991Y-111262386D01*
X79080408Y-111327387D01*
X79108772Y-111376514D01*
X79146300Y-111441514D01*
X79239486Y-111534700D01*
X79311044Y-111576014D01*
X79353610Y-111600590D01*
X79353614Y-111600592D01*
X79480908Y-111634700D01*
X79480910Y-111634700D01*
X79612690Y-111634700D01*
X79612692Y-111634700D01*
X79739986Y-111600592D01*
X79854114Y-111534700D01*
X79947300Y-111441514D01*
X80013192Y-111327386D01*
X80047300Y-111200092D01*
X80047300Y-111068308D01*
X80013192Y-110941014D01*
X79947300Y-110826886D01*
X79854114Y-110733700D01*
X79755069Y-110676516D01*
X79739987Y-110667808D01*
X79675380Y-110650497D01*
X79612692Y-110633700D01*
X79480908Y-110633700D01*
X79353612Y-110667808D01*
X79239486Y-110733700D01*
X79239483Y-110733702D01*
X79146302Y-110826883D01*
X79146300Y-110826886D01*
X79080408Y-110941012D01*
X79061193Y-111012725D01*
X79046300Y-111068308D01*
X77014277Y-111068308D01*
X77022487Y-111037667D01*
X77058849Y-110978011D01*
X77121696Y-110947481D01*
X77191072Y-110955775D01*
X77204257Y-110962375D01*
X77232389Y-110978617D01*
X77359683Y-111012725D01*
X77359685Y-111012725D01*
X77491465Y-111012725D01*
X77491467Y-111012725D01*
X77618761Y-110978617D01*
X77732889Y-110912725D01*
X77826075Y-110819539D01*
X77891967Y-110705411D01*
X77926075Y-110578117D01*
X77926075Y-110446333D01*
X77891967Y-110319039D01*
X77882885Y-110303308D01*
X82449900Y-110303308D01*
X82449900Y-110435092D01*
X82460348Y-110474084D01*
X82484008Y-110562387D01*
X82493090Y-110578117D01*
X82549900Y-110676514D01*
X82643086Y-110769700D01*
X82757214Y-110835592D01*
X82867349Y-110865102D01*
X82927010Y-110901467D01*
X82957539Y-110964314D01*
X82958196Y-111001056D01*
X82957900Y-111003305D01*
X82957900Y-111003308D01*
X82957900Y-111135092D01*
X82973260Y-111192416D01*
X82992008Y-111262387D01*
X82995653Y-111268700D01*
X83057900Y-111376514D01*
X83151086Y-111469700D01*
X83265214Y-111535592D01*
X83392508Y-111569700D01*
X83392510Y-111569700D01*
X83524290Y-111569700D01*
X83524292Y-111569700D01*
X83651586Y-111535592D01*
X83765714Y-111469700D01*
X83858900Y-111376514D01*
X83924792Y-111262386D01*
X83958900Y-111135092D01*
X83958900Y-111003308D01*
X83924792Y-110876014D01*
X83858900Y-110761886D01*
X83765714Y-110668700D01*
X83651586Y-110602808D01*
X83559430Y-110578115D01*
X83541449Y-110573297D01*
X83481789Y-110536932D01*
X83451260Y-110474084D01*
X83450605Y-110437330D01*
X83450900Y-110435090D01*
X83450900Y-110303310D01*
X83450900Y-110303308D01*
X83416792Y-110176014D01*
X83350900Y-110061886D01*
X83257714Y-109968700D01*
X83197345Y-109933846D01*
X83143587Y-109902808D01*
X83079939Y-109885754D01*
X83016292Y-109868700D01*
X82884508Y-109868700D01*
X82757212Y-109902808D01*
X82643086Y-109968700D01*
X82643083Y-109968702D01*
X82549902Y-110061883D01*
X82549900Y-110061886D01*
X82484008Y-110176012D01*
X82463007Y-110254391D01*
X82449900Y-110303308D01*
X77882885Y-110303308D01*
X77826075Y-110204911D01*
X77732889Y-110111725D01*
X77646566Y-110061886D01*
X77618762Y-110045833D01*
X77555114Y-110028779D01*
X77491467Y-110011725D01*
X77359683Y-110011725D01*
X77232387Y-110045833D01*
X77118261Y-110111725D01*
X77118258Y-110111727D01*
X77025077Y-110204908D01*
X77025075Y-110204911D01*
X76961001Y-110315891D01*
X76959183Y-110319039D01*
X76926195Y-110442154D01*
X76889830Y-110501814D01*
X76826983Y-110532343D01*
X76757607Y-110524048D01*
X76744420Y-110517447D01*
X76716295Y-110501209D01*
X76716292Y-110501208D01*
X76588998Y-110467100D01*
X76457214Y-110467100D01*
X76329918Y-110501208D01*
X76215792Y-110567100D01*
X76215789Y-110567102D01*
X76122608Y-110660283D01*
X76122606Y-110660286D01*
X76056714Y-110774412D01*
X76022606Y-110901708D01*
X76022606Y-111041619D01*
X76019447Y-111041619D01*
X76010975Y-111095948D01*
X75964596Y-111148205D01*
X75898801Y-111167100D01*
X75848708Y-111167100D01*
X75721412Y-111201208D01*
X75607286Y-111267100D01*
X75607283Y-111267102D01*
X75514102Y-111360283D01*
X75514100Y-111360286D01*
X75448208Y-111474412D01*
X75414100Y-111601708D01*
X48500500Y-111601708D01*
X48500500Y-110184108D01*
X50499500Y-110184108D01*
X50499500Y-110315891D01*
X50533608Y-110443187D01*
X50551447Y-110474084D01*
X50599500Y-110557314D01*
X50692686Y-110650500D01*
X50806814Y-110716392D01*
X50934108Y-110750500D01*
X50934110Y-110750500D01*
X51065890Y-110750500D01*
X51065892Y-110750500D01*
X51193186Y-110716392D01*
X51307314Y-110650500D01*
X51400500Y-110557314D01*
X51466392Y-110443186D01*
X51500500Y-110315892D01*
X51500500Y-110184108D01*
X51466392Y-110056814D01*
X51400500Y-109942686D01*
X51307314Y-109849500D01*
X51258587Y-109821367D01*
X51258586Y-109821366D01*
X51193189Y-109783609D01*
X51193186Y-109783608D01*
X51065892Y-109749500D01*
X50934108Y-109749500D01*
X50806812Y-109783608D01*
X50692686Y-109849500D01*
X50692683Y-109849502D01*
X50599502Y-109942683D01*
X50599500Y-109942686D01*
X50533608Y-110056812D01*
X50499500Y-110184108D01*
X48500500Y-110184108D01*
X48500500Y-109722108D01*
X67814500Y-109722108D01*
X67814500Y-109853891D01*
X67848608Y-109981187D01*
X67881554Y-110038250D01*
X67914500Y-110095314D01*
X68007686Y-110188500D01*
X68121814Y-110254392D01*
X68249108Y-110288500D01*
X68249110Y-110288500D01*
X68380890Y-110288500D01*
X68380892Y-110288500D01*
X68508186Y-110254392D01*
X68622314Y-110188500D01*
X68715500Y-110095314D01*
X68781392Y-109981186D01*
X68815500Y-109853892D01*
X68815500Y-109722108D01*
X68781392Y-109594814D01*
X68715500Y-109480686D01*
X68622314Y-109387500D01*
X68537908Y-109338768D01*
X68537906Y-109338766D01*
X68508189Y-109321609D01*
X68508186Y-109321608D01*
X68380892Y-109287500D01*
X68249108Y-109287500D01*
X68121812Y-109321608D01*
X68007686Y-109387500D01*
X68007683Y-109387502D01*
X67914502Y-109480683D01*
X67914500Y-109480686D01*
X67848608Y-109594812D01*
X67814500Y-109722108D01*
X48500500Y-109722108D01*
X48500500Y-109239508D01*
X77979500Y-109239508D01*
X77979500Y-109371292D01*
X77983901Y-109387718D01*
X78013608Y-109498587D01*
X78046554Y-109555650D01*
X78079500Y-109612714D01*
X78172686Y-109705900D01*
X78286814Y-109771792D01*
X78414108Y-109805900D01*
X78414110Y-109805900D01*
X78545890Y-109805900D01*
X78545892Y-109805900D01*
X78673186Y-109771792D01*
X78787314Y-109705900D01*
X78880500Y-109612714D01*
X78946392Y-109498586D01*
X78976100Y-109387713D01*
X94067967Y-109387713D01*
X94067967Y-109575742D01*
X94104646Y-109760137D01*
X94104649Y-109760149D01*
X94176596Y-109933846D01*
X94176603Y-109933859D01*
X94281058Y-110090185D01*
X94281061Y-110090189D01*
X94414005Y-110223133D01*
X94414009Y-110223136D01*
X94570335Y-110327591D01*
X94570348Y-110327598D01*
X94744045Y-110399545D01*
X94744050Y-110399547D01*
X94922736Y-110435090D01*
X94928452Y-110436227D01*
X94928455Y-110436228D01*
X94928457Y-110436228D01*
X95116479Y-110436228D01*
X95116480Y-110436227D01*
X95300884Y-110399547D01*
X95474592Y-110327595D01*
X95630925Y-110223136D01*
X95763875Y-110090186D01*
X95868334Y-109933853D01*
X95940286Y-109760145D01*
X95976967Y-109575738D01*
X95976967Y-109387718D01*
X95976967Y-109387715D01*
X95976966Y-109387713D01*
X95940287Y-109203318D01*
X95940286Y-109203311D01*
X95940284Y-109203306D01*
X95868337Y-109029609D01*
X95868330Y-109029596D01*
X95763875Y-108873270D01*
X95763872Y-108873266D01*
X95630928Y-108740322D01*
X95630924Y-108740319D01*
X95474598Y-108635864D01*
X95474585Y-108635857D01*
X95300888Y-108563910D01*
X95300876Y-108563907D01*
X95116480Y-108527228D01*
X95116477Y-108527228D01*
X94928457Y-108527228D01*
X94928454Y-108527228D01*
X94744057Y-108563907D01*
X94744045Y-108563910D01*
X94570348Y-108635857D01*
X94570335Y-108635864D01*
X94414009Y-108740319D01*
X94414005Y-108740322D01*
X94281061Y-108873266D01*
X94281058Y-108873270D01*
X94176603Y-109029596D01*
X94176596Y-109029609D01*
X94104649Y-109203306D01*
X94104646Y-109203318D01*
X94067967Y-109387713D01*
X78976100Y-109387713D01*
X78980500Y-109371292D01*
X78980500Y-109239508D01*
X78946392Y-109112214D01*
X78880500Y-108998086D01*
X78787314Y-108904900D01*
X78730250Y-108871954D01*
X78673187Y-108839008D01*
X78609539Y-108821954D01*
X78545892Y-108804900D01*
X78414108Y-108804900D01*
X78286812Y-108839008D01*
X78172686Y-108904900D01*
X78172683Y-108904902D01*
X78079502Y-108998083D01*
X78079500Y-108998086D01*
X78013608Y-109112212D01*
X77989200Y-109203306D01*
X77979500Y-109239508D01*
X48500500Y-109239508D01*
X48500500Y-106934108D01*
X65249500Y-106934108D01*
X65249500Y-107065892D01*
X65266554Y-107129539D01*
X65283608Y-107193187D01*
X65316554Y-107250250D01*
X65349500Y-107307314D01*
X65442686Y-107400500D01*
X65556814Y-107466392D01*
X65684108Y-107500500D01*
X65684110Y-107500500D01*
X65815890Y-107500500D01*
X65815892Y-107500500D01*
X65943186Y-107466392D01*
X66057314Y-107400500D01*
X66150500Y-107307314D01*
X66216392Y-107193186D01*
X66250500Y-107065892D01*
X66250500Y-106934108D01*
X66238069Y-106887713D01*
X89067967Y-106887713D01*
X89067967Y-107075742D01*
X89104646Y-107260137D01*
X89104649Y-107260149D01*
X89176596Y-107433846D01*
X89176603Y-107433859D01*
X89281058Y-107590185D01*
X89281061Y-107590189D01*
X89414005Y-107723133D01*
X89414009Y-107723136D01*
X89570335Y-107827591D01*
X89570348Y-107827598D01*
X89744045Y-107899545D01*
X89744050Y-107899547D01*
X89928452Y-107936227D01*
X89928455Y-107936228D01*
X89928457Y-107936228D01*
X90116479Y-107936228D01*
X90116480Y-107936227D01*
X90300884Y-107899547D01*
X90474592Y-107827595D01*
X90630925Y-107723136D01*
X90763875Y-107590186D01*
X90868334Y-107433853D01*
X90940286Y-107260145D01*
X90976967Y-107075738D01*
X90976967Y-106887718D01*
X90976967Y-106887715D01*
X90976966Y-106887713D01*
X90940287Y-106703318D01*
X90940286Y-106703311D01*
X90897287Y-106599502D01*
X90868337Y-106529609D01*
X90868330Y-106529596D01*
X90763875Y-106373270D01*
X90763872Y-106373266D01*
X90630928Y-106240322D01*
X90630924Y-106240319D01*
X90474598Y-106135864D01*
X90474585Y-106135857D01*
X90300888Y-106063910D01*
X90300876Y-106063907D01*
X90116480Y-106027228D01*
X90116477Y-106027228D01*
X89928457Y-106027228D01*
X89928454Y-106027228D01*
X89744057Y-106063907D01*
X89744045Y-106063910D01*
X89570348Y-106135857D01*
X89570335Y-106135864D01*
X89414009Y-106240319D01*
X89414005Y-106240322D01*
X89281061Y-106373266D01*
X89281058Y-106373270D01*
X89176603Y-106529596D01*
X89176596Y-106529609D01*
X89104649Y-106703306D01*
X89104646Y-106703318D01*
X89067967Y-106887713D01*
X66238069Y-106887713D01*
X66216392Y-106806814D01*
X66150500Y-106692686D01*
X66057314Y-106599500D01*
X66000250Y-106566554D01*
X65943187Y-106533608D01*
X65901720Y-106522497D01*
X65859533Y-106511193D01*
X65799873Y-106474829D01*
X65769344Y-106411982D01*
X65777639Y-106342607D01*
X65822124Y-106288729D01*
X65859530Y-106271645D01*
X65973186Y-106241192D01*
X66087314Y-106175300D01*
X66180500Y-106082114D01*
X66246392Y-105967986D01*
X66280500Y-105840692D01*
X66280500Y-105708908D01*
X66246392Y-105581614D01*
X66180500Y-105467486D01*
X66087314Y-105374300D01*
X66006412Y-105327591D01*
X65973187Y-105308408D01*
X65909539Y-105291354D01*
X65845892Y-105274300D01*
X65714108Y-105274300D01*
X65586812Y-105308408D01*
X65472686Y-105374300D01*
X65472683Y-105374302D01*
X65379502Y-105467483D01*
X65379500Y-105467486D01*
X65313608Y-105581612D01*
X65279500Y-105708908D01*
X65279500Y-105840691D01*
X65313608Y-105967987D01*
X65346554Y-106025050D01*
X65379500Y-106082114D01*
X65472686Y-106175300D01*
X65586814Y-106241192D01*
X65670466Y-106263606D01*
X65730125Y-106299969D01*
X65760655Y-106362816D01*
X65752361Y-106432192D01*
X65707876Y-106486070D01*
X65670466Y-106503155D01*
X65640465Y-106511194D01*
X65556814Y-106533608D01*
X65556812Y-106533608D01*
X65556812Y-106533609D01*
X65442686Y-106599500D01*
X65442683Y-106599502D01*
X65349502Y-106692683D01*
X65349500Y-106692686D01*
X65283608Y-106806812D01*
X65261931Y-106887713D01*
X65249500Y-106934108D01*
X48500500Y-106934108D01*
X48500500Y-104387713D01*
X94067967Y-104387713D01*
X94067967Y-104575742D01*
X94104646Y-104760137D01*
X94104649Y-104760149D01*
X94176596Y-104933846D01*
X94176603Y-104933859D01*
X94281058Y-105090185D01*
X94281061Y-105090189D01*
X94414005Y-105223133D01*
X94414009Y-105223136D01*
X94570335Y-105327591D01*
X94570348Y-105327598D01*
X94744045Y-105399545D01*
X94744050Y-105399547D01*
X94928452Y-105436227D01*
X94928455Y-105436228D01*
X94928457Y-105436228D01*
X95116479Y-105436228D01*
X95116480Y-105436227D01*
X95300884Y-105399547D01*
X95474592Y-105327595D01*
X95630925Y-105223136D01*
X95763875Y-105090186D01*
X95868334Y-104933853D01*
X95940286Y-104760145D01*
X95976967Y-104575738D01*
X95976967Y-104387718D01*
X95976967Y-104387715D01*
X95976966Y-104387713D01*
X95940287Y-104203318D01*
X95940286Y-104203311D01*
X95940284Y-104203306D01*
X95868337Y-104029609D01*
X95868330Y-104029596D01*
X95763875Y-103873270D01*
X95763872Y-103873266D01*
X95630928Y-103740322D01*
X95630924Y-103740319D01*
X95474598Y-103635864D01*
X95474585Y-103635857D01*
X95300888Y-103563910D01*
X95300876Y-103563907D01*
X95116480Y-103527228D01*
X95116477Y-103527228D01*
X94928457Y-103527228D01*
X94928454Y-103527228D01*
X94744057Y-103563907D01*
X94744045Y-103563910D01*
X94570348Y-103635857D01*
X94570335Y-103635864D01*
X94414009Y-103740319D01*
X94414005Y-103740322D01*
X94281061Y-103873266D01*
X94281058Y-103873270D01*
X94176603Y-104029596D01*
X94176596Y-104029609D01*
X94104649Y-104203306D01*
X94104646Y-104203318D01*
X94067967Y-104387713D01*
X48500500Y-104387713D01*
X48500500Y-103168908D01*
X50699900Y-103168908D01*
X50699900Y-103300691D01*
X50734008Y-103427987D01*
X50766954Y-103485050D01*
X50799900Y-103542114D01*
X50893086Y-103635300D01*
X51007214Y-103701192D01*
X51134508Y-103735300D01*
X51134510Y-103735300D01*
X51266290Y-103735300D01*
X51266292Y-103735300D01*
X51393586Y-103701192D01*
X51507714Y-103635300D01*
X51600900Y-103542114D01*
X51666792Y-103427986D01*
X51700900Y-103300692D01*
X51700900Y-103168908D01*
X51666871Y-103041908D01*
X65406500Y-103041908D01*
X65406500Y-103173691D01*
X65440608Y-103300987D01*
X65473554Y-103358050D01*
X65506500Y-103415114D01*
X65599686Y-103508300D01*
X65713814Y-103574192D01*
X65841108Y-103608300D01*
X65841110Y-103608300D01*
X65972890Y-103608300D01*
X65972892Y-103608300D01*
X66100186Y-103574192D01*
X66214314Y-103508300D01*
X66307500Y-103415114D01*
X66373392Y-103300986D01*
X66407500Y-103173692D01*
X66407500Y-103041908D01*
X66373392Y-102914614D01*
X66307500Y-102800486D01*
X66214314Y-102707300D01*
X66157250Y-102674354D01*
X66100187Y-102641408D01*
X66036539Y-102624354D01*
X65972892Y-102607300D01*
X65841108Y-102607300D01*
X65713812Y-102641408D01*
X65599686Y-102707300D01*
X65599683Y-102707302D01*
X65506502Y-102800483D01*
X65506500Y-102800486D01*
X65440608Y-102914612D01*
X65406500Y-103041908D01*
X51666871Y-103041908D01*
X51666792Y-103041614D01*
X51600900Y-102927486D01*
X51507714Y-102834300D01*
X51449141Y-102800483D01*
X51393587Y-102768408D01*
X51329939Y-102751354D01*
X51266292Y-102734300D01*
X51134508Y-102734300D01*
X51007212Y-102768408D01*
X50893086Y-102834300D01*
X50893083Y-102834302D01*
X50799902Y-102927483D01*
X50799900Y-102927486D01*
X50734008Y-103041612D01*
X50699900Y-103168908D01*
X48500500Y-103168908D01*
X48500500Y-101887713D01*
X89067967Y-101887713D01*
X89067967Y-102075742D01*
X89104646Y-102260137D01*
X89104649Y-102260149D01*
X89176596Y-102433846D01*
X89176603Y-102433859D01*
X89281058Y-102590185D01*
X89281061Y-102590189D01*
X89414005Y-102723133D01*
X89414009Y-102723136D01*
X89570335Y-102827591D01*
X89570348Y-102827598D01*
X89744045Y-102899545D01*
X89744050Y-102899547D01*
X89928452Y-102936227D01*
X89928455Y-102936228D01*
X89928457Y-102936228D01*
X90116479Y-102936228D01*
X90116480Y-102936227D01*
X90300884Y-102899547D01*
X90474592Y-102827595D01*
X90630925Y-102723136D01*
X90763875Y-102590186D01*
X90868334Y-102433853D01*
X90940286Y-102260145D01*
X90976967Y-102075738D01*
X90976967Y-101887718D01*
X90976967Y-101887715D01*
X90976966Y-101887713D01*
X90940287Y-101703318D01*
X90940286Y-101703311D01*
X90940284Y-101703306D01*
X90868337Y-101529609D01*
X90868330Y-101529596D01*
X90763875Y-101373270D01*
X90763872Y-101373266D01*
X90630928Y-101240322D01*
X90630924Y-101240319D01*
X90474598Y-101135864D01*
X90474585Y-101135857D01*
X90300888Y-101063910D01*
X90300876Y-101063907D01*
X90116480Y-101027228D01*
X90116477Y-101027228D01*
X89928457Y-101027228D01*
X89928454Y-101027228D01*
X89744057Y-101063907D01*
X89744045Y-101063910D01*
X89570348Y-101135857D01*
X89570335Y-101135864D01*
X89414009Y-101240319D01*
X89414005Y-101240322D01*
X89281061Y-101373266D01*
X89281058Y-101373270D01*
X89176603Y-101529596D01*
X89176596Y-101529609D01*
X89104649Y-101703306D01*
X89104646Y-101703318D01*
X89067967Y-101887713D01*
X48500500Y-101887713D01*
X48500500Y-100525208D01*
X52958400Y-100525208D01*
X52958400Y-100656992D01*
X52962605Y-100672686D01*
X52992508Y-100784287D01*
X53025454Y-100841350D01*
X53058400Y-100898414D01*
X53151586Y-100991600D01*
X53265714Y-101057492D01*
X53393008Y-101091600D01*
X53393010Y-101091600D01*
X53524790Y-101091600D01*
X53524792Y-101091600D01*
X53652086Y-101057492D01*
X53766214Y-100991600D01*
X53843706Y-100914108D01*
X61063100Y-100914108D01*
X61063100Y-101045891D01*
X61097208Y-101173187D01*
X61130154Y-101230250D01*
X61163100Y-101287314D01*
X61256286Y-101380500D01*
X61370414Y-101446392D01*
X61497708Y-101480500D01*
X61497710Y-101480500D01*
X61629490Y-101480500D01*
X61629492Y-101480500D01*
X61756786Y-101446392D01*
X61870914Y-101380500D01*
X61964100Y-101287314D01*
X62029992Y-101173186D01*
X62064100Y-101045892D01*
X62064100Y-100914108D01*
X62029992Y-100786814D01*
X62028532Y-100784286D01*
X62021163Y-100771521D01*
X61964100Y-100672686D01*
X61870914Y-100579500D01*
X61813850Y-100546554D01*
X61756787Y-100513608D01*
X61693139Y-100496554D01*
X61629492Y-100479500D01*
X61497708Y-100479500D01*
X61370412Y-100513608D01*
X61256286Y-100579500D01*
X61256283Y-100579502D01*
X61163102Y-100672683D01*
X61163100Y-100672686D01*
X61097208Y-100786812D01*
X61063100Y-100914108D01*
X53843706Y-100914108D01*
X53859400Y-100898414D01*
X53925292Y-100784286D01*
X53959400Y-100656992D01*
X53959400Y-100525208D01*
X53925292Y-100397914D01*
X53859400Y-100283786D01*
X53766214Y-100190600D01*
X53709150Y-100157654D01*
X53652087Y-100124708D01*
X53588439Y-100107654D01*
X53524792Y-100090600D01*
X53393008Y-100090600D01*
X53265712Y-100124708D01*
X53151586Y-100190600D01*
X53151583Y-100190602D01*
X53058402Y-100283783D01*
X53058400Y-100283786D01*
X52992508Y-100397912D01*
X52992070Y-100399547D01*
X52958400Y-100525208D01*
X48500500Y-100525208D01*
X48500500Y-98834108D01*
X68598300Y-98834108D01*
X68598300Y-98965891D01*
X68632408Y-99093187D01*
X68665354Y-99150250D01*
X68698300Y-99207314D01*
X68791486Y-99300500D01*
X68905614Y-99366392D01*
X69032908Y-99400500D01*
X69032910Y-99400500D01*
X69164690Y-99400500D01*
X69164692Y-99400500D01*
X69212414Y-99387713D01*
X94067967Y-99387713D01*
X94067967Y-99575742D01*
X94104646Y-99760137D01*
X94104649Y-99760149D01*
X94176596Y-99933846D01*
X94176603Y-99933859D01*
X94281058Y-100090185D01*
X94281061Y-100090189D01*
X94414005Y-100223133D01*
X94414009Y-100223136D01*
X94570335Y-100327591D01*
X94570348Y-100327598D01*
X94744045Y-100399545D01*
X94744050Y-100399547D01*
X94928452Y-100436227D01*
X94928455Y-100436228D01*
X94928457Y-100436228D01*
X95116479Y-100436228D01*
X95116480Y-100436227D01*
X95300884Y-100399547D01*
X95474592Y-100327595D01*
X95630925Y-100223136D01*
X95763875Y-100090186D01*
X95868334Y-99933853D01*
X95940286Y-99760145D01*
X95976967Y-99575738D01*
X95976967Y-99387718D01*
X95976967Y-99387715D01*
X95976966Y-99387713D01*
X95959618Y-99300499D01*
X95940286Y-99203311D01*
X95940284Y-99203306D01*
X95868337Y-99029609D01*
X95868330Y-99029596D01*
X95763875Y-98873270D01*
X95763872Y-98873266D01*
X95630928Y-98740322D01*
X95630924Y-98740319D01*
X95474598Y-98635864D01*
X95474585Y-98635857D01*
X95300888Y-98563910D01*
X95300876Y-98563907D01*
X95116480Y-98527228D01*
X95116477Y-98527228D01*
X94928457Y-98527228D01*
X94928454Y-98527228D01*
X94744057Y-98563907D01*
X94744045Y-98563910D01*
X94570348Y-98635857D01*
X94570335Y-98635864D01*
X94414009Y-98740319D01*
X94414005Y-98740322D01*
X94281061Y-98873266D01*
X94281058Y-98873270D01*
X94176603Y-99029596D01*
X94176596Y-99029609D01*
X94104649Y-99203306D01*
X94104646Y-99203318D01*
X94067967Y-99387713D01*
X69212414Y-99387713D01*
X69291986Y-99366392D01*
X69406114Y-99300500D01*
X69499300Y-99207314D01*
X69565192Y-99093186D01*
X69599300Y-98965892D01*
X69599300Y-98834108D01*
X69565192Y-98706814D01*
X69499300Y-98592686D01*
X69406114Y-98499500D01*
X69349050Y-98466554D01*
X69291987Y-98433608D01*
X69228339Y-98416554D01*
X69164692Y-98399500D01*
X69032908Y-98399500D01*
X68905612Y-98433608D01*
X68791486Y-98499500D01*
X68791483Y-98499502D01*
X68698302Y-98592683D01*
X68698300Y-98592686D01*
X68632408Y-98706812D01*
X68598300Y-98834108D01*
X48500500Y-98834108D01*
X48500500Y-96887713D01*
X89067967Y-96887713D01*
X89067967Y-97075742D01*
X89104646Y-97260137D01*
X89104649Y-97260149D01*
X89176596Y-97433846D01*
X89176603Y-97433859D01*
X89281058Y-97590185D01*
X89281061Y-97590189D01*
X89414005Y-97723133D01*
X89414009Y-97723136D01*
X89570335Y-97827591D01*
X89570348Y-97827598D01*
X89744045Y-97899545D01*
X89744050Y-97899547D01*
X89928452Y-97936227D01*
X89928455Y-97936228D01*
X89928457Y-97936228D01*
X90116479Y-97936228D01*
X90116480Y-97936227D01*
X90300884Y-97899547D01*
X90474592Y-97827595D01*
X90630925Y-97723136D01*
X90763875Y-97590186D01*
X90868334Y-97433853D01*
X90940286Y-97260145D01*
X90976967Y-97075738D01*
X90976967Y-96887718D01*
X90976967Y-96887715D01*
X90976966Y-96887713D01*
X90940287Y-96703318D01*
X90940286Y-96703311D01*
X90940284Y-96703306D01*
X90868337Y-96529609D01*
X90868330Y-96529596D01*
X90763875Y-96373270D01*
X90763872Y-96373266D01*
X90630928Y-96240322D01*
X90630924Y-96240319D01*
X90474598Y-96135864D01*
X90474585Y-96135857D01*
X90300888Y-96063910D01*
X90300876Y-96063907D01*
X90116480Y-96027228D01*
X90116477Y-96027228D01*
X89928457Y-96027228D01*
X89928454Y-96027228D01*
X89744057Y-96063907D01*
X89744045Y-96063910D01*
X89570348Y-96135857D01*
X89570335Y-96135864D01*
X89414009Y-96240319D01*
X89414005Y-96240322D01*
X89281061Y-96373266D01*
X89281058Y-96373270D01*
X89176603Y-96529596D01*
X89176596Y-96529609D01*
X89104649Y-96703306D01*
X89104646Y-96703318D01*
X89067967Y-96887713D01*
X48500500Y-96887713D01*
X48500500Y-93707975D01*
X94067967Y-93707975D01*
X94067967Y-95255480D01*
X94079598Y-95313957D01*
X94079599Y-95313958D01*
X94123914Y-95380280D01*
X94190236Y-95424595D01*
X94190237Y-95424596D01*
X94248714Y-95436227D01*
X94248717Y-95436228D01*
X94248719Y-95436228D01*
X95796217Y-95436228D01*
X95796218Y-95436227D01*
X95811035Y-95433280D01*
X95854696Y-95424596D01*
X95854696Y-95424595D01*
X95854698Y-95424595D01*
X95921019Y-95380280D01*
X95965334Y-95313959D01*
X95965334Y-95313957D01*
X95965335Y-95313957D01*
X95976966Y-95255480D01*
X95976967Y-95255478D01*
X95976967Y-93707977D01*
X95976966Y-93707975D01*
X95965335Y-93649498D01*
X95965334Y-93649497D01*
X95921019Y-93583175D01*
X95854697Y-93538860D01*
X95854696Y-93538859D01*
X95796219Y-93527228D01*
X95796215Y-93527228D01*
X94248719Y-93527228D01*
X94248714Y-93527228D01*
X94190237Y-93538859D01*
X94190236Y-93538860D01*
X94123914Y-93583175D01*
X94079599Y-93649497D01*
X94079598Y-93649498D01*
X94067967Y-93707975D01*
X48500500Y-93707975D01*
X48500500Y-92399308D01*
X51360300Y-92399308D01*
X51360300Y-92531091D01*
X51394408Y-92658387D01*
X51427354Y-92715450D01*
X51460300Y-92772514D01*
X51553486Y-92865700D01*
X51667614Y-92931592D01*
X51794908Y-92965700D01*
X51794910Y-92965700D01*
X51926690Y-92965700D01*
X51926692Y-92965700D01*
X52053986Y-92931592D01*
X52168114Y-92865700D01*
X52261300Y-92772514D01*
X52327192Y-92658386D01*
X52361300Y-92531092D01*
X52361300Y-92399308D01*
X52327192Y-92272014D01*
X52261300Y-92157886D01*
X52168114Y-92064700D01*
X52111050Y-92031754D01*
X52053987Y-91998808D01*
X51990339Y-91981754D01*
X51926692Y-91964700D01*
X51794908Y-91964700D01*
X51667612Y-91998808D01*
X51553486Y-92064700D01*
X51553483Y-92064702D01*
X51460302Y-92157883D01*
X51460300Y-92157886D01*
X51394408Y-92272012D01*
X51360300Y-92399308D01*
X48500500Y-92399308D01*
X48500500Y-89800973D01*
X57032035Y-89800973D01*
X57032035Y-89932757D01*
X57041015Y-89966270D01*
X57066143Y-90060052D01*
X57099089Y-90117115D01*
X57132035Y-90174179D01*
X57225221Y-90267365D01*
X57339349Y-90333257D01*
X57466643Y-90367365D01*
X57466645Y-90367365D01*
X57598425Y-90367365D01*
X57598427Y-90367365D01*
X57725721Y-90333257D01*
X57839849Y-90267365D01*
X57933035Y-90174179D01*
X57998927Y-90060051D01*
X58033035Y-89932757D01*
X58033035Y-89800973D01*
X57998927Y-89673679D01*
X57933035Y-89559551D01*
X57839849Y-89466365D01*
X57782785Y-89433419D01*
X57725722Y-89400473D01*
X57662074Y-89383419D01*
X57598427Y-89366365D01*
X57466643Y-89366365D01*
X57339347Y-89400473D01*
X57225221Y-89466365D01*
X57225218Y-89466367D01*
X57132037Y-89559548D01*
X57132035Y-89559551D01*
X57066143Y-89673677D01*
X57032821Y-89798041D01*
X57032035Y-89800973D01*
X48500500Y-89800973D01*
X48500500Y-86811308D01*
X51487300Y-86811308D01*
X51487300Y-86943092D01*
X51496194Y-86976286D01*
X51521408Y-87070387D01*
X51532970Y-87090412D01*
X51587300Y-87184514D01*
X51680486Y-87277700D01*
X51794614Y-87343592D01*
X51921908Y-87377700D01*
X51921910Y-87377700D01*
X52053690Y-87377700D01*
X52053692Y-87377700D01*
X52180986Y-87343592D01*
X52295114Y-87277700D01*
X52355106Y-87217708D01*
X54382900Y-87217708D01*
X54382900Y-87349492D01*
X54396591Y-87400587D01*
X54417008Y-87476787D01*
X54438903Y-87514710D01*
X54482900Y-87590914D01*
X54576086Y-87684100D01*
X54690214Y-87749992D01*
X54817508Y-87784100D01*
X54817510Y-87784100D01*
X54949290Y-87784100D01*
X54949292Y-87784100D01*
X55076586Y-87749992D01*
X55190714Y-87684100D01*
X55283900Y-87590914D01*
X55349792Y-87476786D01*
X55383900Y-87349492D01*
X55383900Y-87217708D01*
X56145830Y-87217708D01*
X56145830Y-87349492D01*
X56159521Y-87400587D01*
X56179938Y-87476787D01*
X56201833Y-87514710D01*
X56245830Y-87590914D01*
X56339016Y-87684100D01*
X56453144Y-87749992D01*
X56580438Y-87784100D01*
X56580440Y-87784100D01*
X56712220Y-87784100D01*
X56712222Y-87784100D01*
X56839516Y-87749992D01*
X56953644Y-87684100D01*
X57046830Y-87590914D01*
X57112722Y-87476786D01*
X57146830Y-87349492D01*
X57146830Y-87217708D01*
X57126412Y-87141508D01*
X71654900Y-87141508D01*
X71654900Y-87273292D01*
X71666795Y-87317686D01*
X71689008Y-87400587D01*
X71721954Y-87457650D01*
X71754900Y-87514714D01*
X71848086Y-87607900D01*
X71962214Y-87673792D01*
X72089508Y-87707900D01*
X72089510Y-87707900D01*
X72221290Y-87707900D01*
X72221292Y-87707900D01*
X72348586Y-87673792D01*
X72462714Y-87607900D01*
X72511506Y-87559108D01*
X86874500Y-87559108D01*
X86874500Y-87690891D01*
X86908608Y-87818187D01*
X86937872Y-87868872D01*
X86974500Y-87932314D01*
X87067686Y-88025500D01*
X87181814Y-88091392D01*
X87309108Y-88125500D01*
X87309110Y-88125500D01*
X87440890Y-88125500D01*
X87440892Y-88125500D01*
X87568186Y-88091392D01*
X87682314Y-88025500D01*
X87775500Y-87932314D01*
X87812128Y-87868872D01*
X93499500Y-87868872D01*
X93499500Y-88131127D01*
X93526123Y-88333339D01*
X93533730Y-88391116D01*
X93601602Y-88644418D01*
X93601605Y-88644428D01*
X93701953Y-88886690D01*
X93701958Y-88886700D01*
X93833075Y-89113803D01*
X93992718Y-89321851D01*
X93992726Y-89321860D01*
X94178140Y-89507274D01*
X94178148Y-89507281D01*
X94386196Y-89666924D01*
X94613299Y-89798041D01*
X94613309Y-89798046D01*
X94855571Y-89898394D01*
X94855581Y-89898398D01*
X95108884Y-89966270D01*
X95368880Y-90000500D01*
X95368887Y-90000500D01*
X95631113Y-90000500D01*
X95631120Y-90000500D01*
X95891116Y-89966270D01*
X96144419Y-89898398D01*
X96379619Y-89800975D01*
X96386690Y-89798046D01*
X96386691Y-89798045D01*
X96386697Y-89798043D01*
X96613803Y-89666924D01*
X96821851Y-89507282D01*
X96821855Y-89507277D01*
X96821860Y-89507274D01*
X97007274Y-89321860D01*
X97007277Y-89321855D01*
X97007282Y-89321851D01*
X97166924Y-89113803D01*
X97298043Y-88886697D01*
X97398398Y-88644419D01*
X97466270Y-88391116D01*
X97500500Y-88131120D01*
X97500500Y-87868880D01*
X97466270Y-87608884D01*
X97398398Y-87355581D01*
X97395876Y-87349492D01*
X97298046Y-87113309D01*
X97298041Y-87113299D01*
X97166924Y-86886196D01*
X97036626Y-86716391D01*
X97007282Y-86678149D01*
X97007281Y-86678148D01*
X97007274Y-86678140D01*
X96821860Y-86492726D01*
X96821851Y-86492718D01*
X96613803Y-86333075D01*
X96386700Y-86201958D01*
X96386690Y-86201953D01*
X96144428Y-86101605D01*
X96144421Y-86101603D01*
X96144419Y-86101602D01*
X95891116Y-86033730D01*
X95833339Y-86026123D01*
X95631127Y-85999500D01*
X95631120Y-85999500D01*
X95368880Y-85999500D01*
X95368872Y-85999500D01*
X95137772Y-86029926D01*
X95108884Y-86033730D01*
X94855581Y-86101602D01*
X94855571Y-86101605D01*
X94613309Y-86201953D01*
X94613299Y-86201958D01*
X94386196Y-86333075D01*
X94178148Y-86492718D01*
X93992718Y-86678148D01*
X93833075Y-86886196D01*
X93701958Y-87113299D01*
X93701953Y-87113309D01*
X93601605Y-87355571D01*
X93601602Y-87355581D01*
X93533995Y-87607897D01*
X93533730Y-87608885D01*
X93499500Y-87868872D01*
X87812128Y-87868872D01*
X87841392Y-87818186D01*
X87875500Y-87690892D01*
X87875500Y-87559108D01*
X87841392Y-87431814D01*
X87775500Y-87317686D01*
X87682314Y-87224500D01*
X87613060Y-87184516D01*
X87568187Y-87158608D01*
X87504367Y-87141508D01*
X87440892Y-87124500D01*
X87309108Y-87124500D01*
X87181812Y-87158608D01*
X87067686Y-87224500D01*
X87067683Y-87224502D01*
X86974502Y-87317683D01*
X86974500Y-87317686D01*
X86908608Y-87431812D01*
X86874500Y-87559108D01*
X72511506Y-87559108D01*
X72555900Y-87514714D01*
X72621792Y-87400586D01*
X72655900Y-87273292D01*
X72655900Y-87141508D01*
X72621792Y-87014214D01*
X72555900Y-86900086D01*
X72462714Y-86806900D01*
X72365027Y-86750500D01*
X72348587Y-86741008D01*
X72256713Y-86716391D01*
X72221292Y-86706900D01*
X72089508Y-86706900D01*
X71962212Y-86741008D01*
X71848086Y-86806900D01*
X71848083Y-86806902D01*
X71754902Y-86900083D01*
X71754900Y-86900086D01*
X71689008Y-87014212D01*
X71662457Y-87113303D01*
X71654900Y-87141508D01*
X57126412Y-87141508D01*
X57112722Y-87090414D01*
X57046830Y-86976286D01*
X56953644Y-86883100D01*
X56896580Y-86850154D01*
X56839517Y-86817208D01*
X56775869Y-86800154D01*
X56712222Y-86783100D01*
X56580438Y-86783100D01*
X56453142Y-86817208D01*
X56339016Y-86883100D01*
X56339013Y-86883102D01*
X56245832Y-86976283D01*
X56245830Y-86976286D01*
X56179938Y-87090412D01*
X56159826Y-87165474D01*
X56145830Y-87217708D01*
X55383900Y-87217708D01*
X55349792Y-87090414D01*
X55283900Y-86976286D01*
X55190714Y-86883100D01*
X55133650Y-86850154D01*
X55076587Y-86817208D01*
X55012939Y-86800154D01*
X54949292Y-86783100D01*
X54817508Y-86783100D01*
X54690212Y-86817208D01*
X54576086Y-86883100D01*
X54576083Y-86883102D01*
X54482902Y-86976283D01*
X54482900Y-86976286D01*
X54417008Y-87090412D01*
X54396896Y-87165474D01*
X54382900Y-87217708D01*
X52355106Y-87217708D01*
X52388300Y-87184514D01*
X52399293Y-87165474D01*
X52409625Y-87147580D01*
X52454190Y-87070389D01*
X52454192Y-87070386D01*
X52488300Y-86943092D01*
X52488300Y-86811308D01*
X52454192Y-86684014D01*
X52388300Y-86569886D01*
X52295114Y-86476700D01*
X52237066Y-86443186D01*
X52180987Y-86410808D01*
X52117339Y-86393754D01*
X52053692Y-86376700D01*
X51921908Y-86376700D01*
X51794612Y-86410808D01*
X51680486Y-86476700D01*
X51680483Y-86476702D01*
X51587302Y-86569883D01*
X51587300Y-86569886D01*
X51521408Y-86684012D01*
X51503593Y-86750500D01*
X51487300Y-86811308D01*
X48500500Y-86811308D01*
X48500500Y-86184108D01*
X88249500Y-86184108D01*
X88249500Y-86315892D01*
X88265793Y-86376700D01*
X88283608Y-86443187D01*
X88312205Y-86492718D01*
X88349500Y-86557314D01*
X88442686Y-86650500D01*
X88556814Y-86716392D01*
X88684108Y-86750500D01*
X88684110Y-86750500D01*
X88815890Y-86750500D01*
X88815892Y-86750500D01*
X88943186Y-86716392D01*
X89057314Y-86650500D01*
X89150500Y-86557314D01*
X89216392Y-86443186D01*
X89250500Y-86315892D01*
X89250500Y-86184108D01*
X89216392Y-86056814D01*
X89150500Y-85942686D01*
X89057314Y-85849500D01*
X89000250Y-85816554D01*
X88943187Y-85783608D01*
X88879539Y-85766554D01*
X88815892Y-85749500D01*
X88684108Y-85749500D01*
X88556812Y-85783608D01*
X88442686Y-85849500D01*
X88442683Y-85849502D01*
X88349502Y-85942683D01*
X88349500Y-85942686D01*
X88283608Y-86056812D01*
X88271607Y-86101602D01*
X88249500Y-86184108D01*
X48500500Y-86184108D01*
X48500500Y-84934108D01*
X89499500Y-84934108D01*
X89499500Y-85065891D01*
X89533608Y-85193187D01*
X89566554Y-85250250D01*
X89599500Y-85307314D01*
X89692686Y-85400500D01*
X89806814Y-85466392D01*
X89934108Y-85500500D01*
X89934110Y-85500500D01*
X90065890Y-85500500D01*
X90065892Y-85500500D01*
X90193186Y-85466392D01*
X90307314Y-85400500D01*
X90400500Y-85307314D01*
X90466392Y-85193186D01*
X90500500Y-85065892D01*
X90500500Y-84934108D01*
X90466392Y-84806814D01*
X90400500Y-84692686D01*
X90307314Y-84599500D01*
X90220710Y-84549499D01*
X90193187Y-84533608D01*
X90129539Y-84516554D01*
X90065892Y-84499500D01*
X89934108Y-84499500D01*
X89806812Y-84533608D01*
X89692686Y-84599500D01*
X89692683Y-84599502D01*
X89599502Y-84692683D01*
X89599500Y-84692686D01*
X89533608Y-84806812D01*
X89499500Y-84934108D01*
X48500500Y-84934108D01*
X48500500Y-83395530D01*
X51267500Y-83395530D01*
X51267500Y-83602469D01*
X51307868Y-83805412D01*
X51307870Y-83805420D01*
X51387058Y-83996596D01*
X51502024Y-84168657D01*
X51648342Y-84314975D01*
X51648345Y-84314977D01*
X51820402Y-84429941D01*
X52011580Y-84509130D01*
X52214530Y-84549499D01*
X52214534Y-84549500D01*
X52214535Y-84549500D01*
X52421466Y-84549500D01*
X52421467Y-84549499D01*
X52624420Y-84509130D01*
X52815598Y-84429941D01*
X52987655Y-84314977D01*
X53133977Y-84168655D01*
X53248941Y-83996598D01*
X53328130Y-83805420D01*
X53366821Y-83610908D01*
X73356700Y-83610908D01*
X73356700Y-83742691D01*
X73390808Y-83869987D01*
X73423754Y-83927050D01*
X73456700Y-83984114D01*
X73549886Y-84077300D01*
X73664014Y-84143192D01*
X73791308Y-84177300D01*
X73791310Y-84177300D01*
X73923090Y-84177300D01*
X73923092Y-84177300D01*
X74050386Y-84143192D01*
X74164514Y-84077300D01*
X74257700Y-83984114D01*
X74323592Y-83869986D01*
X74357700Y-83742692D01*
X74357700Y-83684108D01*
X90749500Y-83684108D01*
X90749500Y-83815891D01*
X90783608Y-83943187D01*
X90816554Y-84000250D01*
X90849500Y-84057314D01*
X90942686Y-84150500D01*
X91056814Y-84216392D01*
X91184108Y-84250500D01*
X91184110Y-84250500D01*
X91315890Y-84250500D01*
X91315892Y-84250500D01*
X91443186Y-84216392D01*
X91557314Y-84150500D01*
X91650500Y-84057314D01*
X91716392Y-83943186D01*
X91750500Y-83815892D01*
X91750500Y-83684108D01*
X91716392Y-83556814D01*
X91650500Y-83442686D01*
X91557314Y-83349500D01*
X91500250Y-83316554D01*
X91443187Y-83283608D01*
X91379539Y-83266554D01*
X91315892Y-83249500D01*
X91184108Y-83249500D01*
X91056812Y-83283608D01*
X90942686Y-83349500D01*
X90942683Y-83349502D01*
X90849502Y-83442683D01*
X90849500Y-83442686D01*
X90783608Y-83556812D01*
X90749500Y-83684108D01*
X74357700Y-83684108D01*
X74357700Y-83610908D01*
X74323592Y-83483614D01*
X74257700Y-83369486D01*
X74164514Y-83276300D01*
X74107450Y-83243354D01*
X74050387Y-83210408D01*
X73983847Y-83192579D01*
X73923092Y-83176300D01*
X73791308Y-83176300D01*
X73664012Y-83210408D01*
X73549886Y-83276300D01*
X73549883Y-83276302D01*
X73456702Y-83369483D01*
X73456700Y-83369486D01*
X73390808Y-83483612D01*
X73356700Y-83610908D01*
X53366821Y-83610908D01*
X53368500Y-83602465D01*
X53368500Y-83395535D01*
X53328130Y-83192580D01*
X53248941Y-83001402D01*
X53133977Y-82829345D01*
X53133975Y-82829342D01*
X52987657Y-82683024D01*
X52901626Y-82625541D01*
X52815598Y-82568059D01*
X52624420Y-82488870D01*
X52624412Y-82488868D01*
X52421469Y-82448500D01*
X52421465Y-82448500D01*
X52214535Y-82448500D01*
X52214530Y-82448500D01*
X52011587Y-82488868D01*
X52011579Y-82488870D01*
X51820403Y-82568058D01*
X51648342Y-82683024D01*
X51502024Y-82829342D01*
X51387058Y-83001403D01*
X51307870Y-83192579D01*
X51307868Y-83192587D01*
X51267500Y-83395530D01*
X48500500Y-83395530D01*
X48500500Y-82309108D01*
X92124500Y-82309108D01*
X92124500Y-82440891D01*
X92158608Y-82568187D01*
X92191554Y-82625250D01*
X92224500Y-82682314D01*
X92317686Y-82775500D01*
X92431814Y-82841392D01*
X92559108Y-82875500D01*
X92559110Y-82875500D01*
X92690890Y-82875500D01*
X92690892Y-82875500D01*
X92818186Y-82841392D01*
X92932314Y-82775500D01*
X93025500Y-82682314D01*
X93091392Y-82568186D01*
X93125500Y-82440892D01*
X93125500Y-82309108D01*
X93091392Y-82181814D01*
X93025500Y-82067686D01*
X92932314Y-81974500D01*
X92875250Y-81941554D01*
X92818187Y-81908608D01*
X92748519Y-81889941D01*
X92690892Y-81874500D01*
X92559108Y-81874500D01*
X92431812Y-81908608D01*
X92317686Y-81974500D01*
X92317683Y-81974502D01*
X92224502Y-82067683D01*
X92224500Y-82067686D01*
X92158608Y-82181812D01*
X92124500Y-82309108D01*
X48500500Y-82309108D01*
X48500500Y-80855530D01*
X51267500Y-80855530D01*
X51267500Y-81062469D01*
X51307868Y-81265412D01*
X51307870Y-81265420D01*
X51387058Y-81456596D01*
X51502024Y-81628657D01*
X51648342Y-81774975D01*
X51648345Y-81774977D01*
X51820402Y-81889941D01*
X52011580Y-81969130D01*
X52214530Y-82009499D01*
X52214534Y-82009500D01*
X52214535Y-82009500D01*
X52421466Y-82009500D01*
X52421467Y-82009499D01*
X52624420Y-81969130D01*
X52815598Y-81889941D01*
X52987655Y-81774977D01*
X53133977Y-81628655D01*
X53248941Y-81456598D01*
X53328130Y-81265420D01*
X53368500Y-81062465D01*
X53368500Y-80855535D01*
X53368499Y-80855530D01*
X53807500Y-80855530D01*
X53807500Y-81062469D01*
X53847868Y-81265412D01*
X53847870Y-81265420D01*
X53927058Y-81456596D01*
X54042024Y-81628657D01*
X54188342Y-81774975D01*
X54188345Y-81774977D01*
X54360402Y-81889941D01*
X54551580Y-81969130D01*
X54754530Y-82009499D01*
X54754534Y-82009500D01*
X54754535Y-82009500D01*
X54961466Y-82009500D01*
X54961467Y-82009499D01*
X55164420Y-81969130D01*
X55355598Y-81889941D01*
X55527655Y-81774977D01*
X55673977Y-81628655D01*
X55788941Y-81456598D01*
X55868130Y-81265420D01*
X55908500Y-81062465D01*
X55908500Y-80855535D01*
X55868130Y-80652580D01*
X55788941Y-80461402D01*
X55673977Y-80289345D01*
X55673975Y-80289342D01*
X55527657Y-80143024D01*
X55441626Y-80085541D01*
X55355598Y-80028059D01*
X55164420Y-79948870D01*
X55164412Y-79948868D01*
X54961469Y-79908500D01*
X54961465Y-79908500D01*
X54754535Y-79908500D01*
X54754530Y-79908500D01*
X54551587Y-79948868D01*
X54551579Y-79948870D01*
X54360403Y-80028058D01*
X54188342Y-80143024D01*
X54042024Y-80289342D01*
X53927058Y-80461403D01*
X53847870Y-80652579D01*
X53847868Y-80652587D01*
X53807500Y-80855530D01*
X53368499Y-80855530D01*
X53328130Y-80652580D01*
X53248941Y-80461402D01*
X53133977Y-80289345D01*
X53133975Y-80289342D01*
X52987657Y-80143024D01*
X52901626Y-80085541D01*
X52815598Y-80028059D01*
X52624420Y-79948870D01*
X52624412Y-79948868D01*
X52421469Y-79908500D01*
X52421465Y-79908500D01*
X52214535Y-79908500D01*
X52214530Y-79908500D01*
X52011587Y-79948868D01*
X52011579Y-79948870D01*
X51820403Y-80028058D01*
X51648342Y-80143024D01*
X51502024Y-80289342D01*
X51387058Y-80461403D01*
X51307870Y-80652579D01*
X51307868Y-80652587D01*
X51267500Y-80855530D01*
X48500500Y-80855530D01*
X48500500Y-77549247D01*
X51267500Y-77549247D01*
X51267500Y-79288752D01*
X51279131Y-79347229D01*
X51279132Y-79347230D01*
X51323447Y-79413552D01*
X51389769Y-79457867D01*
X51389770Y-79457868D01*
X51448247Y-79469499D01*
X51448250Y-79469500D01*
X51448252Y-79469500D01*
X53187750Y-79469500D01*
X53187751Y-79469499D01*
X53202568Y-79466552D01*
X53246229Y-79457868D01*
X53246229Y-79457867D01*
X53246231Y-79457867D01*
X53312552Y-79413552D01*
X53356867Y-79347231D01*
X53356867Y-79347229D01*
X53356868Y-79347229D01*
X53368499Y-79288752D01*
X53368500Y-79288750D01*
X53368500Y-78315530D01*
X53807500Y-78315530D01*
X53807500Y-78522469D01*
X53847868Y-78725412D01*
X53847870Y-78725420D01*
X53927058Y-78916596D01*
X54042024Y-79088657D01*
X54188342Y-79234975D01*
X54188345Y-79234977D01*
X54360402Y-79349941D01*
X54551580Y-79429130D01*
X54696052Y-79457867D01*
X54754530Y-79469499D01*
X54754534Y-79469500D01*
X54754535Y-79469500D01*
X54961466Y-79469500D01*
X54961467Y-79469499D01*
X55164420Y-79429130D01*
X55355598Y-79349941D01*
X55527655Y-79234977D01*
X55673977Y-79088655D01*
X55788941Y-78916598D01*
X55868130Y-78725420D01*
X55908500Y-78522465D01*
X55908500Y-78315535D01*
X55868130Y-78112580D01*
X55788941Y-77921402D01*
X55673977Y-77749345D01*
X55673975Y-77749342D01*
X55527657Y-77603024D01*
X55441626Y-77545541D01*
X55355598Y-77488059D01*
X55164420Y-77408870D01*
X55164412Y-77408868D01*
X54961469Y-77368500D01*
X54961465Y-77368500D01*
X54754535Y-77368500D01*
X54754530Y-77368500D01*
X54551587Y-77408868D01*
X54551579Y-77408870D01*
X54360403Y-77488058D01*
X54188342Y-77603024D01*
X54042024Y-77749342D01*
X53927058Y-77921403D01*
X53847870Y-78112579D01*
X53847868Y-78112587D01*
X53807500Y-78315530D01*
X53368500Y-78315530D01*
X53368500Y-77549249D01*
X53368499Y-77549247D01*
X53356868Y-77490770D01*
X53356867Y-77490769D01*
X53312552Y-77424447D01*
X53246230Y-77380132D01*
X53246229Y-77380131D01*
X53187752Y-77368500D01*
X53187748Y-77368500D01*
X51448252Y-77368500D01*
X51448247Y-77368500D01*
X51389770Y-77380131D01*
X51389769Y-77380132D01*
X51323447Y-77424447D01*
X51279132Y-77490769D01*
X51279131Y-77490770D01*
X51267500Y-77549247D01*
X48500500Y-77549247D01*
X48500500Y-74721632D01*
X88407000Y-74721632D01*
X88407000Y-76635868D01*
X88409749Y-76682013D01*
X88409749Y-76682017D01*
X88409750Y-76682018D01*
X88453407Y-76882711D01*
X88453409Y-76882718D01*
X88534260Y-77071521D01*
X88534263Y-77071527D01*
X88534266Y-77071531D01*
X88649382Y-77241618D01*
X88649390Y-77241627D01*
X88794622Y-77386859D01*
X88794631Y-77386867D01*
X88897349Y-77456387D01*
X88964723Y-77501987D01*
X88964728Y-77501989D01*
X89153531Y-77582840D01*
X89153538Y-77582842D01*
X89220435Y-77597394D01*
X89354237Y-77626501D01*
X89400382Y-77629250D01*
X89400393Y-77629250D01*
X91314607Y-77629250D01*
X91314618Y-77629250D01*
X91360763Y-77626501D01*
X91536454Y-77588281D01*
X91561461Y-77582842D01*
X91561468Y-77582840D01*
X91639914Y-77549247D01*
X91750277Y-77501987D01*
X91920375Y-77386862D01*
X92065612Y-77241625D01*
X92180737Y-77071527D01*
X92250336Y-76908999D01*
X92250337Y-76908997D01*
X93107000Y-76908997D01*
X93107000Y-80448502D01*
X93118631Y-80506979D01*
X93118632Y-80506980D01*
X93162947Y-80573302D01*
X93229269Y-80617617D01*
X93229270Y-80617618D01*
X93287747Y-80629249D01*
X93287750Y-80629250D01*
X93287752Y-80629250D01*
X96827250Y-80629250D01*
X96827251Y-80629249D01*
X96842068Y-80626302D01*
X96885729Y-80617618D01*
X96885729Y-80617617D01*
X96885731Y-80617617D01*
X96952052Y-80573302D01*
X96996367Y-80506981D01*
X96996367Y-80506979D01*
X96996368Y-80506979D01*
X97007999Y-80448502D01*
X97008000Y-80448500D01*
X97008000Y-76908999D01*
X97007999Y-76908997D01*
X96996368Y-76850520D01*
X96996367Y-76850519D01*
X96952052Y-76784197D01*
X96885730Y-76739882D01*
X96885729Y-76739881D01*
X96827252Y-76728250D01*
X96827248Y-76728250D01*
X93287752Y-76728250D01*
X93287747Y-76728250D01*
X93229270Y-76739881D01*
X93229269Y-76739882D01*
X93162947Y-76784197D01*
X93118632Y-76850519D01*
X93118631Y-76850520D01*
X93107000Y-76908997D01*
X92250337Y-76908997D01*
X92261590Y-76882718D01*
X92261590Y-76882717D01*
X92261591Y-76882715D01*
X92305251Y-76682013D01*
X92308000Y-76635868D01*
X92308000Y-74721632D01*
X92305251Y-74675487D01*
X92261591Y-74474785D01*
X92261590Y-74474781D01*
X92180739Y-74285978D01*
X92180737Y-74285973D01*
X92135137Y-74218599D01*
X92065617Y-74115881D01*
X92065609Y-74115872D01*
X91920377Y-73970640D01*
X91920368Y-73970632D01*
X91750281Y-73855516D01*
X91750277Y-73855513D01*
X91750273Y-73855511D01*
X91750271Y-73855510D01*
X91561468Y-73774659D01*
X91561461Y-73774657D01*
X91360768Y-73731000D01*
X91360767Y-73730999D01*
X91360763Y-73730999D01*
X91314618Y-73728250D01*
X89400382Y-73728250D01*
X89354237Y-73730999D01*
X89354232Y-73730999D01*
X89354231Y-73731000D01*
X89153538Y-73774657D01*
X89153531Y-73774659D01*
X88964728Y-73855510D01*
X88964718Y-73855516D01*
X88794631Y-73970632D01*
X88794622Y-73970640D01*
X88649390Y-74115872D01*
X88649382Y-74115881D01*
X88534266Y-74285968D01*
X88534260Y-74285978D01*
X88453409Y-74474781D01*
X88453407Y-74474788D01*
X88409750Y-74675481D01*
X88409749Y-74675487D01*
X88407000Y-74721632D01*
X48500500Y-74721632D01*
X48500500Y-70464672D01*
X52247900Y-70464672D01*
X52247900Y-70726927D01*
X52274523Y-70929139D01*
X52282130Y-70986916D01*
X52350002Y-71240218D01*
X52350005Y-71240228D01*
X52450353Y-71482490D01*
X52450358Y-71482500D01*
X52581475Y-71709603D01*
X52741118Y-71917651D01*
X52741126Y-71917660D01*
X52926540Y-72103074D01*
X52926548Y-72103081D01*
X53134596Y-72262724D01*
X53361699Y-72393841D01*
X53361709Y-72393846D01*
X53603971Y-72494194D01*
X53603981Y-72494198D01*
X53857284Y-72562070D01*
X54117280Y-72596300D01*
X54117287Y-72596300D01*
X54379513Y-72596300D01*
X54379520Y-72596300D01*
X54639516Y-72562070D01*
X54892819Y-72494198D01*
X55135097Y-72393843D01*
X55362203Y-72262724D01*
X55570251Y-72103082D01*
X55570255Y-72103077D01*
X55570260Y-72103074D01*
X55755674Y-71917660D01*
X55755677Y-71917655D01*
X55755682Y-71917651D01*
X55915324Y-71709603D01*
X56046443Y-71482497D01*
X56146798Y-71240219D01*
X56214670Y-70986916D01*
X56248900Y-70726920D01*
X56248900Y-70464680D01*
X56214670Y-70204684D01*
X56146798Y-69951381D01*
X56146794Y-69951371D01*
X56046446Y-69709109D01*
X56046441Y-69709099D01*
X55915324Y-69481996D01*
X55755681Y-69273948D01*
X55755674Y-69273940D01*
X55570260Y-69088526D01*
X55570251Y-69088518D01*
X55362203Y-68928875D01*
X55135100Y-68797758D01*
X55135090Y-68797753D01*
X54892828Y-68697405D01*
X54892821Y-68697403D01*
X54892819Y-68697402D01*
X54639516Y-68629530D01*
X54581739Y-68621923D01*
X54379527Y-68595300D01*
X54379520Y-68595300D01*
X54117280Y-68595300D01*
X54117272Y-68595300D01*
X53886172Y-68625726D01*
X53857284Y-68629530D01*
X53603981Y-68697402D01*
X53603971Y-68697405D01*
X53361709Y-68797753D01*
X53361699Y-68797758D01*
X53134596Y-68928875D01*
X52926548Y-69088518D01*
X52741118Y-69273948D01*
X52581475Y-69481996D01*
X52450358Y-69709099D01*
X52450353Y-69709109D01*
X52350005Y-69951371D01*
X52350002Y-69951381D01*
X52282130Y-70204685D01*
X52247900Y-70464672D01*
X48500500Y-70464672D01*
X48500500Y-65324500D01*
X48520185Y-65257461D01*
X48572989Y-65211706D01*
X48624500Y-65200500D01*
X84737844Y-65200500D01*
X84804883Y-65220185D01*
G37*
%TD.AperFunction*%
%TD*%
M02*
