%TF.GenerationSoftware,KiCad,Pcbnew,10.0.5-10.0.5~ubuntu24.04.1*%
%TF.CreationDate,2026-09-06T20:16:32-05:00*%
%TF.ProjectId,midi_glock_pcb,6d696469-5f67-46c6-9f63-6b5f7063622e,rev?*%
%TF.SameCoordinates,Original*%
%TF.FileFunction,Soldermask,Top*%
%TF.FilePolarity,Negative*%
%FSLAX46Y46*%
G04 Gerber Fmt 4.6, Leading zero omitted, Abs format (unit mm)*
G04 Created by KiCad (PCBNEW 10.0.5-10.0.5~ubuntu24.04.1) date 2026-09-06 20:16:32*
%MOMM*%
%LPD*%
G01*
G04 APERTURE LIST*
G04 Aperture macros list*
%AMRoundRect*
0 Rectangle with rounded corners*
0 $1 Rounding radius*
0 $2 $3 $4 $5 $6 $7 $8 $9 X,Y pos of 4 corners*
0 Add a 4 corners polygon primitive as box body*
4,1,4,$2,$3,$4,$5,$6,$7,$8,$9,$2,$3,0*
0 Add four circle primitives for the rounded corners*
1,1,$1+$1,$2,$3*
1,1,$1+$1,$4,$5*
1,1,$1+$1,$6,$7*
1,1,$1+$1,$8,$9*
0 Add four rect primitives between the rounded corners*
20,1,$1+$1,$2,$3,$4,$5,0*
20,1,$1+$1,$4,$5,$6,$7,0*
20,1,$1+$1,$6,$7,$8,$9,0*
20,1,$1+$1,$8,$9,$2,$3,0*%
G04 Aperture macros list end*
%ADD10C,0.000000*%
%ADD11RoundRect,0.237500X0.250000X0.237500X-0.250000X0.237500X-0.250000X-0.237500X0.250000X-0.237500X0*%
%ADD12RoundRect,0.237500X-0.237500X0.250000X-0.237500X-0.250000X0.237500X-0.250000X0.237500X0.250000X0*%
%ADD13RoundRect,0.237500X-0.300000X-0.237500X0.300000X-0.237500X0.300000X0.237500X-0.300000X0.237500X0*%
%ADD14R,0.449999X1.400000*%
%ADD15C,0.499999*%
%ADD16R,1.400000X1.600000*%
%ADD17RoundRect,0.237500X0.237500X-0.250000X0.237500X0.250000X-0.237500X0.250000X-0.237500X-0.250000X0*%
%ADD18C,3.600000*%
%ADD19C,5.600000*%
%ADD20RoundRect,0.237500X0.300000X0.237500X-0.300000X0.237500X-0.300000X-0.237500X0.300000X-0.237500X0*%
%ADD21RoundRect,0.250000X1.100000X-0.325000X1.100000X0.325000X-1.100000X0.325000X-1.100000X-0.325000X0*%
%ADD22RoundRect,0.250000X-0.337500X-0.475000X0.337500X-0.475000X0.337500X0.475000X-0.337500X0.475000X0*%
%ADD23RoundRect,0.102000X-0.875000X0.400000X-0.875000X-0.400000X0.875000X-0.400000X0.875000X0.400000X0*%
%ADD24RoundRect,0.050000X-0.875000X0.400000X-0.875000X-0.400000X0.875000X-0.400000X0.875000X0.400000X0*%
%ADD25RoundRect,0.050000X-0.750000X0.650000X-0.750000X-0.650000X0.750000X-0.650000X0.750000X0.650000X0*%
%ADD26RoundRect,0.102000X-0.750000X0.750000X-0.750000X-0.750000X0.750000X-0.750000X0.750000X0.750000X0*%
%ADD27RoundRect,0.102000X-0.750000X0.400000X-0.750000X-0.400000X0.750000X-0.400000X0.750000X0.400000X0*%
%ADD28RoundRect,0.102000X-0.700000X0.400000X-0.700000X-0.400000X0.700000X-0.400000X0.700000X0.400000X0*%
%ADD29RoundRect,0.102000X-0.775000X0.500000X-0.775000X-0.500000X0.775000X-0.500000X0.775000X0.500000X0*%
%ADD30RoundRect,0.102000X-0.500000X0.725000X-0.500000X-0.725000X0.500000X-0.725000X0.500000X0.725000X0*%
%ADD31RoundRect,0.250000X0.325000X0.650000X-0.325000X0.650000X-0.325000X-0.650000X0.325000X-0.650000X0*%
%ADD32RoundRect,0.250000X-0.325000X-0.650000X0.325000X-0.650000X0.325000X0.650000X-0.325000X0.650000X0*%
%ADD33RoundRect,0.102000X0.754000X-0.754000X0.754000X0.754000X-0.754000X0.754000X-0.754000X-0.754000X0*%
%ADD34C,1.712000*%
%ADD35RoundRect,0.250000X0.475000X-0.337500X0.475000X0.337500X-0.475000X0.337500X-0.475000X-0.337500X0*%
%ADD36RoundRect,0.250000X0.325000X0.450000X-0.325000X0.450000X-0.325000X-0.450000X0.325000X-0.450000X0*%
%ADD37RoundRect,0.250000X0.450000X-0.325000X0.450000X0.325000X-0.450000X0.325000X-0.450000X-0.325000X0*%
%ADD38R,3.500000X3.500000*%
%ADD39RoundRect,0.750000X-1.000000X0.750000X-1.000000X-0.750000X1.000000X-0.750000X1.000000X0.750000X0*%
%ADD40RoundRect,0.875000X-0.875000X0.875000X-0.875000X-0.875000X0.875000X-0.875000X0.875000X0.875000X0*%
%ADD41RoundRect,0.102000X-0.754000X0.754000X-0.754000X-0.754000X0.754000X-0.754000X0.754000X0.754000X0*%
%ADD42RoundRect,0.237500X-0.237500X0.300000X-0.237500X-0.300000X0.237500X-0.300000X0.237500X0.300000X0*%
%ADD43R,1.700000X1.700000*%
%ADD44C,1.700000*%
%ADD45RoundRect,0.150000X-0.512500X-0.150000X0.512500X-0.150000X0.512500X0.150000X-0.512500X0.150000X0*%
%ADD46RoundRect,0.250000X-0.475000X0.337500X-0.475000X-0.337500X0.475000X-0.337500X0.475000X0.337500X0*%
%ADD47RoundRect,0.250000X-1.100000X0.325000X-1.100000X-0.325000X1.100000X-0.325000X1.100000X0.325000X0*%
%ADD48RoundRect,0.102000X0.750000X1.200000X-0.750000X1.200000X-0.750000X-1.200000X0.750000X-1.200000X0*%
%ADD49C,3.000000*%
%ADD50RoundRect,0.237500X0.237500X-0.300000X0.237500X0.300000X-0.237500X0.300000X-0.237500X-0.300000X0*%
G04 APERTURE END LIST*
D10*
%TO.C,U2*%
G36*
X81922000Y-114638000D02*
G01*
X81922000Y-117498000D01*
X81872000Y-117548000D01*
X77951998Y-117548000D01*
X77901998Y-117498000D01*
X77901998Y-114638000D01*
X77951998Y-114588000D01*
X81872000Y-114588000D01*
X81922000Y-114638000D01*
G37*
%TO.C,U3*%
G36*
X70510001Y-129570000D02*
G01*
X70510001Y-132430000D01*
X70460001Y-132480000D01*
X66539999Y-132480000D01*
X66489999Y-132430000D01*
X66489999Y-129570000D01*
X66539999Y-129520000D01*
X70460001Y-129520000D01*
X70510001Y-129570000D01*
G37*
%TO.C,U1*%
G36*
X81910000Y-141070000D02*
G01*
X81910000Y-143930000D01*
X81860000Y-143980000D01*
X77939998Y-143980000D01*
X77889998Y-143930000D01*
X77889998Y-141070000D01*
X77939998Y-141020000D01*
X81860000Y-141020000D01*
X81910000Y-141070000D01*
G37*
%TD*%
D11*
%TO.C,R6*%
X64537500Y-100980000D03*
X62712500Y-100980000D03*
%TD*%
D12*
%TO.C,R9*%
X64891000Y-79778000D03*
X64891000Y-81603000D03*
%TD*%
D13*
%TO.C,C1*%
X64765100Y-122691200D03*
X66490100Y-122691200D03*
%TD*%
D14*
%TO.C,U2*%
X83486998Y-113118001D03*
X82836997Y-113118001D03*
X82186998Y-113118001D03*
X81536997Y-113118001D03*
X80886998Y-113118001D03*
X80236997Y-113118001D03*
X79586998Y-113118001D03*
X78936997Y-113118001D03*
X78286998Y-113118001D03*
X77636997Y-113118001D03*
X76986999Y-113118001D03*
X76336997Y-113118001D03*
X76336997Y-119018002D03*
X76986999Y-119018002D03*
X77636997Y-119018002D03*
X78286998Y-119018002D03*
X78936997Y-119018002D03*
X79586998Y-119018002D03*
X80236997Y-119018002D03*
X80886998Y-119018002D03*
X81536997Y-119018002D03*
X82186998Y-119018002D03*
X82836997Y-119018002D03*
X83486998Y-119018002D03*
D15*
X82912001Y-114868000D03*
X81712000Y-114868000D03*
X80512000Y-114868000D03*
X79311998Y-114868000D03*
X78111998Y-114868000D03*
X76911997Y-114868000D03*
X82912001Y-116068000D03*
X81712000Y-116068000D03*
X80512000Y-116068000D03*
X79311998Y-116068000D03*
X78111998Y-116068000D03*
X76911997Y-116068000D03*
X82912001Y-117268000D03*
X81712000Y-117268000D03*
X80512000Y-117268000D03*
X79311998Y-117268000D03*
X78111998Y-117268000D03*
X76911997Y-117268000D03*
%TD*%
D13*
%TO.C,C18*%
X79300000Y-84600000D03*
X81025000Y-84600000D03*
%TD*%
D11*
%TO.C,R5*%
X64537500Y-102980000D03*
X62712500Y-102980000D03*
%TD*%
D16*
%TO.C,BOOT_SW1*%
X77250000Y-66799000D03*
X77250000Y-74799000D03*
X72750000Y-66799000D03*
X72750000Y-74799000D03*
%TD*%
D17*
%TO.C,R12*%
X72014000Y-84819000D03*
X72014000Y-82994000D03*
%TD*%
D14*
%TO.C,U3*%
X64925001Y-133949999D03*
X65575002Y-133949999D03*
X66225001Y-133949999D03*
X66875002Y-133949999D03*
X67525001Y-133949999D03*
X68175002Y-133949999D03*
X68825001Y-133949999D03*
X69475002Y-133949999D03*
X70125001Y-133949999D03*
X70775002Y-133949999D03*
X71425000Y-133949999D03*
X72075002Y-133949999D03*
X72075002Y-128049998D03*
X71425000Y-128049998D03*
X70775002Y-128049998D03*
X70125001Y-128049998D03*
X69475002Y-128049998D03*
X68825001Y-128049998D03*
X68175002Y-128049998D03*
X67525001Y-128049998D03*
X66875002Y-128049998D03*
X66225001Y-128049998D03*
X65575002Y-128049998D03*
X64925001Y-128049998D03*
D15*
X65499998Y-132200000D03*
X66699999Y-132200000D03*
X67899999Y-132200000D03*
X69100001Y-132200000D03*
X70300001Y-132200000D03*
X71500002Y-132200000D03*
X65499998Y-131000000D03*
X66699999Y-131000000D03*
X67899999Y-131000000D03*
X69100001Y-131000000D03*
X70300001Y-131000000D03*
X71500002Y-131000000D03*
X65499998Y-129800000D03*
X66699999Y-129800000D03*
X67899999Y-129800000D03*
X69100001Y-129800000D03*
X70300001Y-129800000D03*
X71500002Y-129800000D03*
%TD*%
D18*
%TO.C,REF\u002A\u002A*%
X54248400Y-70595800D03*
D19*
X54248400Y-70595800D03*
%TD*%
D20*
%TO.C,C2*%
X72027300Y-122500000D03*
X70302300Y-122500000D03*
%TD*%
D21*
%TO.C,C17*%
X84250000Y-88758600D03*
X84250000Y-85808600D03*
%TD*%
D22*
%TO.C,C8*%
X79576100Y-150123200D03*
X81651100Y-150123200D03*
%TD*%
D17*
%TO.C,R1*%
X66008600Y-116315800D03*
X66008600Y-114490800D03*
%TD*%
D23*
%TO.C,J6*%
X49625600Y-106493800D03*
X49625600Y-105393800D03*
X49625600Y-104293800D03*
X49625600Y-103193800D03*
X49625600Y-102093800D03*
X49625600Y-100993800D03*
X49625600Y-99893800D03*
D24*
X49625600Y-98793800D03*
D25*
X49750600Y-97593800D03*
D26*
X49750600Y-108943800D03*
D27*
X57350600Y-97343800D03*
D28*
X58000600Y-109293800D03*
D29*
X60425600Y-108893800D03*
D30*
X58850600Y-97668800D03*
%TD*%
D11*
%TO.C,R4*%
X64537500Y-105000000D03*
X62712500Y-105000000D03*
%TD*%
D12*
%TO.C,R10*%
X63160000Y-79778000D03*
X63160000Y-81603000D03*
%TD*%
D11*
%TO.C,R11*%
X69867500Y-89468000D03*
X68042500Y-89468000D03*
%TD*%
D31*
%TO.C,C12*%
X84505500Y-122742000D03*
X81555500Y-122742000D03*
%TD*%
D32*
%TO.C,C22*%
X75481000Y-122335600D03*
X78431000Y-122335600D03*
%TD*%
D31*
%TO.C,C20*%
X85137700Y-136051600D03*
X82187700Y-136051600D03*
%TD*%
D11*
%TO.C,R7*%
X64537500Y-98900000D03*
X62712500Y-98900000D03*
%TD*%
D33*
%TO.C,J2*%
X95022467Y-94481728D03*
D34*
X90022467Y-96981728D03*
X95022467Y-99481728D03*
X90022467Y-101981728D03*
X95022467Y-104481728D03*
X90022467Y-106981728D03*
X95022467Y-109481728D03*
X90022467Y-111981728D03*
X95022467Y-114481728D03*
X90022467Y-116981728D03*
X95022467Y-119481728D03*
X90022467Y-121981728D03*
X95022467Y-124481728D03*
X90022467Y-126981728D03*
X95022467Y-129481728D03*
X90022467Y-131981728D03*
X95022467Y-134481728D03*
X90022467Y-136981728D03*
X95022467Y-139481728D03*
X90022467Y-141981728D03*
X95022467Y-144481728D03*
X90022467Y-146981728D03*
X95022467Y-149481728D03*
X90022467Y-151981728D03*
%TD*%
D35*
%TO.C,C16*%
X58800000Y-90742500D03*
X58800000Y-88667500D03*
%TD*%
D21*
%TO.C,C19*%
X76250000Y-88758600D03*
X76250000Y-85808600D03*
%TD*%
D36*
%TO.C,D3*%
X69971000Y-91423800D03*
X67921000Y-91423800D03*
%TD*%
D16*
%TO.C,RESET_SW1*%
X61534000Y-74482000D03*
X61534000Y-66482000D03*
X66034000Y-74482000D03*
X66034000Y-66482000D03*
%TD*%
D14*
%TO.C,U1*%
X76325000Y-145449999D03*
X76975001Y-145449999D03*
X77625000Y-145449999D03*
X78275001Y-145449999D03*
X78925000Y-145449999D03*
X79575001Y-145449999D03*
X80225000Y-145449999D03*
X80875001Y-145449999D03*
X81525000Y-145449999D03*
X82175001Y-145449999D03*
X82824999Y-145449999D03*
X83475001Y-145449999D03*
X83475001Y-139549998D03*
X82824999Y-139549998D03*
X82175001Y-139549998D03*
X81525000Y-139549998D03*
X80875001Y-139549998D03*
X80225000Y-139549998D03*
X79575001Y-139549998D03*
X78925000Y-139549998D03*
X78275001Y-139549998D03*
X77625000Y-139549998D03*
X76975001Y-139549998D03*
X76325000Y-139549998D03*
D15*
X76899997Y-143700000D03*
X78099998Y-143700000D03*
X79299998Y-143700000D03*
X80500000Y-143700000D03*
X81700000Y-143700000D03*
X82900001Y-143700000D03*
X76899997Y-142500000D03*
X78099998Y-142500000D03*
X79299998Y-142500000D03*
X80500000Y-142500000D03*
X81700000Y-142500000D03*
X82900001Y-142500000D03*
X76899997Y-141300000D03*
X78099998Y-141300000D03*
X79299998Y-141300000D03*
X80500000Y-141300000D03*
X81700000Y-141300000D03*
X82900001Y-141300000D03*
%TD*%
D20*
%TO.C,C5*%
X83838300Y-124750000D03*
X82113300Y-124750000D03*
%TD*%
D37*
%TO.C,D1*%
X65145000Y-85540000D03*
X65145000Y-83490000D03*
%TD*%
D38*
%TO.C,J3*%
X95057500Y-78678750D03*
D39*
X95057500Y-72678750D03*
D40*
X90357500Y-75678750D03*
%TD*%
D41*
%TO.C,J1*%
X53000000Y-126000000D03*
D34*
X53000000Y-128500000D03*
X53000000Y-131000000D03*
X53000000Y-133500000D03*
X53000000Y-136000000D03*
X53000000Y-138500000D03*
X53000000Y-141000000D03*
X53000000Y-143500000D03*
X53000000Y-146000000D03*
X53000000Y-148500000D03*
X53000000Y-151000000D03*
X53000000Y-153500000D03*
%TD*%
D12*
%TO.C,R2*%
X61000000Y-88837500D03*
X61000000Y-90662500D03*
%TD*%
D42*
%TO.C,C15*%
X54908800Y-88834100D03*
X54908800Y-90559100D03*
%TD*%
D37*
%TO.C,D2*%
X62884000Y-85540000D03*
X62884000Y-83490000D03*
%TD*%
D12*
%TO.C,R8*%
X56600000Y-88787500D03*
X56600000Y-90612500D03*
%TD*%
D32*
%TO.C,C11*%
X75074600Y-136102400D03*
X78024600Y-136102400D03*
%TD*%
D13*
%TO.C,C3*%
X76271300Y-134000000D03*
X77996300Y-134000000D03*
%TD*%
D43*
%TO.C,J4*%
X52318000Y-78419000D03*
D44*
X54858000Y-78419000D03*
X52318000Y-80959000D03*
X54858000Y-80959000D03*
X52318000Y-83499000D03*
X54858000Y-83499000D03*
%TD*%
D18*
%TO.C,REF\u002A\u002A*%
X95500000Y-88000000D03*
D19*
X95500000Y-88000000D03*
%TD*%
D45*
%TO.C,U4*%
X79112500Y-86600000D03*
X79112500Y-87550000D03*
X79112500Y-88500000D03*
X81387500Y-88500000D03*
X81387500Y-87550000D03*
X81387500Y-86600000D03*
%TD*%
D20*
%TO.C,C4*%
X84271200Y-134019600D03*
X82546200Y-134019600D03*
%TD*%
D46*
%TO.C,C9*%
X80207200Y-107886900D03*
X80207200Y-109961900D03*
%TD*%
D47*
%TO.C,C13*%
X52216400Y-88225500D03*
X52216400Y-91175500D03*
%TD*%
D13*
%TO.C,C6*%
X76704200Y-124367600D03*
X78429200Y-124367600D03*
%TD*%
D18*
%TO.C,REF\u002A\u002A*%
X70750000Y-150000000D03*
D19*
X70750000Y-150000000D03*
%TD*%
D48*
%TO.C,L1*%
X81050000Y-92100000D03*
X77350000Y-92100000D03*
%TD*%
D11*
%TO.C,R3*%
X64537500Y-107000000D03*
X62712500Y-107000000D03*
%TD*%
D49*
%TO.C,J5*%
X86857500Y-67278750D03*
%TD*%
D32*
%TO.C,C10*%
X63902500Y-124621600D03*
X66852500Y-124621600D03*
%TD*%
D43*
%TO.C,J7*%
X50500000Y-117250000D03*
D44*
X53040000Y-117250000D03*
X55580000Y-117250000D03*
X58120000Y-117250000D03*
%TD*%
D50*
%TO.C,C14*%
X70272000Y-84769000D03*
X70272000Y-83044000D03*
%TD*%
D31*
%TO.C,C21*%
X72610500Y-124500000D03*
X69660500Y-124500000D03*
%TD*%
D22*
%TO.C,C7*%
X66012500Y-138896400D03*
X68087500Y-138896400D03*
%TD*%
M02*
