%TF.GenerationSoftware,KiCad,Pcbnew,10.0.5-10.0.5~ubuntu24.04.1*%
%TF.CreationDate,2026-09-06T20:16:32-05:00*%
%TF.ProjectId,midi_glock_pcb,6d696469-5f67-46c6-9f63-6b5f7063622e,rev?*%
%TF.SameCoordinates,Original*%
%TF.FileFunction,Legend,Top*%
%TF.FilePolarity,Positive*%
%FSLAX46Y46*%
G04 Gerber Fmt 4.6, Leading zero omitted, Abs format (unit mm)*
G04 Created by KiCad (PCBNEW 10.0.5-10.0.5~ubuntu24.04.1) date 2026-09-06 20:16:32*
%MOMM*%
%LPD*%
G01*
G04 APERTURE LIST*
%ADD10C,0.150000*%
%ADD11C,0.120000*%
%ADD12C,0.127000*%
%ADD13C,0.200000*%
G04 APERTURE END LIST*
D10*
X66248333Y-101400819D02*
X65915000Y-100924628D01*
X65676905Y-101400819D02*
X65676905Y-100400819D01*
X65676905Y-100400819D02*
X66057857Y-100400819D01*
X66057857Y-100400819D02*
X66153095Y-100448438D01*
X66153095Y-100448438D02*
X66200714Y-100496057D01*
X66200714Y-100496057D02*
X66248333Y-100591295D01*
X66248333Y-100591295D02*
X66248333Y-100734152D01*
X66248333Y-100734152D02*
X66200714Y-100829390D01*
X66200714Y-100829390D02*
X66153095Y-100877009D01*
X66153095Y-100877009D02*
X66057857Y-100924628D01*
X66057857Y-100924628D02*
X65676905Y-100924628D01*
X67105476Y-100400819D02*
X66915000Y-100400819D01*
X66915000Y-100400819D02*
X66819762Y-100448438D01*
X66819762Y-100448438D02*
X66772143Y-100496057D01*
X66772143Y-100496057D02*
X66676905Y-100638914D01*
X66676905Y-100638914D02*
X66629286Y-100829390D01*
X66629286Y-100829390D02*
X66629286Y-101210342D01*
X66629286Y-101210342D02*
X66676905Y-101305580D01*
X66676905Y-101305580D02*
X66724524Y-101353200D01*
X66724524Y-101353200D02*
X66819762Y-101400819D01*
X66819762Y-101400819D02*
X67010238Y-101400819D01*
X67010238Y-101400819D02*
X67105476Y-101353200D01*
X67105476Y-101353200D02*
X67153095Y-101305580D01*
X67153095Y-101305580D02*
X67200714Y-101210342D01*
X67200714Y-101210342D02*
X67200714Y-100972247D01*
X67200714Y-100972247D02*
X67153095Y-100877009D01*
X67153095Y-100877009D02*
X67105476Y-100829390D01*
X67105476Y-100829390D02*
X67010238Y-100781771D01*
X67010238Y-100781771D02*
X66819762Y-100781771D01*
X66819762Y-100781771D02*
X66724524Y-100829390D01*
X66724524Y-100829390D02*
X66676905Y-100877009D01*
X66676905Y-100877009D02*
X66629286Y-100972247D01*
X60914333Y-80290819D02*
X60581000Y-79814628D01*
X60342905Y-80290819D02*
X60342905Y-79290819D01*
X60342905Y-79290819D02*
X60723857Y-79290819D01*
X60723857Y-79290819D02*
X60819095Y-79338438D01*
X60819095Y-79338438D02*
X60866714Y-79386057D01*
X60866714Y-79386057D02*
X60914333Y-79481295D01*
X60914333Y-79481295D02*
X60914333Y-79624152D01*
X60914333Y-79624152D02*
X60866714Y-79719390D01*
X60866714Y-79719390D02*
X60819095Y-79767009D01*
X60819095Y-79767009D02*
X60723857Y-79814628D01*
X60723857Y-79814628D02*
X60342905Y-79814628D01*
X61390524Y-80290819D02*
X61581000Y-80290819D01*
X61581000Y-80290819D02*
X61676238Y-80243200D01*
X61676238Y-80243200D02*
X61723857Y-80195580D01*
X61723857Y-80195580D02*
X61819095Y-80052723D01*
X61819095Y-80052723D02*
X61866714Y-79862247D01*
X61866714Y-79862247D02*
X61866714Y-79481295D01*
X61866714Y-79481295D02*
X61819095Y-79386057D01*
X61819095Y-79386057D02*
X61771476Y-79338438D01*
X61771476Y-79338438D02*
X61676238Y-79290819D01*
X61676238Y-79290819D02*
X61485762Y-79290819D01*
X61485762Y-79290819D02*
X61390524Y-79338438D01*
X61390524Y-79338438D02*
X61342905Y-79386057D01*
X61342905Y-79386057D02*
X61295286Y-79481295D01*
X61295286Y-79481295D02*
X61295286Y-79719390D01*
X61295286Y-79719390D02*
X61342905Y-79814628D01*
X61342905Y-79814628D02*
X61390524Y-79862247D01*
X61390524Y-79862247D02*
X61485762Y-79909866D01*
X61485762Y-79909866D02*
X61676238Y-79909866D01*
X61676238Y-79909866D02*
X61771476Y-79862247D01*
X61771476Y-79862247D02*
X61819095Y-79814628D01*
X61819095Y-79814628D02*
X61866714Y-79719390D01*
X64733333Y-119959580D02*
X64685714Y-120007200D01*
X64685714Y-120007200D02*
X64542857Y-120054819D01*
X64542857Y-120054819D02*
X64447619Y-120054819D01*
X64447619Y-120054819D02*
X64304762Y-120007200D01*
X64304762Y-120007200D02*
X64209524Y-119911961D01*
X64209524Y-119911961D02*
X64161905Y-119816723D01*
X64161905Y-119816723D02*
X64114286Y-119626247D01*
X64114286Y-119626247D02*
X64114286Y-119483390D01*
X64114286Y-119483390D02*
X64161905Y-119292914D01*
X64161905Y-119292914D02*
X64209524Y-119197676D01*
X64209524Y-119197676D02*
X64304762Y-119102438D01*
X64304762Y-119102438D02*
X64447619Y-119054819D01*
X64447619Y-119054819D02*
X64542857Y-119054819D01*
X64542857Y-119054819D02*
X64685714Y-119102438D01*
X64685714Y-119102438D02*
X64733333Y-119150057D01*
X65685714Y-120054819D02*
X65114286Y-120054819D01*
X65400000Y-120054819D02*
X65400000Y-119054819D01*
X65400000Y-119054819D02*
X65304762Y-119197676D01*
X65304762Y-119197676D02*
X65209524Y-119292914D01*
X65209524Y-119292914D02*
X65114286Y-119340533D01*
X84166819Y-113779904D02*
X84976342Y-113779904D01*
X84976342Y-113779904D02*
X85071580Y-113732285D01*
X85071580Y-113732285D02*
X85119200Y-113684666D01*
X85119200Y-113684666D02*
X85166819Y-113589428D01*
X85166819Y-113589428D02*
X85166819Y-113398952D01*
X85166819Y-113398952D02*
X85119200Y-113303714D01*
X85119200Y-113303714D02*
X85071580Y-113256095D01*
X85071580Y-113256095D02*
X84976342Y-113208476D01*
X84976342Y-113208476D02*
X84166819Y-113208476D01*
X84262057Y-112779904D02*
X84214438Y-112732285D01*
X84214438Y-112732285D02*
X84166819Y-112637047D01*
X84166819Y-112637047D02*
X84166819Y-112398952D01*
X84166819Y-112398952D02*
X84214438Y-112303714D01*
X84214438Y-112303714D02*
X84262057Y-112256095D01*
X84262057Y-112256095D02*
X84357295Y-112208476D01*
X84357295Y-112208476D02*
X84452533Y-112208476D01*
X84452533Y-112208476D02*
X84595390Y-112256095D01*
X84595390Y-112256095D02*
X85166819Y-112827523D01*
X85166819Y-112827523D02*
X85166819Y-112208476D01*
X79519642Y-83529580D02*
X79472023Y-83577200D01*
X79472023Y-83577200D02*
X79329166Y-83624819D01*
X79329166Y-83624819D02*
X79233928Y-83624819D01*
X79233928Y-83624819D02*
X79091071Y-83577200D01*
X79091071Y-83577200D02*
X78995833Y-83481961D01*
X78995833Y-83481961D02*
X78948214Y-83386723D01*
X78948214Y-83386723D02*
X78900595Y-83196247D01*
X78900595Y-83196247D02*
X78900595Y-83053390D01*
X78900595Y-83053390D02*
X78948214Y-82862914D01*
X78948214Y-82862914D02*
X78995833Y-82767676D01*
X78995833Y-82767676D02*
X79091071Y-82672438D01*
X79091071Y-82672438D02*
X79233928Y-82624819D01*
X79233928Y-82624819D02*
X79329166Y-82624819D01*
X79329166Y-82624819D02*
X79472023Y-82672438D01*
X79472023Y-82672438D02*
X79519642Y-82720057D01*
X80472023Y-83624819D02*
X79900595Y-83624819D01*
X80186309Y-83624819D02*
X80186309Y-82624819D01*
X80186309Y-82624819D02*
X80091071Y-82767676D01*
X80091071Y-82767676D02*
X79995833Y-82862914D01*
X79995833Y-82862914D02*
X79900595Y-82910533D01*
X81043452Y-83053390D02*
X80948214Y-83005771D01*
X80948214Y-83005771D02*
X80900595Y-82958152D01*
X80900595Y-82958152D02*
X80852976Y-82862914D01*
X80852976Y-82862914D02*
X80852976Y-82815295D01*
X80852976Y-82815295D02*
X80900595Y-82720057D01*
X80900595Y-82720057D02*
X80948214Y-82672438D01*
X80948214Y-82672438D02*
X81043452Y-82624819D01*
X81043452Y-82624819D02*
X81233928Y-82624819D01*
X81233928Y-82624819D02*
X81329166Y-82672438D01*
X81329166Y-82672438D02*
X81376785Y-82720057D01*
X81376785Y-82720057D02*
X81424404Y-82815295D01*
X81424404Y-82815295D02*
X81424404Y-82862914D01*
X81424404Y-82862914D02*
X81376785Y-82958152D01*
X81376785Y-82958152D02*
X81329166Y-83005771D01*
X81329166Y-83005771D02*
X81233928Y-83053390D01*
X81233928Y-83053390D02*
X81043452Y-83053390D01*
X81043452Y-83053390D02*
X80948214Y-83101009D01*
X80948214Y-83101009D02*
X80900595Y-83148628D01*
X80900595Y-83148628D02*
X80852976Y-83243866D01*
X80852976Y-83243866D02*
X80852976Y-83434342D01*
X80852976Y-83434342D02*
X80900595Y-83529580D01*
X80900595Y-83529580D02*
X80948214Y-83577200D01*
X80948214Y-83577200D02*
X81043452Y-83624819D01*
X81043452Y-83624819D02*
X81233928Y-83624819D01*
X81233928Y-83624819D02*
X81329166Y-83577200D01*
X81329166Y-83577200D02*
X81376785Y-83529580D01*
X81376785Y-83529580D02*
X81424404Y-83434342D01*
X81424404Y-83434342D02*
X81424404Y-83243866D01*
X81424404Y-83243866D02*
X81376785Y-83148628D01*
X81376785Y-83148628D02*
X81329166Y-83101009D01*
X81329166Y-83101009D02*
X81233928Y-83053390D01*
X66248333Y-103400819D02*
X65915000Y-102924628D01*
X65676905Y-103400819D02*
X65676905Y-102400819D01*
X65676905Y-102400819D02*
X66057857Y-102400819D01*
X66057857Y-102400819D02*
X66153095Y-102448438D01*
X66153095Y-102448438D02*
X66200714Y-102496057D01*
X66200714Y-102496057D02*
X66248333Y-102591295D01*
X66248333Y-102591295D02*
X66248333Y-102734152D01*
X66248333Y-102734152D02*
X66200714Y-102829390D01*
X66200714Y-102829390D02*
X66153095Y-102877009D01*
X66153095Y-102877009D02*
X66057857Y-102924628D01*
X66057857Y-102924628D02*
X65676905Y-102924628D01*
X67153095Y-102400819D02*
X66676905Y-102400819D01*
X66676905Y-102400819D02*
X66629286Y-102877009D01*
X66629286Y-102877009D02*
X66676905Y-102829390D01*
X66676905Y-102829390D02*
X66772143Y-102781771D01*
X66772143Y-102781771D02*
X67010238Y-102781771D01*
X67010238Y-102781771D02*
X67105476Y-102829390D01*
X67105476Y-102829390D02*
X67153095Y-102877009D01*
X67153095Y-102877009D02*
X67200714Y-102972247D01*
X67200714Y-102972247D02*
X67200714Y-103210342D01*
X67200714Y-103210342D02*
X67153095Y-103305580D01*
X67153095Y-103305580D02*
X67105476Y-103353200D01*
X67105476Y-103353200D02*
X67010238Y-103400819D01*
X67010238Y-103400819D02*
X66772143Y-103400819D01*
X66772143Y-103400819D02*
X66676905Y-103353200D01*
X66676905Y-103353200D02*
X66629286Y-103305580D01*
X72238095Y-76730009D02*
X72380952Y-76777628D01*
X72380952Y-76777628D02*
X72428571Y-76825247D01*
X72428571Y-76825247D02*
X72476190Y-76920485D01*
X72476190Y-76920485D02*
X72476190Y-77063342D01*
X72476190Y-77063342D02*
X72428571Y-77158580D01*
X72428571Y-77158580D02*
X72380952Y-77206200D01*
X72380952Y-77206200D02*
X72285714Y-77253819D01*
X72285714Y-77253819D02*
X71904762Y-77253819D01*
X71904762Y-77253819D02*
X71904762Y-76253819D01*
X71904762Y-76253819D02*
X72238095Y-76253819D01*
X72238095Y-76253819D02*
X72333333Y-76301438D01*
X72333333Y-76301438D02*
X72380952Y-76349057D01*
X72380952Y-76349057D02*
X72428571Y-76444295D01*
X72428571Y-76444295D02*
X72428571Y-76539533D01*
X72428571Y-76539533D02*
X72380952Y-76634771D01*
X72380952Y-76634771D02*
X72333333Y-76682390D01*
X72333333Y-76682390D02*
X72238095Y-76730009D01*
X72238095Y-76730009D02*
X71904762Y-76730009D01*
X73095238Y-76253819D02*
X73285714Y-76253819D01*
X73285714Y-76253819D02*
X73380952Y-76301438D01*
X73380952Y-76301438D02*
X73476190Y-76396676D01*
X73476190Y-76396676D02*
X73523809Y-76587152D01*
X73523809Y-76587152D02*
X73523809Y-76920485D01*
X73523809Y-76920485D02*
X73476190Y-77110961D01*
X73476190Y-77110961D02*
X73380952Y-77206200D01*
X73380952Y-77206200D02*
X73285714Y-77253819D01*
X73285714Y-77253819D02*
X73095238Y-77253819D01*
X73095238Y-77253819D02*
X73000000Y-77206200D01*
X73000000Y-77206200D02*
X72904762Y-77110961D01*
X72904762Y-77110961D02*
X72857143Y-76920485D01*
X72857143Y-76920485D02*
X72857143Y-76587152D01*
X72857143Y-76587152D02*
X72904762Y-76396676D01*
X72904762Y-76396676D02*
X73000000Y-76301438D01*
X73000000Y-76301438D02*
X73095238Y-76253819D01*
X74142857Y-76253819D02*
X74333333Y-76253819D01*
X74333333Y-76253819D02*
X74428571Y-76301438D01*
X74428571Y-76301438D02*
X74523809Y-76396676D01*
X74523809Y-76396676D02*
X74571428Y-76587152D01*
X74571428Y-76587152D02*
X74571428Y-76920485D01*
X74571428Y-76920485D02*
X74523809Y-77110961D01*
X74523809Y-77110961D02*
X74428571Y-77206200D01*
X74428571Y-77206200D02*
X74333333Y-77253819D01*
X74333333Y-77253819D02*
X74142857Y-77253819D01*
X74142857Y-77253819D02*
X74047619Y-77206200D01*
X74047619Y-77206200D02*
X73952381Y-77110961D01*
X73952381Y-77110961D02*
X73904762Y-76920485D01*
X73904762Y-76920485D02*
X73904762Y-76587152D01*
X73904762Y-76587152D02*
X73952381Y-76396676D01*
X73952381Y-76396676D02*
X74047619Y-76301438D01*
X74047619Y-76301438D02*
X74142857Y-76253819D01*
X74857143Y-76253819D02*
X75428571Y-76253819D01*
X75142857Y-77253819D02*
X75142857Y-76253819D01*
X75523810Y-77349057D02*
X76285714Y-77349057D01*
X76476191Y-77206200D02*
X76619048Y-77253819D01*
X76619048Y-77253819D02*
X76857143Y-77253819D01*
X76857143Y-77253819D02*
X76952381Y-77206200D01*
X76952381Y-77206200D02*
X77000000Y-77158580D01*
X77000000Y-77158580D02*
X77047619Y-77063342D01*
X77047619Y-77063342D02*
X77047619Y-76968104D01*
X77047619Y-76968104D02*
X77000000Y-76872866D01*
X77000000Y-76872866D02*
X76952381Y-76825247D01*
X76952381Y-76825247D02*
X76857143Y-76777628D01*
X76857143Y-76777628D02*
X76666667Y-76730009D01*
X76666667Y-76730009D02*
X76571429Y-76682390D01*
X76571429Y-76682390D02*
X76523810Y-76634771D01*
X76523810Y-76634771D02*
X76476191Y-76539533D01*
X76476191Y-76539533D02*
X76476191Y-76444295D01*
X76476191Y-76444295D02*
X76523810Y-76349057D01*
X76523810Y-76349057D02*
X76571429Y-76301438D01*
X76571429Y-76301438D02*
X76666667Y-76253819D01*
X76666667Y-76253819D02*
X76904762Y-76253819D01*
X76904762Y-76253819D02*
X77047619Y-76301438D01*
X77380953Y-76253819D02*
X77619048Y-77253819D01*
X77619048Y-77253819D02*
X77809524Y-76539533D01*
X77809524Y-76539533D02*
X78000000Y-77253819D01*
X78000000Y-77253819D02*
X78238096Y-76253819D01*
X79142857Y-77253819D02*
X78571429Y-77253819D01*
X78857143Y-77253819D02*
X78857143Y-76253819D01*
X78857143Y-76253819D02*
X78761905Y-76396676D01*
X78761905Y-76396676D02*
X78666667Y-76491914D01*
X78666667Y-76491914D02*
X78571429Y-76539533D01*
X72468819Y-81324357D02*
X71992628Y-81657690D01*
X72468819Y-81895785D02*
X71468819Y-81895785D01*
X71468819Y-81895785D02*
X71468819Y-81514833D01*
X71468819Y-81514833D02*
X71516438Y-81419595D01*
X71516438Y-81419595D02*
X71564057Y-81371976D01*
X71564057Y-81371976D02*
X71659295Y-81324357D01*
X71659295Y-81324357D02*
X71802152Y-81324357D01*
X71802152Y-81324357D02*
X71897390Y-81371976D01*
X71897390Y-81371976D02*
X71945009Y-81419595D01*
X71945009Y-81419595D02*
X71992628Y-81514833D01*
X71992628Y-81514833D02*
X71992628Y-81895785D01*
X72468819Y-80371976D02*
X72468819Y-80943404D01*
X72468819Y-80657690D02*
X71468819Y-80657690D01*
X71468819Y-80657690D02*
X71611676Y-80752928D01*
X71611676Y-80752928D02*
X71706914Y-80848166D01*
X71706914Y-80848166D02*
X71754533Y-80943404D01*
X71564057Y-79991023D02*
X71516438Y-79943404D01*
X71516438Y-79943404D02*
X71468819Y-79848166D01*
X71468819Y-79848166D02*
X71468819Y-79610071D01*
X71468819Y-79610071D02*
X71516438Y-79514833D01*
X71516438Y-79514833D02*
X71564057Y-79467214D01*
X71564057Y-79467214D02*
X71659295Y-79419595D01*
X71659295Y-79419595D02*
X71754533Y-79419595D01*
X71754533Y-79419595D02*
X71897390Y-79467214D01*
X71897390Y-79467214D02*
X72468819Y-80038642D01*
X72468819Y-80038642D02*
X72468819Y-79419595D01*
X63104818Y-134761904D02*
X63914341Y-134761904D01*
X63914341Y-134761904D02*
X64009579Y-134714285D01*
X64009579Y-134714285D02*
X64057199Y-134666666D01*
X64057199Y-134666666D02*
X64104818Y-134571428D01*
X64104818Y-134571428D02*
X64104818Y-134380952D01*
X64104818Y-134380952D02*
X64057199Y-134285714D01*
X64057199Y-134285714D02*
X64009579Y-134238095D01*
X64009579Y-134238095D02*
X63914341Y-134190476D01*
X63914341Y-134190476D02*
X63104818Y-134190476D01*
X63104818Y-133809523D02*
X63104818Y-133190476D01*
X63104818Y-133190476D02*
X63485770Y-133523809D01*
X63485770Y-133523809D02*
X63485770Y-133380952D01*
X63485770Y-133380952D02*
X63533389Y-133285714D01*
X63533389Y-133285714D02*
X63581008Y-133238095D01*
X63581008Y-133238095D02*
X63676246Y-133190476D01*
X63676246Y-133190476D02*
X63914341Y-133190476D01*
X63914341Y-133190476D02*
X64009579Y-133238095D01*
X64009579Y-133238095D02*
X64057199Y-133285714D01*
X64057199Y-133285714D02*
X64104818Y-133380952D01*
X64104818Y-133380952D02*
X64104818Y-133666666D01*
X64104818Y-133666666D02*
X64057199Y-133761904D01*
X64057199Y-133761904D02*
X64009579Y-133809523D01*
X70633333Y-120042980D02*
X70585714Y-120090600D01*
X70585714Y-120090600D02*
X70442857Y-120138219D01*
X70442857Y-120138219D02*
X70347619Y-120138219D01*
X70347619Y-120138219D02*
X70204762Y-120090600D01*
X70204762Y-120090600D02*
X70109524Y-119995361D01*
X70109524Y-119995361D02*
X70061905Y-119900123D01*
X70061905Y-119900123D02*
X70014286Y-119709647D01*
X70014286Y-119709647D02*
X70014286Y-119566790D01*
X70014286Y-119566790D02*
X70061905Y-119376314D01*
X70061905Y-119376314D02*
X70109524Y-119281076D01*
X70109524Y-119281076D02*
X70204762Y-119185838D01*
X70204762Y-119185838D02*
X70347619Y-119138219D01*
X70347619Y-119138219D02*
X70442857Y-119138219D01*
X70442857Y-119138219D02*
X70585714Y-119185838D01*
X70585714Y-119185838D02*
X70633333Y-119233457D01*
X71014286Y-119233457D02*
X71061905Y-119185838D01*
X71061905Y-119185838D02*
X71157143Y-119138219D01*
X71157143Y-119138219D02*
X71395238Y-119138219D01*
X71395238Y-119138219D02*
X71490476Y-119185838D01*
X71490476Y-119185838D02*
X71538095Y-119233457D01*
X71538095Y-119233457D02*
X71585714Y-119328695D01*
X71585714Y-119328695D02*
X71585714Y-119423933D01*
X71585714Y-119423933D02*
X71538095Y-119566790D01*
X71538095Y-119566790D02*
X70966667Y-120138219D01*
X70966667Y-120138219D02*
X71585714Y-120138219D01*
X87143180Y-87769857D02*
X87190800Y-87817476D01*
X87190800Y-87817476D02*
X87238419Y-87960333D01*
X87238419Y-87960333D02*
X87238419Y-88055571D01*
X87238419Y-88055571D02*
X87190800Y-88198428D01*
X87190800Y-88198428D02*
X87095561Y-88293666D01*
X87095561Y-88293666D02*
X87000323Y-88341285D01*
X87000323Y-88341285D02*
X86809847Y-88388904D01*
X86809847Y-88388904D02*
X86666990Y-88388904D01*
X86666990Y-88388904D02*
X86476514Y-88341285D01*
X86476514Y-88341285D02*
X86381276Y-88293666D01*
X86381276Y-88293666D02*
X86286038Y-88198428D01*
X86286038Y-88198428D02*
X86238419Y-88055571D01*
X86238419Y-88055571D02*
X86238419Y-87960333D01*
X86238419Y-87960333D02*
X86286038Y-87817476D01*
X86286038Y-87817476D02*
X86333657Y-87769857D01*
X87238419Y-86817476D02*
X87238419Y-87388904D01*
X87238419Y-87103190D02*
X86238419Y-87103190D01*
X86238419Y-87103190D02*
X86381276Y-87198428D01*
X86381276Y-87198428D02*
X86476514Y-87293666D01*
X86476514Y-87293666D02*
X86524133Y-87388904D01*
X86238419Y-86484142D02*
X86238419Y-85817476D01*
X86238419Y-85817476D02*
X87238419Y-86246047D01*
X80345333Y-152235380D02*
X80297714Y-152283000D01*
X80297714Y-152283000D02*
X80154857Y-152330619D01*
X80154857Y-152330619D02*
X80059619Y-152330619D01*
X80059619Y-152330619D02*
X79916762Y-152283000D01*
X79916762Y-152283000D02*
X79821524Y-152187761D01*
X79821524Y-152187761D02*
X79773905Y-152092523D01*
X79773905Y-152092523D02*
X79726286Y-151902047D01*
X79726286Y-151902047D02*
X79726286Y-151759190D01*
X79726286Y-151759190D02*
X79773905Y-151568714D01*
X79773905Y-151568714D02*
X79821524Y-151473476D01*
X79821524Y-151473476D02*
X79916762Y-151378238D01*
X79916762Y-151378238D02*
X80059619Y-151330619D01*
X80059619Y-151330619D02*
X80154857Y-151330619D01*
X80154857Y-151330619D02*
X80297714Y-151378238D01*
X80297714Y-151378238D02*
X80345333Y-151425857D01*
X80916762Y-151759190D02*
X80821524Y-151711571D01*
X80821524Y-151711571D02*
X80773905Y-151663952D01*
X80773905Y-151663952D02*
X80726286Y-151568714D01*
X80726286Y-151568714D02*
X80726286Y-151521095D01*
X80726286Y-151521095D02*
X80773905Y-151425857D01*
X80773905Y-151425857D02*
X80821524Y-151378238D01*
X80821524Y-151378238D02*
X80916762Y-151330619D01*
X80916762Y-151330619D02*
X81107238Y-151330619D01*
X81107238Y-151330619D02*
X81202476Y-151378238D01*
X81202476Y-151378238D02*
X81250095Y-151425857D01*
X81250095Y-151425857D02*
X81297714Y-151521095D01*
X81297714Y-151521095D02*
X81297714Y-151568714D01*
X81297714Y-151568714D02*
X81250095Y-151663952D01*
X81250095Y-151663952D02*
X81202476Y-151711571D01*
X81202476Y-151711571D02*
X81107238Y-151759190D01*
X81107238Y-151759190D02*
X80916762Y-151759190D01*
X80916762Y-151759190D02*
X80821524Y-151806809D01*
X80821524Y-151806809D02*
X80773905Y-151854428D01*
X80773905Y-151854428D02*
X80726286Y-151949666D01*
X80726286Y-151949666D02*
X80726286Y-152140142D01*
X80726286Y-152140142D02*
X80773905Y-152235380D01*
X80773905Y-152235380D02*
X80821524Y-152283000D01*
X80821524Y-152283000D02*
X80916762Y-152330619D01*
X80916762Y-152330619D02*
X81107238Y-152330619D01*
X81107238Y-152330619D02*
X81202476Y-152283000D01*
X81202476Y-152283000D02*
X81250095Y-152235380D01*
X81250095Y-152235380D02*
X81297714Y-152140142D01*
X81297714Y-152140142D02*
X81297714Y-151949666D01*
X81297714Y-151949666D02*
X81250095Y-151854428D01*
X81250095Y-151854428D02*
X81202476Y-151806809D01*
X81202476Y-151806809D02*
X81107238Y-151759190D01*
X65033419Y-115569966D02*
X64557228Y-115903299D01*
X65033419Y-116141394D02*
X64033419Y-116141394D01*
X64033419Y-116141394D02*
X64033419Y-115760442D01*
X64033419Y-115760442D02*
X64081038Y-115665204D01*
X64081038Y-115665204D02*
X64128657Y-115617585D01*
X64128657Y-115617585D02*
X64223895Y-115569966D01*
X64223895Y-115569966D02*
X64366752Y-115569966D01*
X64366752Y-115569966D02*
X64461990Y-115617585D01*
X64461990Y-115617585D02*
X64509609Y-115665204D01*
X64509609Y-115665204D02*
X64557228Y-115760442D01*
X64557228Y-115760442D02*
X64557228Y-116141394D01*
X65033419Y-114617585D02*
X65033419Y-115189013D01*
X65033419Y-114903299D02*
X64033419Y-114903299D01*
X64033419Y-114903299D02*
X64176276Y-114998537D01*
X64176276Y-114998537D02*
X64271514Y-115093775D01*
X64271514Y-115093775D02*
X64319133Y-115189013D01*
X66248333Y-105420819D02*
X65915000Y-104944628D01*
X65676905Y-105420819D02*
X65676905Y-104420819D01*
X65676905Y-104420819D02*
X66057857Y-104420819D01*
X66057857Y-104420819D02*
X66153095Y-104468438D01*
X66153095Y-104468438D02*
X66200714Y-104516057D01*
X66200714Y-104516057D02*
X66248333Y-104611295D01*
X66248333Y-104611295D02*
X66248333Y-104754152D01*
X66248333Y-104754152D02*
X66200714Y-104849390D01*
X66200714Y-104849390D02*
X66153095Y-104897009D01*
X66153095Y-104897009D02*
X66057857Y-104944628D01*
X66057857Y-104944628D02*
X65676905Y-104944628D01*
X67105476Y-104754152D02*
X67105476Y-105420819D01*
X66867381Y-104373200D02*
X66629286Y-105087485D01*
X66629286Y-105087485D02*
X67248333Y-105087485D01*
X60057142Y-81930819D02*
X59723809Y-81454628D01*
X59485714Y-81930819D02*
X59485714Y-80930819D01*
X59485714Y-80930819D02*
X59866666Y-80930819D01*
X59866666Y-80930819D02*
X59961904Y-80978438D01*
X59961904Y-80978438D02*
X60009523Y-81026057D01*
X60009523Y-81026057D02*
X60057142Y-81121295D01*
X60057142Y-81121295D02*
X60057142Y-81264152D01*
X60057142Y-81264152D02*
X60009523Y-81359390D01*
X60009523Y-81359390D02*
X59961904Y-81407009D01*
X59961904Y-81407009D02*
X59866666Y-81454628D01*
X59866666Y-81454628D02*
X59485714Y-81454628D01*
X61009523Y-81930819D02*
X60438095Y-81930819D01*
X60723809Y-81930819D02*
X60723809Y-80930819D01*
X60723809Y-80930819D02*
X60628571Y-81073676D01*
X60628571Y-81073676D02*
X60533333Y-81168914D01*
X60533333Y-81168914D02*
X60438095Y-81216533D01*
X61628571Y-80930819D02*
X61723809Y-80930819D01*
X61723809Y-80930819D02*
X61819047Y-80978438D01*
X61819047Y-80978438D02*
X61866666Y-81026057D01*
X61866666Y-81026057D02*
X61914285Y-81121295D01*
X61914285Y-81121295D02*
X61961904Y-81311771D01*
X61961904Y-81311771D02*
X61961904Y-81549866D01*
X61961904Y-81549866D02*
X61914285Y-81740342D01*
X61914285Y-81740342D02*
X61866666Y-81835580D01*
X61866666Y-81835580D02*
X61819047Y-81883200D01*
X61819047Y-81883200D02*
X61723809Y-81930819D01*
X61723809Y-81930819D02*
X61628571Y-81930819D01*
X61628571Y-81930819D02*
X61533333Y-81883200D01*
X61533333Y-81883200D02*
X61485714Y-81835580D01*
X61485714Y-81835580D02*
X61438095Y-81740342D01*
X61438095Y-81740342D02*
X61390476Y-81549866D01*
X61390476Y-81549866D02*
X61390476Y-81311771D01*
X61390476Y-81311771D02*
X61438095Y-81121295D01*
X61438095Y-81121295D02*
X61485714Y-81026057D01*
X61485714Y-81026057D02*
X61533333Y-80978438D01*
X61533333Y-80978438D02*
X61628571Y-80930819D01*
X65111742Y-89897419D02*
X64778409Y-89421228D01*
X64540314Y-89897419D02*
X64540314Y-88897419D01*
X64540314Y-88897419D02*
X64921266Y-88897419D01*
X64921266Y-88897419D02*
X65016504Y-88945038D01*
X65016504Y-88945038D02*
X65064123Y-88992657D01*
X65064123Y-88992657D02*
X65111742Y-89087895D01*
X65111742Y-89087895D02*
X65111742Y-89230752D01*
X65111742Y-89230752D02*
X65064123Y-89325990D01*
X65064123Y-89325990D02*
X65016504Y-89373609D01*
X65016504Y-89373609D02*
X64921266Y-89421228D01*
X64921266Y-89421228D02*
X64540314Y-89421228D01*
X66064123Y-89897419D02*
X65492695Y-89897419D01*
X65778409Y-89897419D02*
X65778409Y-88897419D01*
X65778409Y-88897419D02*
X65683171Y-89040276D01*
X65683171Y-89040276D02*
X65587933Y-89135514D01*
X65587933Y-89135514D02*
X65492695Y-89183133D01*
X67016504Y-89897419D02*
X66445076Y-89897419D01*
X66730790Y-89897419D02*
X66730790Y-88897419D01*
X66730790Y-88897419D02*
X66635552Y-89040276D01*
X66635552Y-89040276D02*
X66540314Y-89135514D01*
X66540314Y-89135514D02*
X66445076Y-89183133D01*
X82083333Y-126636380D02*
X82035714Y-126684000D01*
X82035714Y-126684000D02*
X81892857Y-126731619D01*
X81892857Y-126731619D02*
X81797619Y-126731619D01*
X81797619Y-126731619D02*
X81654762Y-126684000D01*
X81654762Y-126684000D02*
X81559524Y-126588761D01*
X81559524Y-126588761D02*
X81511905Y-126493523D01*
X81511905Y-126493523D02*
X81464286Y-126303047D01*
X81464286Y-126303047D02*
X81464286Y-126160190D01*
X81464286Y-126160190D02*
X81511905Y-125969714D01*
X81511905Y-125969714D02*
X81559524Y-125874476D01*
X81559524Y-125874476D02*
X81654762Y-125779238D01*
X81654762Y-125779238D02*
X81797619Y-125731619D01*
X81797619Y-125731619D02*
X81892857Y-125731619D01*
X81892857Y-125731619D02*
X82035714Y-125779238D01*
X82035714Y-125779238D02*
X82083333Y-125826857D01*
X83035714Y-126731619D02*
X82464286Y-126731619D01*
X82750000Y-126731619D02*
X82750000Y-125731619D01*
X82750000Y-125731619D02*
X82654762Y-125874476D01*
X82654762Y-125874476D02*
X82559524Y-125969714D01*
X82559524Y-125969714D02*
X82464286Y-126017333D01*
X83416667Y-125826857D02*
X83464286Y-125779238D01*
X83464286Y-125779238D02*
X83559524Y-125731619D01*
X83559524Y-125731619D02*
X83797619Y-125731619D01*
X83797619Y-125731619D02*
X83892857Y-125779238D01*
X83892857Y-125779238D02*
X83940476Y-125826857D01*
X83940476Y-125826857D02*
X83988095Y-125922095D01*
X83988095Y-125922095D02*
X83988095Y-126017333D01*
X83988095Y-126017333D02*
X83940476Y-126160190D01*
X83940476Y-126160190D02*
X83369048Y-126731619D01*
X83369048Y-126731619D02*
X83988095Y-126731619D01*
X76583333Y-126609580D02*
X76535714Y-126657200D01*
X76535714Y-126657200D02*
X76392857Y-126704819D01*
X76392857Y-126704819D02*
X76297619Y-126704819D01*
X76297619Y-126704819D02*
X76154762Y-126657200D01*
X76154762Y-126657200D02*
X76059524Y-126561961D01*
X76059524Y-126561961D02*
X76011905Y-126466723D01*
X76011905Y-126466723D02*
X75964286Y-126276247D01*
X75964286Y-126276247D02*
X75964286Y-126133390D01*
X75964286Y-126133390D02*
X76011905Y-125942914D01*
X76011905Y-125942914D02*
X76059524Y-125847676D01*
X76059524Y-125847676D02*
X76154762Y-125752438D01*
X76154762Y-125752438D02*
X76297619Y-125704819D01*
X76297619Y-125704819D02*
X76392857Y-125704819D01*
X76392857Y-125704819D02*
X76535714Y-125752438D01*
X76535714Y-125752438D02*
X76583333Y-125800057D01*
X76964286Y-125800057D02*
X77011905Y-125752438D01*
X77011905Y-125752438D02*
X77107143Y-125704819D01*
X77107143Y-125704819D02*
X77345238Y-125704819D01*
X77345238Y-125704819D02*
X77440476Y-125752438D01*
X77440476Y-125752438D02*
X77488095Y-125800057D01*
X77488095Y-125800057D02*
X77535714Y-125895295D01*
X77535714Y-125895295D02*
X77535714Y-125990533D01*
X77535714Y-125990533D02*
X77488095Y-126133390D01*
X77488095Y-126133390D02*
X76916667Y-126704819D01*
X76916667Y-126704819D02*
X77535714Y-126704819D01*
X77916667Y-125800057D02*
X77964286Y-125752438D01*
X77964286Y-125752438D02*
X78059524Y-125704819D01*
X78059524Y-125704819D02*
X78297619Y-125704819D01*
X78297619Y-125704819D02*
X78392857Y-125752438D01*
X78392857Y-125752438D02*
X78440476Y-125800057D01*
X78440476Y-125800057D02*
X78488095Y-125895295D01*
X78488095Y-125895295D02*
X78488095Y-125990533D01*
X78488095Y-125990533D02*
X78440476Y-126133390D01*
X78440476Y-126133390D02*
X77869048Y-126704819D01*
X77869048Y-126704819D02*
X78488095Y-126704819D01*
X82607142Y-132609580D02*
X82559523Y-132657200D01*
X82559523Y-132657200D02*
X82416666Y-132704819D01*
X82416666Y-132704819D02*
X82321428Y-132704819D01*
X82321428Y-132704819D02*
X82178571Y-132657200D01*
X82178571Y-132657200D02*
X82083333Y-132561961D01*
X82083333Y-132561961D02*
X82035714Y-132466723D01*
X82035714Y-132466723D02*
X81988095Y-132276247D01*
X81988095Y-132276247D02*
X81988095Y-132133390D01*
X81988095Y-132133390D02*
X82035714Y-131942914D01*
X82035714Y-131942914D02*
X82083333Y-131847676D01*
X82083333Y-131847676D02*
X82178571Y-131752438D01*
X82178571Y-131752438D02*
X82321428Y-131704819D01*
X82321428Y-131704819D02*
X82416666Y-131704819D01*
X82416666Y-131704819D02*
X82559523Y-131752438D01*
X82559523Y-131752438D02*
X82607142Y-131800057D01*
X82988095Y-131800057D02*
X83035714Y-131752438D01*
X83035714Y-131752438D02*
X83130952Y-131704819D01*
X83130952Y-131704819D02*
X83369047Y-131704819D01*
X83369047Y-131704819D02*
X83464285Y-131752438D01*
X83464285Y-131752438D02*
X83511904Y-131800057D01*
X83511904Y-131800057D02*
X83559523Y-131895295D01*
X83559523Y-131895295D02*
X83559523Y-131990533D01*
X83559523Y-131990533D02*
X83511904Y-132133390D01*
X83511904Y-132133390D02*
X82940476Y-132704819D01*
X82940476Y-132704819D02*
X83559523Y-132704819D01*
X84178571Y-131704819D02*
X84273809Y-131704819D01*
X84273809Y-131704819D02*
X84369047Y-131752438D01*
X84369047Y-131752438D02*
X84416666Y-131800057D01*
X84416666Y-131800057D02*
X84464285Y-131895295D01*
X84464285Y-131895295D02*
X84511904Y-132085771D01*
X84511904Y-132085771D02*
X84511904Y-132323866D01*
X84511904Y-132323866D02*
X84464285Y-132514342D01*
X84464285Y-132514342D02*
X84416666Y-132609580D01*
X84416666Y-132609580D02*
X84369047Y-132657200D01*
X84369047Y-132657200D02*
X84273809Y-132704819D01*
X84273809Y-132704819D02*
X84178571Y-132704819D01*
X84178571Y-132704819D02*
X84083333Y-132657200D01*
X84083333Y-132657200D02*
X84035714Y-132609580D01*
X84035714Y-132609580D02*
X83988095Y-132514342D01*
X83988095Y-132514342D02*
X83940476Y-132323866D01*
X83940476Y-132323866D02*
X83940476Y-132085771D01*
X83940476Y-132085771D02*
X83988095Y-131895295D01*
X83988095Y-131895295D02*
X84035714Y-131800057D01*
X84035714Y-131800057D02*
X84083333Y-131752438D01*
X84083333Y-131752438D02*
X84178571Y-131704819D01*
X66248333Y-99320819D02*
X65915000Y-98844628D01*
X65676905Y-99320819D02*
X65676905Y-98320819D01*
X65676905Y-98320819D02*
X66057857Y-98320819D01*
X66057857Y-98320819D02*
X66153095Y-98368438D01*
X66153095Y-98368438D02*
X66200714Y-98416057D01*
X66200714Y-98416057D02*
X66248333Y-98511295D01*
X66248333Y-98511295D02*
X66248333Y-98654152D01*
X66248333Y-98654152D02*
X66200714Y-98749390D01*
X66200714Y-98749390D02*
X66153095Y-98797009D01*
X66153095Y-98797009D02*
X66057857Y-98844628D01*
X66057857Y-98844628D02*
X65676905Y-98844628D01*
X66581667Y-98320819D02*
X67248333Y-98320819D01*
X67248333Y-98320819D02*
X66819762Y-99320819D01*
X59230780Y-86910457D02*
X59278400Y-86958076D01*
X59278400Y-86958076D02*
X59326019Y-87100933D01*
X59326019Y-87100933D02*
X59326019Y-87196171D01*
X59326019Y-87196171D02*
X59278400Y-87339028D01*
X59278400Y-87339028D02*
X59183161Y-87434266D01*
X59183161Y-87434266D02*
X59087923Y-87481885D01*
X59087923Y-87481885D02*
X58897447Y-87529504D01*
X58897447Y-87529504D02*
X58754590Y-87529504D01*
X58754590Y-87529504D02*
X58564114Y-87481885D01*
X58564114Y-87481885D02*
X58468876Y-87434266D01*
X58468876Y-87434266D02*
X58373638Y-87339028D01*
X58373638Y-87339028D02*
X58326019Y-87196171D01*
X58326019Y-87196171D02*
X58326019Y-87100933D01*
X58326019Y-87100933D02*
X58373638Y-86958076D01*
X58373638Y-86958076D02*
X58421257Y-86910457D01*
X59326019Y-85958076D02*
X59326019Y-86529504D01*
X59326019Y-86243790D02*
X58326019Y-86243790D01*
X58326019Y-86243790D02*
X58468876Y-86339028D01*
X58468876Y-86339028D02*
X58564114Y-86434266D01*
X58564114Y-86434266D02*
X58611733Y-86529504D01*
X58326019Y-85100933D02*
X58326019Y-85291409D01*
X58326019Y-85291409D02*
X58373638Y-85386647D01*
X58373638Y-85386647D02*
X58421257Y-85434266D01*
X58421257Y-85434266D02*
X58564114Y-85529504D01*
X58564114Y-85529504D02*
X58754590Y-85577123D01*
X58754590Y-85577123D02*
X59135542Y-85577123D01*
X59135542Y-85577123D02*
X59230780Y-85529504D01*
X59230780Y-85529504D02*
X59278400Y-85481885D01*
X59278400Y-85481885D02*
X59326019Y-85386647D01*
X59326019Y-85386647D02*
X59326019Y-85196171D01*
X59326019Y-85196171D02*
X59278400Y-85100933D01*
X59278400Y-85100933D02*
X59230780Y-85053314D01*
X59230780Y-85053314D02*
X59135542Y-85005695D01*
X59135542Y-85005695D02*
X58897447Y-85005695D01*
X58897447Y-85005695D02*
X58802209Y-85053314D01*
X58802209Y-85053314D02*
X58754590Y-85100933D01*
X58754590Y-85100933D02*
X58706971Y-85196171D01*
X58706971Y-85196171D02*
X58706971Y-85386647D01*
X58706971Y-85386647D02*
X58754590Y-85481885D01*
X58754590Y-85481885D02*
X58802209Y-85529504D01*
X58802209Y-85529504D02*
X58897447Y-85577123D01*
X74309580Y-87926457D02*
X74357200Y-87974076D01*
X74357200Y-87974076D02*
X74404819Y-88116933D01*
X74404819Y-88116933D02*
X74404819Y-88212171D01*
X74404819Y-88212171D02*
X74357200Y-88355028D01*
X74357200Y-88355028D02*
X74261961Y-88450266D01*
X74261961Y-88450266D02*
X74166723Y-88497885D01*
X74166723Y-88497885D02*
X73976247Y-88545504D01*
X73976247Y-88545504D02*
X73833390Y-88545504D01*
X73833390Y-88545504D02*
X73642914Y-88497885D01*
X73642914Y-88497885D02*
X73547676Y-88450266D01*
X73547676Y-88450266D02*
X73452438Y-88355028D01*
X73452438Y-88355028D02*
X73404819Y-88212171D01*
X73404819Y-88212171D02*
X73404819Y-88116933D01*
X73404819Y-88116933D02*
X73452438Y-87974076D01*
X73452438Y-87974076D02*
X73500057Y-87926457D01*
X74404819Y-86974076D02*
X74404819Y-87545504D01*
X74404819Y-87259790D02*
X73404819Y-87259790D01*
X73404819Y-87259790D02*
X73547676Y-87355028D01*
X73547676Y-87355028D02*
X73642914Y-87450266D01*
X73642914Y-87450266D02*
X73690533Y-87545504D01*
X74404819Y-86497885D02*
X74404819Y-86307409D01*
X74404819Y-86307409D02*
X74357200Y-86212171D01*
X74357200Y-86212171D02*
X74309580Y-86164552D01*
X74309580Y-86164552D02*
X74166723Y-86069314D01*
X74166723Y-86069314D02*
X73976247Y-86021695D01*
X73976247Y-86021695D02*
X73595295Y-86021695D01*
X73595295Y-86021695D02*
X73500057Y-86069314D01*
X73500057Y-86069314D02*
X73452438Y-86116933D01*
X73452438Y-86116933D02*
X73404819Y-86212171D01*
X73404819Y-86212171D02*
X73404819Y-86402647D01*
X73404819Y-86402647D02*
X73452438Y-86497885D01*
X73452438Y-86497885D02*
X73500057Y-86545504D01*
X73500057Y-86545504D02*
X73595295Y-86593123D01*
X73595295Y-86593123D02*
X73833390Y-86593123D01*
X73833390Y-86593123D02*
X73928628Y-86545504D01*
X73928628Y-86545504D02*
X73976247Y-86497885D01*
X73976247Y-86497885D02*
X74023866Y-86402647D01*
X74023866Y-86402647D02*
X74023866Y-86212171D01*
X74023866Y-86212171D02*
X73976247Y-86116933D01*
X73976247Y-86116933D02*
X73928628Y-86069314D01*
X73928628Y-86069314D02*
X73833390Y-86021695D01*
X65346705Y-91878619D02*
X65346705Y-90878619D01*
X65346705Y-90878619D02*
X65584800Y-90878619D01*
X65584800Y-90878619D02*
X65727657Y-90926238D01*
X65727657Y-90926238D02*
X65822895Y-91021476D01*
X65822895Y-91021476D02*
X65870514Y-91116714D01*
X65870514Y-91116714D02*
X65918133Y-91307190D01*
X65918133Y-91307190D02*
X65918133Y-91450047D01*
X65918133Y-91450047D02*
X65870514Y-91640523D01*
X65870514Y-91640523D02*
X65822895Y-91735761D01*
X65822895Y-91735761D02*
X65727657Y-91831000D01*
X65727657Y-91831000D02*
X65584800Y-91878619D01*
X65584800Y-91878619D02*
X65346705Y-91878619D01*
X66251467Y-90878619D02*
X66870514Y-90878619D01*
X66870514Y-90878619D02*
X66537181Y-91259571D01*
X66537181Y-91259571D02*
X66680038Y-91259571D01*
X66680038Y-91259571D02*
X66775276Y-91307190D01*
X66775276Y-91307190D02*
X66822895Y-91354809D01*
X66822895Y-91354809D02*
X66870514Y-91450047D01*
X66870514Y-91450047D02*
X66870514Y-91688142D01*
X66870514Y-91688142D02*
X66822895Y-91783380D01*
X66822895Y-91783380D02*
X66775276Y-91831000D01*
X66775276Y-91831000D02*
X66680038Y-91878619D01*
X66680038Y-91878619D02*
X66394324Y-91878619D01*
X66394324Y-91878619D02*
X66299086Y-91831000D01*
X66299086Y-91831000D02*
X66251467Y-91783380D01*
X60376856Y-77136819D02*
X60043523Y-76660628D01*
X59805428Y-77136819D02*
X59805428Y-76136819D01*
X59805428Y-76136819D02*
X60186380Y-76136819D01*
X60186380Y-76136819D02*
X60281618Y-76184438D01*
X60281618Y-76184438D02*
X60329237Y-76232057D01*
X60329237Y-76232057D02*
X60376856Y-76327295D01*
X60376856Y-76327295D02*
X60376856Y-76470152D01*
X60376856Y-76470152D02*
X60329237Y-76565390D01*
X60329237Y-76565390D02*
X60281618Y-76613009D01*
X60281618Y-76613009D02*
X60186380Y-76660628D01*
X60186380Y-76660628D02*
X59805428Y-76660628D01*
X60805428Y-76613009D02*
X61138761Y-76613009D01*
X61281618Y-77136819D02*
X60805428Y-77136819D01*
X60805428Y-77136819D02*
X60805428Y-76136819D01*
X60805428Y-76136819D02*
X61281618Y-76136819D01*
X61662571Y-77089200D02*
X61805428Y-77136819D01*
X61805428Y-77136819D02*
X62043523Y-77136819D01*
X62043523Y-77136819D02*
X62138761Y-77089200D01*
X62138761Y-77089200D02*
X62186380Y-77041580D01*
X62186380Y-77041580D02*
X62233999Y-76946342D01*
X62233999Y-76946342D02*
X62233999Y-76851104D01*
X62233999Y-76851104D02*
X62186380Y-76755866D01*
X62186380Y-76755866D02*
X62138761Y-76708247D01*
X62138761Y-76708247D02*
X62043523Y-76660628D01*
X62043523Y-76660628D02*
X61853047Y-76613009D01*
X61853047Y-76613009D02*
X61757809Y-76565390D01*
X61757809Y-76565390D02*
X61710190Y-76517771D01*
X61710190Y-76517771D02*
X61662571Y-76422533D01*
X61662571Y-76422533D02*
X61662571Y-76327295D01*
X61662571Y-76327295D02*
X61710190Y-76232057D01*
X61710190Y-76232057D02*
X61757809Y-76184438D01*
X61757809Y-76184438D02*
X61853047Y-76136819D01*
X61853047Y-76136819D02*
X62091142Y-76136819D01*
X62091142Y-76136819D02*
X62233999Y-76184438D01*
X62662571Y-76613009D02*
X62995904Y-76613009D01*
X63138761Y-77136819D02*
X62662571Y-77136819D01*
X62662571Y-77136819D02*
X62662571Y-76136819D01*
X62662571Y-76136819D02*
X63138761Y-76136819D01*
X63424476Y-76136819D02*
X63995904Y-76136819D01*
X63710190Y-77136819D02*
X63710190Y-76136819D01*
X64091143Y-77232057D02*
X64853047Y-77232057D01*
X65043524Y-77089200D02*
X65186381Y-77136819D01*
X65186381Y-77136819D02*
X65424476Y-77136819D01*
X65424476Y-77136819D02*
X65519714Y-77089200D01*
X65519714Y-77089200D02*
X65567333Y-77041580D01*
X65567333Y-77041580D02*
X65614952Y-76946342D01*
X65614952Y-76946342D02*
X65614952Y-76851104D01*
X65614952Y-76851104D02*
X65567333Y-76755866D01*
X65567333Y-76755866D02*
X65519714Y-76708247D01*
X65519714Y-76708247D02*
X65424476Y-76660628D01*
X65424476Y-76660628D02*
X65234000Y-76613009D01*
X65234000Y-76613009D02*
X65138762Y-76565390D01*
X65138762Y-76565390D02*
X65091143Y-76517771D01*
X65091143Y-76517771D02*
X65043524Y-76422533D01*
X65043524Y-76422533D02*
X65043524Y-76327295D01*
X65043524Y-76327295D02*
X65091143Y-76232057D01*
X65091143Y-76232057D02*
X65138762Y-76184438D01*
X65138762Y-76184438D02*
X65234000Y-76136819D01*
X65234000Y-76136819D02*
X65472095Y-76136819D01*
X65472095Y-76136819D02*
X65614952Y-76184438D01*
X65948286Y-76136819D02*
X66186381Y-77136819D01*
X66186381Y-77136819D02*
X66376857Y-76422533D01*
X66376857Y-76422533D02*
X66567333Y-77136819D01*
X66567333Y-77136819D02*
X66805429Y-76136819D01*
X67710190Y-77136819D02*
X67138762Y-77136819D01*
X67424476Y-77136819D02*
X67424476Y-76136819D01*
X67424476Y-76136819D02*
X67329238Y-76279676D01*
X67329238Y-76279676D02*
X67234000Y-76374914D01*
X67234000Y-76374914D02*
X67138762Y-76422533D01*
X73954819Y-146011904D02*
X74764342Y-146011904D01*
X74764342Y-146011904D02*
X74859580Y-145964285D01*
X74859580Y-145964285D02*
X74907200Y-145916666D01*
X74907200Y-145916666D02*
X74954819Y-145821428D01*
X74954819Y-145821428D02*
X74954819Y-145630952D01*
X74954819Y-145630952D02*
X74907200Y-145535714D01*
X74907200Y-145535714D02*
X74859580Y-145488095D01*
X74859580Y-145488095D02*
X74764342Y-145440476D01*
X74764342Y-145440476D02*
X73954819Y-145440476D01*
X74954819Y-144440476D02*
X74954819Y-145011904D01*
X74954819Y-144726190D02*
X73954819Y-144726190D01*
X73954819Y-144726190D02*
X74097676Y-144821428D01*
X74097676Y-144821428D02*
X74192914Y-144916666D01*
X74192914Y-144916666D02*
X74240533Y-145011904D01*
X82083333Y-128314180D02*
X82035714Y-128361800D01*
X82035714Y-128361800D02*
X81892857Y-128409419D01*
X81892857Y-128409419D02*
X81797619Y-128409419D01*
X81797619Y-128409419D02*
X81654762Y-128361800D01*
X81654762Y-128361800D02*
X81559524Y-128266561D01*
X81559524Y-128266561D02*
X81511905Y-128171323D01*
X81511905Y-128171323D02*
X81464286Y-127980847D01*
X81464286Y-127980847D02*
X81464286Y-127837990D01*
X81464286Y-127837990D02*
X81511905Y-127647514D01*
X81511905Y-127647514D02*
X81559524Y-127552276D01*
X81559524Y-127552276D02*
X81654762Y-127457038D01*
X81654762Y-127457038D02*
X81797619Y-127409419D01*
X81797619Y-127409419D02*
X81892857Y-127409419D01*
X81892857Y-127409419D02*
X82035714Y-127457038D01*
X82035714Y-127457038D02*
X82083333Y-127504657D01*
X82988095Y-127409419D02*
X82511905Y-127409419D01*
X82511905Y-127409419D02*
X82464286Y-127885609D01*
X82464286Y-127885609D02*
X82511905Y-127837990D01*
X82511905Y-127837990D02*
X82607143Y-127790371D01*
X82607143Y-127790371D02*
X82845238Y-127790371D01*
X82845238Y-127790371D02*
X82940476Y-127837990D01*
X82940476Y-127837990D02*
X82988095Y-127885609D01*
X82988095Y-127885609D02*
X83035714Y-127980847D01*
X83035714Y-127980847D02*
X83035714Y-128218942D01*
X83035714Y-128218942D02*
X82988095Y-128314180D01*
X82988095Y-128314180D02*
X82940476Y-128361800D01*
X82940476Y-128361800D02*
X82845238Y-128409419D01*
X82845238Y-128409419D02*
X82607143Y-128409419D01*
X82607143Y-128409419D02*
X82511905Y-128361800D01*
X82511905Y-128361800D02*
X82464286Y-128314180D01*
X66511905Y-84954819D02*
X66511905Y-83954819D01*
X66511905Y-83954819D02*
X66750000Y-83954819D01*
X66750000Y-83954819D02*
X66892857Y-84002438D01*
X66892857Y-84002438D02*
X66988095Y-84097676D01*
X66988095Y-84097676D02*
X67035714Y-84192914D01*
X67035714Y-84192914D02*
X67083333Y-84383390D01*
X67083333Y-84383390D02*
X67083333Y-84526247D01*
X67083333Y-84526247D02*
X67035714Y-84716723D01*
X67035714Y-84716723D02*
X66988095Y-84811961D01*
X66988095Y-84811961D02*
X66892857Y-84907200D01*
X66892857Y-84907200D02*
X66750000Y-84954819D01*
X66750000Y-84954819D02*
X66511905Y-84954819D01*
X68035714Y-84954819D02*
X67464286Y-84954819D01*
X67750000Y-84954819D02*
X67750000Y-83954819D01*
X67750000Y-83954819D02*
X67654762Y-84097676D01*
X67654762Y-84097676D02*
X67559524Y-84192914D01*
X67559524Y-84192914D02*
X67464286Y-84240533D01*
X61459619Y-87424866D02*
X60983428Y-87758199D01*
X61459619Y-87996294D02*
X60459619Y-87996294D01*
X60459619Y-87996294D02*
X60459619Y-87615342D01*
X60459619Y-87615342D02*
X60507238Y-87520104D01*
X60507238Y-87520104D02*
X60554857Y-87472485D01*
X60554857Y-87472485D02*
X60650095Y-87424866D01*
X60650095Y-87424866D02*
X60792952Y-87424866D01*
X60792952Y-87424866D02*
X60888190Y-87472485D01*
X60888190Y-87472485D02*
X60935809Y-87520104D01*
X60935809Y-87520104D02*
X60983428Y-87615342D01*
X60983428Y-87615342D02*
X60983428Y-87996294D01*
X60554857Y-87043913D02*
X60507238Y-86996294D01*
X60507238Y-86996294D02*
X60459619Y-86901056D01*
X60459619Y-86901056D02*
X60459619Y-86662961D01*
X60459619Y-86662961D02*
X60507238Y-86567723D01*
X60507238Y-86567723D02*
X60554857Y-86520104D01*
X60554857Y-86520104D02*
X60650095Y-86472485D01*
X60650095Y-86472485D02*
X60745333Y-86472485D01*
X60745333Y-86472485D02*
X60888190Y-86520104D01*
X60888190Y-86520104D02*
X61459619Y-87091532D01*
X61459619Y-87091532D02*
X61459619Y-86472485D01*
X55293780Y-87493557D02*
X55341400Y-87541176D01*
X55341400Y-87541176D02*
X55389019Y-87684033D01*
X55389019Y-87684033D02*
X55389019Y-87779271D01*
X55389019Y-87779271D02*
X55341400Y-87922128D01*
X55341400Y-87922128D02*
X55246161Y-88017366D01*
X55246161Y-88017366D02*
X55150923Y-88064985D01*
X55150923Y-88064985D02*
X54960447Y-88112604D01*
X54960447Y-88112604D02*
X54817590Y-88112604D01*
X54817590Y-88112604D02*
X54627114Y-88064985D01*
X54627114Y-88064985D02*
X54531876Y-88017366D01*
X54531876Y-88017366D02*
X54436638Y-87922128D01*
X54436638Y-87922128D02*
X54389019Y-87779271D01*
X54389019Y-87779271D02*
X54389019Y-87684033D01*
X54389019Y-87684033D02*
X54436638Y-87541176D01*
X54436638Y-87541176D02*
X54484257Y-87493557D01*
X55389019Y-86541176D02*
X55389019Y-87112604D01*
X55389019Y-86826890D02*
X54389019Y-86826890D01*
X54389019Y-86826890D02*
X54531876Y-86922128D01*
X54531876Y-86922128D02*
X54627114Y-87017366D01*
X54627114Y-87017366D02*
X54674733Y-87112604D01*
X54389019Y-85636414D02*
X54389019Y-86112604D01*
X54389019Y-86112604D02*
X54865209Y-86160223D01*
X54865209Y-86160223D02*
X54817590Y-86112604D01*
X54817590Y-86112604D02*
X54769971Y-86017366D01*
X54769971Y-86017366D02*
X54769971Y-85779271D01*
X54769971Y-85779271D02*
X54817590Y-85684033D01*
X54817590Y-85684033D02*
X54865209Y-85636414D01*
X54865209Y-85636414D02*
X54960447Y-85588795D01*
X54960447Y-85588795D02*
X55198542Y-85588795D01*
X55198542Y-85588795D02*
X55293780Y-85636414D01*
X55293780Y-85636414D02*
X55341400Y-85684033D01*
X55341400Y-85684033D02*
X55389019Y-85779271D01*
X55389019Y-85779271D02*
X55389019Y-86017366D01*
X55389019Y-86017366D02*
X55341400Y-86112604D01*
X55341400Y-86112604D02*
X55293780Y-86160223D01*
X60011905Y-84954819D02*
X60011905Y-83954819D01*
X60011905Y-83954819D02*
X60250000Y-83954819D01*
X60250000Y-83954819D02*
X60392857Y-84002438D01*
X60392857Y-84002438D02*
X60488095Y-84097676D01*
X60488095Y-84097676D02*
X60535714Y-84192914D01*
X60535714Y-84192914D02*
X60583333Y-84383390D01*
X60583333Y-84383390D02*
X60583333Y-84526247D01*
X60583333Y-84526247D02*
X60535714Y-84716723D01*
X60535714Y-84716723D02*
X60488095Y-84811961D01*
X60488095Y-84811961D02*
X60392857Y-84907200D01*
X60392857Y-84907200D02*
X60250000Y-84954819D01*
X60250000Y-84954819D02*
X60011905Y-84954819D01*
X60964286Y-84050057D02*
X61011905Y-84002438D01*
X61011905Y-84002438D02*
X61107143Y-83954819D01*
X61107143Y-83954819D02*
X61345238Y-83954819D01*
X61345238Y-83954819D02*
X61440476Y-84002438D01*
X61440476Y-84002438D02*
X61488095Y-84050057D01*
X61488095Y-84050057D02*
X61535714Y-84145295D01*
X61535714Y-84145295D02*
X61535714Y-84240533D01*
X61535714Y-84240533D02*
X61488095Y-84383390D01*
X61488095Y-84383390D02*
X60916667Y-84954819D01*
X60916667Y-84954819D02*
X61535714Y-84954819D01*
X57040019Y-87450266D02*
X56563828Y-87783599D01*
X57040019Y-88021694D02*
X56040019Y-88021694D01*
X56040019Y-88021694D02*
X56040019Y-87640742D01*
X56040019Y-87640742D02*
X56087638Y-87545504D01*
X56087638Y-87545504D02*
X56135257Y-87497885D01*
X56135257Y-87497885D02*
X56230495Y-87450266D01*
X56230495Y-87450266D02*
X56373352Y-87450266D01*
X56373352Y-87450266D02*
X56468590Y-87497885D01*
X56468590Y-87497885D02*
X56516209Y-87545504D01*
X56516209Y-87545504D02*
X56563828Y-87640742D01*
X56563828Y-87640742D02*
X56563828Y-88021694D01*
X56468590Y-86878837D02*
X56420971Y-86974075D01*
X56420971Y-86974075D02*
X56373352Y-87021694D01*
X56373352Y-87021694D02*
X56278114Y-87069313D01*
X56278114Y-87069313D02*
X56230495Y-87069313D01*
X56230495Y-87069313D02*
X56135257Y-87021694D01*
X56135257Y-87021694D02*
X56087638Y-86974075D01*
X56087638Y-86974075D02*
X56040019Y-86878837D01*
X56040019Y-86878837D02*
X56040019Y-86688361D01*
X56040019Y-86688361D02*
X56087638Y-86593123D01*
X56087638Y-86593123D02*
X56135257Y-86545504D01*
X56135257Y-86545504D02*
X56230495Y-86497885D01*
X56230495Y-86497885D02*
X56278114Y-86497885D01*
X56278114Y-86497885D02*
X56373352Y-86545504D01*
X56373352Y-86545504D02*
X56420971Y-86593123D01*
X56420971Y-86593123D02*
X56468590Y-86688361D01*
X56468590Y-86688361D02*
X56468590Y-86878837D01*
X56468590Y-86878837D02*
X56516209Y-86974075D01*
X56516209Y-86974075D02*
X56563828Y-87021694D01*
X56563828Y-87021694D02*
X56659066Y-87069313D01*
X56659066Y-87069313D02*
X56849542Y-87069313D01*
X56849542Y-87069313D02*
X56944780Y-87021694D01*
X56944780Y-87021694D02*
X56992400Y-86974075D01*
X56992400Y-86974075D02*
X57040019Y-86878837D01*
X57040019Y-86878837D02*
X57040019Y-86688361D01*
X57040019Y-86688361D02*
X56992400Y-86593123D01*
X56992400Y-86593123D02*
X56944780Y-86545504D01*
X56944780Y-86545504D02*
X56849542Y-86497885D01*
X56849542Y-86497885D02*
X56659066Y-86497885D01*
X56659066Y-86497885D02*
X56563828Y-86545504D01*
X56563828Y-86545504D02*
X56516209Y-86593123D01*
X56516209Y-86593123D02*
X56468590Y-86688361D01*
X76357142Y-133109580D02*
X76309523Y-133157200D01*
X76309523Y-133157200D02*
X76166666Y-133204819D01*
X76166666Y-133204819D02*
X76071428Y-133204819D01*
X76071428Y-133204819D02*
X75928571Y-133157200D01*
X75928571Y-133157200D02*
X75833333Y-133061961D01*
X75833333Y-133061961D02*
X75785714Y-132966723D01*
X75785714Y-132966723D02*
X75738095Y-132776247D01*
X75738095Y-132776247D02*
X75738095Y-132633390D01*
X75738095Y-132633390D02*
X75785714Y-132442914D01*
X75785714Y-132442914D02*
X75833333Y-132347676D01*
X75833333Y-132347676D02*
X75928571Y-132252438D01*
X75928571Y-132252438D02*
X76071428Y-132204819D01*
X76071428Y-132204819D02*
X76166666Y-132204819D01*
X76166666Y-132204819D02*
X76309523Y-132252438D01*
X76309523Y-132252438D02*
X76357142Y-132300057D01*
X77309523Y-133204819D02*
X76738095Y-133204819D01*
X77023809Y-133204819D02*
X77023809Y-132204819D01*
X77023809Y-132204819D02*
X76928571Y-132347676D01*
X76928571Y-132347676D02*
X76833333Y-132442914D01*
X76833333Y-132442914D02*
X76738095Y-132490533D01*
X78261904Y-133204819D02*
X77690476Y-133204819D01*
X77976190Y-133204819D02*
X77976190Y-132204819D01*
X77976190Y-132204819D02*
X77880952Y-132347676D01*
X77880952Y-132347676D02*
X77785714Y-132442914D01*
X77785714Y-132442914D02*
X77690476Y-132490533D01*
X76333333Y-131335980D02*
X76285714Y-131383600D01*
X76285714Y-131383600D02*
X76142857Y-131431219D01*
X76142857Y-131431219D02*
X76047619Y-131431219D01*
X76047619Y-131431219D02*
X75904762Y-131383600D01*
X75904762Y-131383600D02*
X75809524Y-131288361D01*
X75809524Y-131288361D02*
X75761905Y-131193123D01*
X75761905Y-131193123D02*
X75714286Y-131002647D01*
X75714286Y-131002647D02*
X75714286Y-130859790D01*
X75714286Y-130859790D02*
X75761905Y-130669314D01*
X75761905Y-130669314D02*
X75809524Y-130574076D01*
X75809524Y-130574076D02*
X75904762Y-130478838D01*
X75904762Y-130478838D02*
X76047619Y-130431219D01*
X76047619Y-130431219D02*
X76142857Y-130431219D01*
X76142857Y-130431219D02*
X76285714Y-130478838D01*
X76285714Y-130478838D02*
X76333333Y-130526457D01*
X76666667Y-130431219D02*
X77285714Y-130431219D01*
X77285714Y-130431219D02*
X76952381Y-130812171D01*
X76952381Y-130812171D02*
X77095238Y-130812171D01*
X77095238Y-130812171D02*
X77190476Y-130859790D01*
X77190476Y-130859790D02*
X77238095Y-130907409D01*
X77238095Y-130907409D02*
X77285714Y-131002647D01*
X77285714Y-131002647D02*
X77285714Y-131240742D01*
X77285714Y-131240742D02*
X77238095Y-131335980D01*
X77238095Y-131335980D02*
X77190476Y-131383600D01*
X77190476Y-131383600D02*
X77095238Y-131431219D01*
X77095238Y-131431219D02*
X76809524Y-131431219D01*
X76809524Y-131431219D02*
X76714286Y-131383600D01*
X76714286Y-131383600D02*
X76666667Y-131335980D01*
X77054819Y-84161904D02*
X77864342Y-84161904D01*
X77864342Y-84161904D02*
X77959580Y-84114285D01*
X77959580Y-84114285D02*
X78007200Y-84066666D01*
X78007200Y-84066666D02*
X78054819Y-83971428D01*
X78054819Y-83971428D02*
X78054819Y-83780952D01*
X78054819Y-83780952D02*
X78007200Y-83685714D01*
X78007200Y-83685714D02*
X77959580Y-83638095D01*
X77959580Y-83638095D02*
X77864342Y-83590476D01*
X77864342Y-83590476D02*
X77054819Y-83590476D01*
X77388152Y-82685714D02*
X78054819Y-82685714D01*
X77007200Y-82923809D02*
X77721485Y-83161904D01*
X77721485Y-83161904D02*
X77721485Y-82542857D01*
X82605933Y-131204180D02*
X82558314Y-131251800D01*
X82558314Y-131251800D02*
X82415457Y-131299419D01*
X82415457Y-131299419D02*
X82320219Y-131299419D01*
X82320219Y-131299419D02*
X82177362Y-131251800D01*
X82177362Y-131251800D02*
X82082124Y-131156561D01*
X82082124Y-131156561D02*
X82034505Y-131061323D01*
X82034505Y-131061323D02*
X81986886Y-130870847D01*
X81986886Y-130870847D02*
X81986886Y-130727990D01*
X81986886Y-130727990D02*
X82034505Y-130537514D01*
X82034505Y-130537514D02*
X82082124Y-130442276D01*
X82082124Y-130442276D02*
X82177362Y-130347038D01*
X82177362Y-130347038D02*
X82320219Y-130299419D01*
X82320219Y-130299419D02*
X82415457Y-130299419D01*
X82415457Y-130299419D02*
X82558314Y-130347038D01*
X82558314Y-130347038D02*
X82605933Y-130394657D01*
X83463076Y-130632752D02*
X83463076Y-131299419D01*
X83224981Y-130251800D02*
X82986886Y-130966085D01*
X82986886Y-130966085D02*
X83605933Y-130966085D01*
X80741779Y-105904756D02*
X80789399Y-105952375D01*
X80789399Y-105952375D02*
X80837018Y-106095232D01*
X80837018Y-106095232D02*
X80837018Y-106190470D01*
X80837018Y-106190470D02*
X80789399Y-106333327D01*
X80789399Y-106333327D02*
X80694160Y-106428565D01*
X80694160Y-106428565D02*
X80598922Y-106476184D01*
X80598922Y-106476184D02*
X80408446Y-106523803D01*
X80408446Y-106523803D02*
X80265589Y-106523803D01*
X80265589Y-106523803D02*
X80075113Y-106476184D01*
X80075113Y-106476184D02*
X79979875Y-106428565D01*
X79979875Y-106428565D02*
X79884637Y-106333327D01*
X79884637Y-106333327D02*
X79837018Y-106190470D01*
X79837018Y-106190470D02*
X79837018Y-106095232D01*
X79837018Y-106095232D02*
X79884637Y-105952375D01*
X79884637Y-105952375D02*
X79932256Y-105904756D01*
X80837018Y-105428565D02*
X80837018Y-105238089D01*
X80837018Y-105238089D02*
X80789399Y-105142851D01*
X80789399Y-105142851D02*
X80741779Y-105095232D01*
X80741779Y-105095232D02*
X80598922Y-104999994D01*
X80598922Y-104999994D02*
X80408446Y-104952375D01*
X80408446Y-104952375D02*
X80027494Y-104952375D01*
X80027494Y-104952375D02*
X79932256Y-104999994D01*
X79932256Y-104999994D02*
X79884637Y-105047613D01*
X79884637Y-105047613D02*
X79837018Y-105142851D01*
X79837018Y-105142851D02*
X79837018Y-105333327D01*
X79837018Y-105333327D02*
X79884637Y-105428565D01*
X79884637Y-105428565D02*
X79932256Y-105476184D01*
X79932256Y-105476184D02*
X80027494Y-105523803D01*
X80027494Y-105523803D02*
X80265589Y-105523803D01*
X80265589Y-105523803D02*
X80360827Y-105476184D01*
X80360827Y-105476184D02*
X80408446Y-105428565D01*
X80408446Y-105428565D02*
X80456065Y-105333327D01*
X80456065Y-105333327D02*
X80456065Y-105142851D01*
X80456065Y-105142851D02*
X80408446Y-105047613D01*
X80408446Y-105047613D02*
X80360827Y-104999994D01*
X80360827Y-104999994D02*
X80265589Y-104952375D01*
X50340780Y-90339457D02*
X50388400Y-90387076D01*
X50388400Y-90387076D02*
X50436019Y-90529933D01*
X50436019Y-90529933D02*
X50436019Y-90625171D01*
X50436019Y-90625171D02*
X50388400Y-90768028D01*
X50388400Y-90768028D02*
X50293161Y-90863266D01*
X50293161Y-90863266D02*
X50197923Y-90910885D01*
X50197923Y-90910885D02*
X50007447Y-90958504D01*
X50007447Y-90958504D02*
X49864590Y-90958504D01*
X49864590Y-90958504D02*
X49674114Y-90910885D01*
X49674114Y-90910885D02*
X49578876Y-90863266D01*
X49578876Y-90863266D02*
X49483638Y-90768028D01*
X49483638Y-90768028D02*
X49436019Y-90625171D01*
X49436019Y-90625171D02*
X49436019Y-90529933D01*
X49436019Y-90529933D02*
X49483638Y-90387076D01*
X49483638Y-90387076D02*
X49531257Y-90339457D01*
X50436019Y-89387076D02*
X50436019Y-89958504D01*
X50436019Y-89672790D02*
X49436019Y-89672790D01*
X49436019Y-89672790D02*
X49578876Y-89768028D01*
X49578876Y-89768028D02*
X49674114Y-89863266D01*
X49674114Y-89863266D02*
X49721733Y-89958504D01*
X49436019Y-89053742D02*
X49436019Y-88434695D01*
X49436019Y-88434695D02*
X49816971Y-88768028D01*
X49816971Y-88768028D02*
X49816971Y-88625171D01*
X49816971Y-88625171D02*
X49864590Y-88529933D01*
X49864590Y-88529933D02*
X49912209Y-88482314D01*
X49912209Y-88482314D02*
X50007447Y-88434695D01*
X50007447Y-88434695D02*
X50245542Y-88434695D01*
X50245542Y-88434695D02*
X50340780Y-88482314D01*
X50340780Y-88482314D02*
X50388400Y-88529933D01*
X50388400Y-88529933D02*
X50436019Y-88625171D01*
X50436019Y-88625171D02*
X50436019Y-88910885D01*
X50436019Y-88910885D02*
X50388400Y-89006123D01*
X50388400Y-89006123D02*
X50340780Y-89053742D01*
X76583333Y-127859580D02*
X76535714Y-127907200D01*
X76535714Y-127907200D02*
X76392857Y-127954819D01*
X76392857Y-127954819D02*
X76297619Y-127954819D01*
X76297619Y-127954819D02*
X76154762Y-127907200D01*
X76154762Y-127907200D02*
X76059524Y-127811961D01*
X76059524Y-127811961D02*
X76011905Y-127716723D01*
X76011905Y-127716723D02*
X75964286Y-127526247D01*
X75964286Y-127526247D02*
X75964286Y-127383390D01*
X75964286Y-127383390D02*
X76011905Y-127192914D01*
X76011905Y-127192914D02*
X76059524Y-127097676D01*
X76059524Y-127097676D02*
X76154762Y-127002438D01*
X76154762Y-127002438D02*
X76297619Y-126954819D01*
X76297619Y-126954819D02*
X76392857Y-126954819D01*
X76392857Y-126954819D02*
X76535714Y-127002438D01*
X76535714Y-127002438D02*
X76583333Y-127050057D01*
X77440476Y-126954819D02*
X77250000Y-126954819D01*
X77250000Y-126954819D02*
X77154762Y-127002438D01*
X77154762Y-127002438D02*
X77107143Y-127050057D01*
X77107143Y-127050057D02*
X77011905Y-127192914D01*
X77011905Y-127192914D02*
X76964286Y-127383390D01*
X76964286Y-127383390D02*
X76964286Y-127764342D01*
X76964286Y-127764342D02*
X77011905Y-127859580D01*
X77011905Y-127859580D02*
X77059524Y-127907200D01*
X77059524Y-127907200D02*
X77154762Y-127954819D01*
X77154762Y-127954819D02*
X77345238Y-127954819D01*
X77345238Y-127954819D02*
X77440476Y-127907200D01*
X77440476Y-127907200D02*
X77488095Y-127859580D01*
X77488095Y-127859580D02*
X77535714Y-127764342D01*
X77535714Y-127764342D02*
X77535714Y-127526247D01*
X77535714Y-127526247D02*
X77488095Y-127431009D01*
X77488095Y-127431009D02*
X77440476Y-127383390D01*
X77440476Y-127383390D02*
X77345238Y-127335771D01*
X77345238Y-127335771D02*
X77154762Y-127335771D01*
X77154762Y-127335771D02*
X77059524Y-127383390D01*
X77059524Y-127383390D02*
X77011905Y-127431009D01*
X77011905Y-127431009D02*
X76964286Y-127526247D01*
X82833333Y-92704819D02*
X82357143Y-92704819D01*
X82357143Y-92704819D02*
X82357143Y-91704819D01*
X83690476Y-92704819D02*
X83119048Y-92704819D01*
X83404762Y-92704819D02*
X83404762Y-91704819D01*
X83404762Y-91704819D02*
X83309524Y-91847676D01*
X83309524Y-91847676D02*
X83214286Y-91942914D01*
X83214286Y-91942914D02*
X83119048Y-91990533D01*
X66248333Y-107420819D02*
X65915000Y-106944628D01*
X65676905Y-107420819D02*
X65676905Y-106420819D01*
X65676905Y-106420819D02*
X66057857Y-106420819D01*
X66057857Y-106420819D02*
X66153095Y-106468438D01*
X66153095Y-106468438D02*
X66200714Y-106516057D01*
X66200714Y-106516057D02*
X66248333Y-106611295D01*
X66248333Y-106611295D02*
X66248333Y-106754152D01*
X66248333Y-106754152D02*
X66200714Y-106849390D01*
X66200714Y-106849390D02*
X66153095Y-106897009D01*
X66153095Y-106897009D02*
X66057857Y-106944628D01*
X66057857Y-106944628D02*
X65676905Y-106944628D01*
X66581667Y-106420819D02*
X67200714Y-106420819D01*
X67200714Y-106420819D02*
X66867381Y-106801771D01*
X66867381Y-106801771D02*
X67010238Y-106801771D01*
X67010238Y-106801771D02*
X67105476Y-106849390D01*
X67105476Y-106849390D02*
X67153095Y-106897009D01*
X67153095Y-106897009D02*
X67200714Y-106992247D01*
X67200714Y-106992247D02*
X67200714Y-107230342D01*
X67200714Y-107230342D02*
X67153095Y-107325580D01*
X67153095Y-107325580D02*
X67105476Y-107373200D01*
X67105476Y-107373200D02*
X67010238Y-107420819D01*
X67010238Y-107420819D02*
X66724524Y-107420819D01*
X66724524Y-107420819D02*
X66629286Y-107373200D01*
X66629286Y-107373200D02*
X66581667Y-107325580D01*
X64657142Y-121459580D02*
X64609523Y-121507200D01*
X64609523Y-121507200D02*
X64466666Y-121554819D01*
X64466666Y-121554819D02*
X64371428Y-121554819D01*
X64371428Y-121554819D02*
X64228571Y-121507200D01*
X64228571Y-121507200D02*
X64133333Y-121411961D01*
X64133333Y-121411961D02*
X64085714Y-121316723D01*
X64085714Y-121316723D02*
X64038095Y-121126247D01*
X64038095Y-121126247D02*
X64038095Y-120983390D01*
X64038095Y-120983390D02*
X64085714Y-120792914D01*
X64085714Y-120792914D02*
X64133333Y-120697676D01*
X64133333Y-120697676D02*
X64228571Y-120602438D01*
X64228571Y-120602438D02*
X64371428Y-120554819D01*
X64371428Y-120554819D02*
X64466666Y-120554819D01*
X64466666Y-120554819D02*
X64609523Y-120602438D01*
X64609523Y-120602438D02*
X64657142Y-120650057D01*
X65609523Y-121554819D02*
X65038095Y-121554819D01*
X65323809Y-121554819D02*
X65323809Y-120554819D01*
X65323809Y-120554819D02*
X65228571Y-120697676D01*
X65228571Y-120697676D02*
X65133333Y-120792914D01*
X65133333Y-120792914D02*
X65038095Y-120840533D01*
X66228571Y-120554819D02*
X66323809Y-120554819D01*
X66323809Y-120554819D02*
X66419047Y-120602438D01*
X66419047Y-120602438D02*
X66466666Y-120650057D01*
X66466666Y-120650057D02*
X66514285Y-120745295D01*
X66514285Y-120745295D02*
X66561904Y-120935771D01*
X66561904Y-120935771D02*
X66561904Y-121173866D01*
X66561904Y-121173866D02*
X66514285Y-121364342D01*
X66514285Y-121364342D02*
X66466666Y-121459580D01*
X66466666Y-121459580D02*
X66419047Y-121507200D01*
X66419047Y-121507200D02*
X66323809Y-121554819D01*
X66323809Y-121554819D02*
X66228571Y-121554819D01*
X66228571Y-121554819D02*
X66133333Y-121507200D01*
X66133333Y-121507200D02*
X66085714Y-121459580D01*
X66085714Y-121459580D02*
X66038095Y-121364342D01*
X66038095Y-121364342D02*
X65990476Y-121173866D01*
X65990476Y-121173866D02*
X65990476Y-120935771D01*
X65990476Y-120935771D02*
X66038095Y-120745295D01*
X66038095Y-120745295D02*
X66085714Y-120650057D01*
X66085714Y-120650057D02*
X66133333Y-120602438D01*
X66133333Y-120602438D02*
X66228571Y-120554819D01*
X70631580Y-81374357D02*
X70679200Y-81421976D01*
X70679200Y-81421976D02*
X70726819Y-81564833D01*
X70726819Y-81564833D02*
X70726819Y-81660071D01*
X70726819Y-81660071D02*
X70679200Y-81802928D01*
X70679200Y-81802928D02*
X70583961Y-81898166D01*
X70583961Y-81898166D02*
X70488723Y-81945785D01*
X70488723Y-81945785D02*
X70298247Y-81993404D01*
X70298247Y-81993404D02*
X70155390Y-81993404D01*
X70155390Y-81993404D02*
X69964914Y-81945785D01*
X69964914Y-81945785D02*
X69869676Y-81898166D01*
X69869676Y-81898166D02*
X69774438Y-81802928D01*
X69774438Y-81802928D02*
X69726819Y-81660071D01*
X69726819Y-81660071D02*
X69726819Y-81564833D01*
X69726819Y-81564833D02*
X69774438Y-81421976D01*
X69774438Y-81421976D02*
X69822057Y-81374357D01*
X70726819Y-80421976D02*
X70726819Y-80993404D01*
X70726819Y-80707690D02*
X69726819Y-80707690D01*
X69726819Y-80707690D02*
X69869676Y-80802928D01*
X69869676Y-80802928D02*
X69964914Y-80898166D01*
X69964914Y-80898166D02*
X70012533Y-80993404D01*
X70060152Y-79564833D02*
X70726819Y-79564833D01*
X69679200Y-79802928D02*
X70393485Y-80041023D01*
X70393485Y-80041023D02*
X70393485Y-79421976D01*
X70557142Y-121561780D02*
X70509523Y-121609400D01*
X70509523Y-121609400D02*
X70366666Y-121657019D01*
X70366666Y-121657019D02*
X70271428Y-121657019D01*
X70271428Y-121657019D02*
X70128571Y-121609400D01*
X70128571Y-121609400D02*
X70033333Y-121514161D01*
X70033333Y-121514161D02*
X69985714Y-121418923D01*
X69985714Y-121418923D02*
X69938095Y-121228447D01*
X69938095Y-121228447D02*
X69938095Y-121085590D01*
X69938095Y-121085590D02*
X69985714Y-120895114D01*
X69985714Y-120895114D02*
X70033333Y-120799876D01*
X70033333Y-120799876D02*
X70128571Y-120704638D01*
X70128571Y-120704638D02*
X70271428Y-120657019D01*
X70271428Y-120657019D02*
X70366666Y-120657019D01*
X70366666Y-120657019D02*
X70509523Y-120704638D01*
X70509523Y-120704638D02*
X70557142Y-120752257D01*
X70938095Y-120752257D02*
X70985714Y-120704638D01*
X70985714Y-120704638D02*
X71080952Y-120657019D01*
X71080952Y-120657019D02*
X71319047Y-120657019D01*
X71319047Y-120657019D02*
X71414285Y-120704638D01*
X71414285Y-120704638D02*
X71461904Y-120752257D01*
X71461904Y-120752257D02*
X71509523Y-120847495D01*
X71509523Y-120847495D02*
X71509523Y-120942733D01*
X71509523Y-120942733D02*
X71461904Y-121085590D01*
X71461904Y-121085590D02*
X70890476Y-121657019D01*
X70890476Y-121657019D02*
X71509523Y-121657019D01*
X72461904Y-121657019D02*
X71890476Y-121657019D01*
X72176190Y-121657019D02*
X72176190Y-120657019D01*
X72176190Y-120657019D02*
X72080952Y-120799876D01*
X72080952Y-120799876D02*
X71985714Y-120895114D01*
X71985714Y-120895114D02*
X71890476Y-120942733D01*
X66833333Y-141609580D02*
X66785714Y-141657200D01*
X66785714Y-141657200D02*
X66642857Y-141704819D01*
X66642857Y-141704819D02*
X66547619Y-141704819D01*
X66547619Y-141704819D02*
X66404762Y-141657200D01*
X66404762Y-141657200D02*
X66309524Y-141561961D01*
X66309524Y-141561961D02*
X66261905Y-141466723D01*
X66261905Y-141466723D02*
X66214286Y-141276247D01*
X66214286Y-141276247D02*
X66214286Y-141133390D01*
X66214286Y-141133390D02*
X66261905Y-140942914D01*
X66261905Y-140942914D02*
X66309524Y-140847676D01*
X66309524Y-140847676D02*
X66404762Y-140752438D01*
X66404762Y-140752438D02*
X66547619Y-140704819D01*
X66547619Y-140704819D02*
X66642857Y-140704819D01*
X66642857Y-140704819D02*
X66785714Y-140752438D01*
X66785714Y-140752438D02*
X66833333Y-140800057D01*
X67166667Y-140704819D02*
X67833333Y-140704819D01*
X67833333Y-140704819D02*
X67404762Y-141704819D01*
%TO.C,R6*%
D11*
X63879724Y-100457500D02*
X63370276Y-100457500D01*
X63879724Y-101502500D02*
X63370276Y-101502500D01*
%TO.C,R9*%
X64368500Y-80435776D02*
X64368500Y-80945224D01*
X65413500Y-80435776D02*
X65413500Y-80945224D01*
%TO.C,C1*%
X65481333Y-122181200D02*
X65773867Y-122181200D01*
X65481333Y-123201200D02*
X65773867Y-123201200D01*
%TO.C,C18*%
X80016233Y-84090000D02*
X80308767Y-84090000D01*
X80016233Y-85110000D02*
X80308767Y-85110000D01*
%TO.C,R5*%
X63879724Y-102457500D02*
X63370276Y-102457500D01*
X63879724Y-103502500D02*
X63370276Y-103502500D01*
%TO.C,BOOT_SW1*%
X71750000Y-73799000D02*
X71750000Y-67799000D01*
X76300000Y-67699000D02*
X73700000Y-67699000D01*
X76300000Y-73899000D02*
X73700000Y-73899000D01*
X77300000Y-65699000D02*
X78300000Y-65699000D01*
X78250000Y-73699000D02*
X78250000Y-67899000D01*
X78300000Y-65699000D02*
X78300000Y-66699000D01*
%TO.C,R12*%
X71491500Y-84161224D02*
X71491500Y-83651776D01*
X72536500Y-84161224D02*
X72536500Y-83651776D01*
%TO.C,C2*%
X71311067Y-121990000D02*
X71018533Y-121990000D01*
X71311067Y-123010000D02*
X71018533Y-123010000D01*
%TO.C,C17*%
X82890000Y-87994852D02*
X82890000Y-86572348D01*
X85610000Y-87994852D02*
X85610000Y-86572348D01*
%TO.C,C8*%
X80352348Y-149388200D02*
X80874852Y-149388200D01*
X80352348Y-150858200D02*
X80874852Y-150858200D01*
%TO.C,R1*%
X65486100Y-115658024D02*
X65486100Y-115148576D01*
X66531100Y-115658024D02*
X66531100Y-115148576D01*
%TO.C,J6*%
D12*
X56225600Y-97343800D02*
X50925600Y-97343800D01*
X56875600Y-109293800D02*
X50925600Y-109293800D01*
X60700600Y-97343800D02*
X59775600Y-97343800D01*
X60700600Y-97343800D02*
X60700600Y-107993800D01*
D13*
X48325600Y-106693800D02*
G75*
G02*
X48125600Y-106693800I-100000J0D01*
G01*
X48125600Y-106693800D02*
G75*
G02*
X48325600Y-106693800I100000J0D01*
G01*
%TO.C,R4*%
D11*
X63879724Y-104477500D02*
X63370276Y-104477500D01*
X63879724Y-105522500D02*
X63370276Y-105522500D01*
%TO.C,R10*%
X62637500Y-80435776D02*
X62637500Y-80945224D01*
X63682500Y-80435776D02*
X63682500Y-80945224D01*
%TO.C,R11*%
X69209724Y-88945500D02*
X68700276Y-88945500D01*
X69209724Y-89990500D02*
X68700276Y-89990500D01*
%TO.C,C12*%
X83741752Y-121832000D02*
X82319248Y-121832000D01*
X83741752Y-123652000D02*
X82319248Y-123652000D01*
%TO.C,C22*%
X76244748Y-121425600D02*
X77667252Y-121425600D01*
X76244748Y-123245600D02*
X77667252Y-123245600D01*
%TO.C,C20*%
X84373952Y-135141600D02*
X82951448Y-135141600D01*
X84373952Y-136961600D02*
X82951448Y-136961600D01*
%TO.C,R7*%
X63879724Y-98377500D02*
X63370276Y-98377500D01*
X63879724Y-99422500D02*
X63370276Y-99422500D01*
%TO.C,J2*%
D12*
X87722467Y-93231728D02*
X87722467Y-154731728D01*
X87722467Y-154731728D02*
X99722467Y-154731728D01*
X99722467Y-93231728D02*
X87722467Y-93231728D01*
X99722467Y-154731728D02*
X99722467Y-93231728D01*
D13*
X95122467Y-92484728D02*
G75*
G02*
X94922467Y-92484728I-100000J0D01*
G01*
X94922467Y-92484728D02*
G75*
G02*
X95122467Y-92484728I100000J0D01*
G01*
%TO.C,C16*%
D11*
X58065000Y-89966252D02*
X58065000Y-89443748D01*
X59535000Y-89966252D02*
X59535000Y-89443748D01*
%TO.C,C19*%
X74890000Y-87994852D02*
X74890000Y-86572348D01*
X77610000Y-87994852D02*
X77610000Y-86572348D01*
%TO.C,D3*%
X67946000Y-92383800D02*
X70806000Y-92383800D01*
X70806000Y-90463800D02*
X67946000Y-90463800D01*
X70806000Y-92383800D02*
X70806000Y-90463800D01*
%TO.C,RESET_SW1*%
X60484000Y-75582000D02*
X60484000Y-74582000D01*
X60534000Y-67582000D02*
X60534000Y-73382000D01*
X61484000Y-75582000D02*
X60484000Y-75582000D01*
X62484000Y-67382000D02*
X65084000Y-67382000D01*
X62484000Y-73582000D02*
X65084000Y-73582000D01*
X67034000Y-67482000D02*
X67034000Y-73482000D01*
%TO.C,C5*%
X83122067Y-124240000D02*
X82829533Y-124240000D01*
X83122067Y-125260000D02*
X82829533Y-125260000D01*
%TO.C,D1*%
X64185000Y-83515000D02*
X64185000Y-86375000D01*
X64185000Y-86375000D02*
X66105000Y-86375000D01*
X66105000Y-86375000D02*
X66105000Y-83515000D01*
%TO.C,J3*%
X90457500Y-64878750D02*
X99657500Y-64878750D01*
X90457500Y-73678750D02*
X90457500Y-64878750D01*
X90457500Y-79578750D02*
X90457500Y-77678750D01*
X93157500Y-79578750D02*
X90457500Y-79578750D01*
X98807500Y-79778750D02*
X99857500Y-79778750D01*
X99657500Y-64878750D02*
X99657500Y-79578750D01*
X99657500Y-79578750D02*
X97057500Y-79578750D01*
X99857500Y-78728750D02*
X99857500Y-79778750D01*
%TO.C,J1*%
D12*
X48300000Y-123250000D02*
X48300000Y-154750000D01*
X48300000Y-154750000D02*
X60300000Y-154750000D01*
X60300000Y-123250000D02*
X48300000Y-123250000D01*
X60300000Y-154750000D02*
X60300000Y-123250000D01*
D13*
X53100000Y-122750000D02*
G75*
G02*
X52900000Y-122750000I-100000J0D01*
G01*
X52900000Y-122750000D02*
G75*
G02*
X53100000Y-122750000I100000J0D01*
G01*
%TO.C,R2*%
D11*
X60477500Y-89495276D02*
X60477500Y-90004724D01*
X61522500Y-89495276D02*
X61522500Y-90004724D01*
%TO.C,C15*%
X54398800Y-89550333D02*
X54398800Y-89842867D01*
X55418800Y-89550333D02*
X55418800Y-89842867D01*
%TO.C,D2*%
X61924000Y-83515000D02*
X61924000Y-86375000D01*
X61924000Y-86375000D02*
X63844000Y-86375000D01*
X63844000Y-86375000D02*
X63844000Y-83515000D01*
%TO.C,R8*%
X56077500Y-89445276D02*
X56077500Y-89954724D01*
X57122500Y-89445276D02*
X57122500Y-89954724D01*
%TO.C,C11*%
X75838348Y-135192400D02*
X77260852Y-135192400D01*
X75838348Y-137012400D02*
X77260852Y-137012400D01*
%TO.C,C3*%
X76987533Y-133490000D02*
X77280067Y-133490000D01*
X76987533Y-134510000D02*
X77280067Y-134510000D01*
%TO.C,J4*%
X50938000Y-77039000D02*
X52318000Y-77039000D01*
X50938000Y-78419000D02*
X50938000Y-77039000D01*
X50938000Y-79689000D02*
X50938000Y-84879000D01*
X50938000Y-79689000D02*
X53588000Y-79689000D01*
X50938000Y-84879000D02*
X56238000Y-84879000D01*
X53588000Y-77039000D02*
X56238000Y-77039000D01*
X53588000Y-79689000D02*
X53588000Y-77039000D01*
X56238000Y-77039000D02*
X56238000Y-84879000D01*
%TO.C,U4*%
X79340000Y-85990000D02*
X81160000Y-85990000D01*
X79340000Y-86040000D02*
X79340000Y-85990000D01*
X79340000Y-89110000D02*
X79340000Y-89060000D01*
X81160000Y-85990000D02*
X81160000Y-86040000D01*
X81160000Y-89060000D02*
X81160000Y-89110000D01*
X81160000Y-89110000D02*
X79340000Y-89110000D01*
X78800000Y-86040000D02*
X78560000Y-85710000D01*
X79040000Y-85710000D01*
X78800000Y-86040000D01*
G36*
X78800000Y-86040000D02*
G01*
X78560000Y-85710000D01*
X79040000Y-85710000D01*
X78800000Y-86040000D01*
G37*
%TO.C,C4*%
X83554967Y-133509600D02*
X83262433Y-133509600D01*
X83554967Y-134529600D02*
X83262433Y-134529600D01*
%TO.C,C9*%
X79472200Y-108663148D02*
X79472200Y-109185652D01*
X80942200Y-108663148D02*
X80942200Y-109185652D01*
%TO.C,C13*%
X50856400Y-88989248D02*
X50856400Y-90411752D01*
X53576400Y-88989248D02*
X53576400Y-90411752D01*
%TO.C,C6*%
X77420433Y-123857600D02*
X77712967Y-123857600D01*
X77420433Y-124877600D02*
X77712967Y-124877600D01*
%TO.C,L1*%
D12*
X76975000Y-90070000D02*
X76975000Y-90600000D01*
X76975000Y-94130000D02*
X76975000Y-93600000D01*
X81425000Y-90070000D02*
X76975000Y-90070000D01*
X81425000Y-90070000D02*
X81425000Y-90600000D01*
X81425000Y-93600000D02*
X81425000Y-94130000D01*
X81425000Y-94130000D02*
X76975000Y-94130000D01*
%TO.C,R3*%
D11*
X63879724Y-106477500D02*
X63370276Y-106477500D01*
X63879724Y-107522500D02*
X63370276Y-107522500D01*
%TO.C,J5*%
X88658194Y-67278750D02*
G75*
G02*
X85056806Y-67278750I-1800694J0D01*
G01*
X85056806Y-67278750D02*
G75*
G02*
X88658194Y-67278750I1800694J0D01*
G01*
%TO.C,C10*%
X64666248Y-123711600D02*
X66088752Y-123711600D01*
X64666248Y-125531600D02*
X66088752Y-125531600D01*
%TO.C,J7*%
X49120000Y-118630000D02*
X49120000Y-117250000D01*
X50500000Y-118630000D02*
X49120000Y-118630000D01*
X51770000Y-115870000D02*
X59500000Y-115870000D01*
X51770000Y-118630000D02*
X51770000Y-115870000D01*
X51770000Y-118630000D02*
X59500000Y-118630000D01*
X59500000Y-118630000D02*
X59500000Y-115870000D01*
%TO.C,C14*%
X69762000Y-84052767D02*
X69762000Y-83760233D01*
X70782000Y-84052767D02*
X70782000Y-83760233D01*
%TO.C,C21*%
X71846752Y-123590000D02*
X70424248Y-123590000D01*
X71846752Y-125410000D02*
X70424248Y-125410000D01*
%TO.C,C7*%
X66788748Y-138161400D02*
X67311252Y-138161400D01*
X66788748Y-139631400D02*
X67311252Y-139631400D01*
%TD*%
M02*
