%TF.GenerationSoftware,KiCad,Pcbnew,10.0.5-10.0.5~ubuntu24.04.1*%
%TF.CreationDate,2026-09-06T20:16:32-05:00*%
%TF.ProjectId,midi_glock_pcb,6d696469-5f67-46c6-9f63-6b5f7063622e,rev?*%
%TF.SameCoordinates,Original*%
%TF.FileFunction,Soldermask,Bot*%
%TF.FilePolarity,Negative*%
%FSLAX46Y46*%
G04 Gerber Fmt 4.6, Leading zero omitted, Abs format (unit mm)*
G04 Created by KiCad (PCBNEW 10.0.5-10.0.5~ubuntu24.04.1) date 2026-09-06 20:16:32*
%MOMM*%
%LPD*%
G01*
G04 APERTURE LIST*
G04 Aperture macros list*
%AMRoundRect*
0 Rectangle with rounded corners*
0 $1 Rounding radius*
0 $2 $3 $4 $5 $6 $7 $8 $9 X,Y pos of 4 corners*
0 Add a 4 corners polygon primitive as box body*
4,1,4,$2,$3,$4,$5,$6,$7,$8,$9,$2,$3,0*
0 Add four circle primitives for the rounded corners*
1,1,$1+$1,$2,$3*
1,1,$1+$1,$4,$5*
1,1,$1+$1,$6,$7*
1,1,$1+$1,$8,$9*
0 Add four rect primitives between the rounded corners*
20,1,$1+$1,$2,$3,$4,$5,0*
20,1,$1+$1,$4,$5,$6,$7,0*
20,1,$1+$1,$6,$7,$8,$9,0*
20,1,$1+$1,$8,$9,$2,$3,0*%
G04 Aperture macros list end*
%ADD10C,0.499999*%
%ADD11C,3.600000*%
%ADD12C,5.600000*%
%ADD13RoundRect,0.102000X0.754000X-0.754000X0.754000X0.754000X-0.754000X0.754000X-0.754000X-0.754000X0*%
%ADD14C,1.712000*%
%ADD15R,3.500000X3.500000*%
%ADD16RoundRect,0.750000X-1.000000X0.750000X-1.000000X-0.750000X1.000000X-0.750000X1.000000X0.750000X0*%
%ADD17RoundRect,0.875000X-0.875000X0.875000X-0.875000X-0.875000X0.875000X-0.875000X0.875000X0.875000X0*%
%ADD18RoundRect,0.102000X-0.754000X0.754000X-0.754000X-0.754000X0.754000X-0.754000X0.754000X0.754000X0*%
%ADD19R,1.700000X1.700000*%
%ADD20C,1.700000*%
%ADD21C,3.000000*%
%ADD22R,0.889000X1.498600*%
%ADD23R,0.889000X0.889000*%
G04 APERTURE END LIST*
D10*
%TO.C,U2*%
X82912001Y-114868000D03*
X81712000Y-114868000D03*
X80512000Y-114868000D03*
X79311998Y-114868000D03*
X78111998Y-114868000D03*
X76911997Y-114868000D03*
X82912001Y-116068000D03*
X81712000Y-116068000D03*
X80512000Y-116068000D03*
X79311998Y-116068000D03*
X78111998Y-116068000D03*
X76911997Y-116068000D03*
X82912001Y-117268000D03*
X81712000Y-117268000D03*
X80512000Y-117268000D03*
X79311998Y-117268000D03*
X78111998Y-117268000D03*
X76911997Y-117268000D03*
%TD*%
%TO.C,U3*%
X65499998Y-132200000D03*
X66699999Y-132200000D03*
X67899999Y-132200000D03*
X69100001Y-132200000D03*
X70300001Y-132200000D03*
X71500002Y-132200000D03*
X65499998Y-131000000D03*
X66699999Y-131000000D03*
X67899999Y-131000000D03*
X69100001Y-131000000D03*
X70300001Y-131000000D03*
X71500002Y-131000000D03*
X65499998Y-129800000D03*
X66699999Y-129800000D03*
X67899999Y-129800000D03*
X69100001Y-129800000D03*
X70300001Y-129800000D03*
X71500002Y-129800000D03*
%TD*%
D11*
%TO.C,REF\u002A\u002A*%
X54248400Y-70595800D03*
D12*
X54248400Y-70595800D03*
%TD*%
D13*
%TO.C,J2*%
X95022467Y-94481728D03*
D14*
X90022467Y-96981728D03*
X95022467Y-99481728D03*
X90022467Y-101981728D03*
X95022467Y-104481728D03*
X90022467Y-106981728D03*
X95022467Y-109481728D03*
X90022467Y-111981728D03*
X95022467Y-114481728D03*
X90022467Y-116981728D03*
X95022467Y-119481728D03*
X90022467Y-121981728D03*
X95022467Y-124481728D03*
X90022467Y-126981728D03*
X95022467Y-129481728D03*
X90022467Y-131981728D03*
X95022467Y-134481728D03*
X90022467Y-136981728D03*
X95022467Y-139481728D03*
X90022467Y-141981728D03*
X95022467Y-144481728D03*
X90022467Y-146981728D03*
X95022467Y-149481728D03*
X90022467Y-151981728D03*
%TD*%
D10*
%TO.C,U1*%
X76899997Y-143700000D03*
X78099998Y-143700000D03*
X79299998Y-143700000D03*
X80500000Y-143700000D03*
X81700000Y-143700000D03*
X82900001Y-143700000D03*
X76899997Y-142500000D03*
X78099998Y-142500000D03*
X79299998Y-142500000D03*
X80500000Y-142500000D03*
X81700000Y-142500000D03*
X82900001Y-142500000D03*
X76899997Y-141300000D03*
X78099998Y-141300000D03*
X79299998Y-141300000D03*
X80500000Y-141300000D03*
X81700000Y-141300000D03*
X82900001Y-141300000D03*
%TD*%
D15*
%TO.C,J3*%
X95057500Y-78678750D03*
D16*
X95057500Y-72678750D03*
D17*
X90357500Y-75678750D03*
%TD*%
D18*
%TO.C,J1*%
X53000000Y-126000000D03*
D14*
X53000000Y-128500000D03*
X53000000Y-131000000D03*
X53000000Y-133500000D03*
X53000000Y-136000000D03*
X53000000Y-138500000D03*
X53000000Y-141000000D03*
X53000000Y-143500000D03*
X53000000Y-146000000D03*
X53000000Y-148500000D03*
X53000000Y-151000000D03*
X53000000Y-153500000D03*
%TD*%
D19*
%TO.C,J4*%
X52318000Y-78419000D03*
D20*
X54858000Y-78419000D03*
X52318000Y-80959000D03*
X54858000Y-80959000D03*
X52318000Y-83499000D03*
X54858000Y-83499000D03*
%TD*%
D11*
%TO.C,REF\u002A\u002A*%
X95500000Y-88000000D03*
D12*
X95500000Y-88000000D03*
%TD*%
D11*
%TO.C,REF\u002A\u002A*%
X70750000Y-150000000D03*
D12*
X70750000Y-150000000D03*
%TD*%
D21*
%TO.C,J5*%
X86857500Y-67278750D03*
%TD*%
D19*
%TO.C,J7*%
X50500000Y-117250000D03*
D20*
X53040000Y-117250000D03*
X55580000Y-117250000D03*
X58120000Y-117250000D03*
%TD*%
D22*
%TO.C,U5*%
X49265000Y-94100000D03*
X50535000Y-94100000D03*
X51805000Y-94100000D03*
X53075000Y-94100000D03*
X54345000Y-94100000D03*
X55615000Y-94100000D03*
X56885000Y-94100000D03*
X58155000Y-94100000D03*
X59425000Y-94100000D03*
X60695000Y-94100000D03*
X61965000Y-94100000D03*
X63235000Y-94100000D03*
X64505000Y-94100000D03*
X65775000Y-94100000D03*
X67045000Y-94100000D03*
X68315000Y-94100000D03*
X69585000Y-94100000D03*
X70855000Y-94100000D03*
X72125000Y-94100000D03*
X72125000Y-111600600D03*
X70855000Y-111600600D03*
X69585000Y-111600600D03*
X68315000Y-111600600D03*
X67045000Y-111600600D03*
X65775000Y-111600600D03*
X64505000Y-111600600D03*
X63235000Y-111600600D03*
X61965000Y-111600600D03*
X60695000Y-111600600D03*
X59425000Y-111600600D03*
X58155000Y-111600600D03*
X56885000Y-111600600D03*
X55615000Y-111600600D03*
X54345000Y-111600600D03*
X53075000Y-111600600D03*
X51805000Y-111600600D03*
X50535000Y-111600600D03*
X49265000Y-111600600D03*
D23*
X55663260Y-99947080D03*
X55663260Y-101346620D03*
X55663260Y-102746160D03*
X57062800Y-99947080D03*
X57062800Y-101346620D03*
X57062800Y-102746160D03*
X58462340Y-99947080D03*
X58462340Y-101346620D03*
X58462340Y-102746160D03*
%TD*%
M02*
