%TF.GenerationSoftware,KiCad,Pcbnew,10.0.5-10.0.5~ubuntu24.04.1*%
%TF.CreationDate,2026-09-06T20:16:32-05:00*%
%TF.ProjectId,midi_glock_pcb,6d696469-5f67-46c6-9f63-6b5f7063622e,rev?*%
%TF.SameCoordinates,Original*%
%TF.FileFunction,Paste,Bot*%
%TF.FilePolarity,Positive*%
%FSLAX46Y46*%
G04 Gerber Fmt 4.6, Leading zero omitted, Abs format (unit mm)*
G04 Created by KiCad (PCBNEW 10.0.5-10.0.5~ubuntu24.04.1) date 2026-09-06 20:16:32*
%MOMM*%
%LPD*%
G01*
G04 APERTURE LIST*
%ADD10R,0.889000X1.498600*%
%ADD11R,0.889000X0.889000*%
G04 APERTURE END LIST*
D10*
%TO.C,U5*%
X49265000Y-94100000D03*
X50535000Y-94100000D03*
X51805000Y-94100000D03*
X53075000Y-94100000D03*
X54345000Y-94100000D03*
X55615000Y-94100000D03*
X56885000Y-94100000D03*
X58155000Y-94100000D03*
X59425000Y-94100000D03*
X60695000Y-94100000D03*
X61965000Y-94100000D03*
X63235000Y-94100000D03*
X64505000Y-94100000D03*
X65775000Y-94100000D03*
X67045000Y-94100000D03*
X68315000Y-94100000D03*
X69585000Y-94100000D03*
X70855000Y-94100000D03*
X72125000Y-94100000D03*
X72125000Y-111600600D03*
X70855000Y-111600600D03*
X69585000Y-111600600D03*
X68315000Y-111600600D03*
X67045000Y-111600600D03*
X65775000Y-111600600D03*
X64505000Y-111600600D03*
X63235000Y-111600600D03*
X61965000Y-111600600D03*
X60695000Y-111600600D03*
X59425000Y-111600600D03*
X58155000Y-111600600D03*
X56885000Y-111600600D03*
X55615000Y-111600600D03*
X54345000Y-111600600D03*
X53075000Y-111600600D03*
X51805000Y-111600600D03*
X50535000Y-111600600D03*
X49265000Y-111600600D03*
D11*
X55663260Y-99947080D03*
X55663260Y-101346620D03*
X55663260Y-102746160D03*
X57062800Y-99947080D03*
X57062800Y-101346620D03*
X57062800Y-102746160D03*
X58462340Y-99947080D03*
X58462340Y-101346620D03*
X58462340Y-102746160D03*
%TD*%
M02*
