M48
; DRILL file KiCad 10.0.5-10.0.5~ubuntu24.04.1 date 2026-09-06T20:16:12
; FORMAT={-:-/ absolute / metric / decimal}
; #@! TF.CreationDate,2026-09-06T20:16:12-05:00
; #@! TF.GenerationSoftware,Kicad,Pcbnew,10.0.5-10.0.5~ubuntu24.04.1
; #@! TF.FileFunction,Plated,1,4,PTH
FMAT,2
METRIC
; #@! TA.AperFunction,Plated,PTH,ComponentDrill
T1C0.203
; #@! TA.AperFunction,Plated,PTH,ViaDrill
T2C0.300
; #@! TA.AperFunction,Plated,PTH,ComponentDrill
T3C1.000
; #@! TA.AperFunction,Plated,PTH,ComponentDrill
T4C1.500
; #@! TA.AperFunction,Plated,PTH,ComponentDrill
T5C3.200
%
G90
G05
T1
X65.5Y-129.8
X65.5Y-131.0
X65.5Y-132.2
X66.7Y-129.8
X66.7Y-131.0
X66.7Y-132.2
X67.9Y-129.8
X67.9Y-131.0
X67.9Y-132.2
X69.1Y-129.8
X69.1Y-131.0
X69.1Y-132.2
X70.3Y-129.8
X70.3Y-131.0
X70.3Y-132.2
X71.5Y-129.8
X71.5Y-131.0
X71.5Y-132.2
X76.9Y-141.3
X76.9Y-142.5
X76.9Y-143.7
X76.912Y-114.868
X76.912Y-116.068
X76.912Y-117.268
X78.1Y-141.3
X78.1Y-142.5
X78.1Y-143.7
X78.112Y-114.868
X78.112Y-116.068
X78.112Y-117.268
X79.3Y-141.3
X79.3Y-142.5
X79.3Y-143.7
X79.312Y-114.868
X79.312Y-116.068
X79.312Y-117.268
X80.5Y-141.3
X80.5Y-142.5
X80.5Y-143.7
X80.512Y-114.868
X80.512Y-116.068
X80.512Y-117.268
X81.7Y-141.3
X81.7Y-142.5
X81.7Y-143.7
X81.712Y-114.868
X81.712Y-116.068
X81.712Y-117.268
X82.9Y-141.3
X82.9Y-142.5
X82.9Y-143.7
X82.912Y-114.868
X82.912Y-116.068
X82.912Y-117.268
T2
X49.27Y-95.615
X49.321Y-92.491
X49.422Y-110.271
X49.524Y-89.57
X50.975Y-101.05
X51.0Y-110.25
X51.175Y-108.924
X51.2Y-103.235
X51.658Y-90.078
X51.842Y-113.02
X51.861Y-92.465
X51.988Y-86.877
X52.475Y-90.052
X53.459Y-100.591
X53.766Y-102.016
X54.477Y-91.652
X54.883Y-87.284
X55.725Y-97.4
X55.747Y-113.42
X56.611Y-109.229
X56.646Y-87.284
X57.449Y-104.098
X57.533Y-89.867
X58.617Y-85.963
X58.782Y-113.636
X59.176Y-82.94
X59.786Y-113.725
X59.989Y-74.533
X60.025Y-88.757
X60.827Y-113.369
X61.462Y-85.556
X61.564Y-100.98
X61.818Y-124.85
X62.511Y-124.401
X62.732Y-135.315
X63.875Y-121.929
X63.951Y-132.699
X64.027Y-129.041
X64.053Y-133.918
X64.078Y-128.152
X64.383Y-126.744
X64.441Y-135.613
X64.789Y-125.979
X64.967Y-138.896
X65.574Y-125.356
X65.577Y-135.874
X65.75Y-107.0
X65.78Y-105.775
X65.831Y-121.929
X65.907Y-103.108
X65.983Y-137.728
X66.034Y-140.065
X66.288Y-136.407
X66.44Y-85.506
X66.75Y-120.253
X66.847Y-121.92
X67.025Y-116.341
X67.045Y-95.366
X67.38Y-82.635
X67.648Y-136.343
X68.091Y-140.166
X68.125Y-135.442
X68.315Y-109.788
X68.523Y-137.652
X68.825Y-126.372
X69.099Y-98.9
X69.107Y-84.998
X69.388Y-122.555
X69.539Y-125.993
X69.666Y-121.92
X69.793Y-118.78
X70.075Y-136.5
X70.851Y-126.648
X71.139Y-123.606
X71.165Y-91.398
X71.19Y-136.433
X71.724Y-126.501
X71.876Y-135.925
X72.155Y-87.207
X73.0Y-127.75
X73.019Y-128.5
X73.095Y-143.316
X73.171Y-132.902
X73.469Y-125.274
X73.469Y-126.001
X73.857Y-83.677
X74.213Y-138.515
X74.441Y-122.336
X74.492Y-121.37
X75.0Y-137.75
X75.229Y-134.248
X75.3Y-139.0
X75.3Y-139.9
X75.305Y-120.939
X75.33Y-119.465
X75.356Y-118.627
X75.5Y-145.0
X75.5Y-145.75
X75.7Y-84.4
X75.788Y-123.91
X75.915Y-111.668
X76.092Y-128.914
X76.321Y-120.583
X76.321Y-146.923
X76.448Y-138.084
X76.523Y-110.968
X76.575Y-84.4
X76.956Y-136.153
X77.134Y-120.888
X77.235Y-137.83
X77.4Y-84.4
X77.426Y-110.512
X77.464Y-87.563
X77.564Y-147.024
X78.0Y-128.5
X78.175Y-150.098
X78.264Y-147.761
X78.48Y-109.305
X78.772Y-74.799
X78.785Y-126.146
X78.972Y-134.192
X78.987Y-120.711
X79.302Y-124.331
X79.353Y-122.31
X79.547Y-111.134
X79.657Y-120.273
X80.015Y-137.354
X80.258Y-147.532
X80.849Y-137.761
X80.914Y-125.13
X80.934Y-124.331
X80.96Y-121.5
X81.105Y-135.905
X81.401Y-108.035
X81.6Y-134.1
X81.604Y-106.156
X81.655Y-148.955
X82.62Y-108.721
X82.747Y-137.626
X82.874Y-121.28
X82.874Y-149.056
X82.95Y-110.369
X83.1Y-84.4
X83.154Y-148.117
X83.331Y-147.177
X83.458Y-111.069
X83.535Y-120.583
X83.636Y-138.326
X83.9Y-84.4
X84.043Y-105.419
X84.17Y-118.881
X84.25Y-139.25
X84.25Y-140.0
X84.5Y-118.145
X84.5Y-112.75
X84.5Y-113.5
X84.551Y-111.769
X84.7Y-84.4
X84.754Y-124.469
X84.855Y-144.764
X85.262Y-134.0
X85.44Y-124.469
X85.871Y-122.296
X86.25Y-133.9
X86.3Y-136.1
X86.405Y-121.777
X86.8Y-135.1
X87.375Y-87.625
X88.75Y-86.25
X90.0Y-85.0
X91.25Y-83.75
X92.625Y-82.375
T3
X50.5Y-117.25
X52.318Y-78.419
X52.318Y-80.959
X52.318Y-83.499
X53.0Y-126.0
X53.0Y-128.5
X53.0Y-131.0
X53.0Y-133.5
X53.0Y-136.0
X53.0Y-138.5
X53.0Y-141.0
X53.0Y-143.5
X53.0Y-146.0
X53.0Y-148.5
X53.0Y-151.0
X53.0Y-153.5
X53.04Y-117.25
X54.858Y-78.419
X54.858Y-80.959
X54.858Y-83.499
X55.58Y-117.25
X58.12Y-117.25
X90.022Y-96.982
X90.022Y-101.982
X90.022Y-106.982
X90.022Y-111.982
X90.022Y-116.982
X90.022Y-121.982
X90.022Y-126.982
X90.022Y-131.982
X90.022Y-136.982
X90.022Y-141.982
X90.022Y-146.982
X90.022Y-151.982
X95.022Y-94.482
X95.022Y-99.482
X95.022Y-104.482
X95.022Y-109.482
X95.022Y-114.482
X95.022Y-119.482
X95.022Y-124.482
X95.022Y-129.482
X95.022Y-134.482
X95.022Y-139.482
X95.022Y-144.482
X95.022Y-149.482
T4
X86.858Y-67.279
T5
X54.248Y-70.596
X70.75Y-150.0
X95.5Y-88.0
T3
G00X90.358Y-74.679
M15
G01X90.358Y-76.679
M16
G05
G00X96.057Y-72.679
M15
G01X94.057Y-72.679
M16
G05
G00X96.057Y-78.679
M15
G01X94.057Y-78.679
M16
G05
M30
